Foldit-ExtraBold-Expanded.ufo
<glyph name="exclam.color1" format="2">
  <advance width="282"/>
  <unicode hex="0021"/>
  <outline>
    <contour>
      <point x="33" y="629" type="line"/>
      <point x="246" y="736" type="line"/>
      <point x="247" y="736" type="line"/>
      <point x="247" y="274" type="line"/>
      <point x="33" y="274" type="line"/>
    </contour>
  </outline>
</glyph>
<glyph name="exclam" format="2">
  <advance width="282"/>
  <unicode hex="0021"/>
  <outline>
    <contour>
      <point x="257" y="0" type="line"/>
      <point x="25" y="0" type="line"/>
      <point x="25" y="204" type="line"/>
      <point x="257" y="204" type="line"/>
    </contour>
    <contour>
      <point x="33" y="629" type="line"/>
      <point x="246" y="736" type="line"/>
      <point x="247" y="736" type="line"/>
      <point x="247" y="274" type="line"/>
      <point x="33" y="274" type="line"/>
    </contour>
  </outline>
</glyph>
<glyph name="quotedbl.color1" format="2">
  <advance width="547"/>
  <unicode hex="0022"/>
  <outline>
    <contour>
      <point x="181" y="390" type="line"/>
      <point x="54" y="390" type="line"/>
      <point x="53" y="390" type="line"/>
      <point x="93" y="590" type="line"/>
      <point x="267" y="590" type="line"/>
    </contour>
  </outline>
</glyph>
<glyph name="quotedbl.color3" format="2">
  <advance width="547"/>
  <unicode hex="0022"/>
  <outline>
    <contour>
      <point x="436" y="390" type="line"/>
      <point x="309" y="390" type="line"/>
      <point x="308" y="390" type="line"/>
      <point x="348" y="590" type="line"/>
      <point x="522" y="590" type="line"/>
    </contour>
  </outline>
</glyph>
<glyph name="quotedbl" format="2">
  <advance width="547"/>
  <unicode hex="0022"/>
  <outline>
    <contour>
      <point x="267" y="590" type="line"/>
      <point x="25" y="590" type="line"/>
      <point x="25" y="794" type="line"/>
      <point x="160" y="794" type="line"/>
    </contour>
    <contour>
      <point x="181" y="390" type="line"/>
      <point x="54" y="390" type="line"/>
      <point x="53" y="390" type="line"/>
      <point x="93" y="590" type="line"/>
      <point x="267" y="590" type="line"/>
    </contour>
    <contour>
      <point x="522" y="590" type="line"/>
      <point x="280" y="590" type="line"/>
      <point x="280" y="794" type="line"/>
      <point x="415" y="794" type="line"/>
    </contour>
    <contour>
      <point x="436" y="390" type="line"/>
      <point x="309" y="390" type="line"/>
      <point x="308" y="390" type="line"/>
      <point x="348" y="590" type="line"/>
      <point x="522" y="590" type="line"/>
    </contour>
  </outline>
</glyph>
<glyph name="numbersign.color0" format="2">
  <advance width="960"/>
  <unicode hex="0023"/>
  <outline>
    <contour>
      <point x="881" y="730" type="line"/>
      <point x="881" y="729" type="line"/>
      <point x="587" y="0" type="line"/>
      <point x="383" y="0" type="line"/>
      <point x="383" y="1" type="line"/>
      <point x="677" y="730" type="line"/>
    </contour>
  </outline>
</glyph>
<glyph name="numbersign.color1" format="2">
  <advance width="960"/>
  <unicode hex="0023"/>
  <outline>
    <contour>
      <point x="789" y="131" type="line"/>
      <point x="9" y="131" type="line"/>
      <point x="79" y="315" type="line"/>
      <point x="859" y="315" type="line"/>
      <point x="789" y="132" type="line"/>
    </contour>
  </outline>
</glyph>
<glyph name="numbersign.color2" format="2">
  <advance width="600"/>
  <unicode hex="0023"/>
  <outline>
    <contour>
      <point x="581" y="730" type="line"/>
      <point x="581" y="729" type="line"/>
      <point x="287" y="0" type="line"/>
      <point x="83" y="0" type="line"/>
      <point x="83" y="1" type="line"/>
      <point x="377" y="730" type="line"/>
    </contour>
  </outline>
</glyph>
<glyph name="numbersign.color3" format="2">
  <advance width="960"/>
  <unicode hex="0023"/>
  <outline>
    <contour>
      <point x="885" y="415" type="line"/>
      <point x="105" y="415" type="line"/>
      <point x="175" y="599" type="line"/>
      <point x="955" y="599" type="line"/>
      <point x="885" y="416" type="line"/>
    </contour>
  </outline>
</glyph>
<glyph name="numbersign" format="2">
  <advance width="960"/>
  <unicode hex="0023"/>
  <outline>
    <contour>
      <point x="881" y="730" type="line"/>
      <point x="881" y="729" type="line"/>
      <point x="587" y="0" type="line"/>
      <point x="383" y="0" type="line"/>
      <point x="383" y="1" type="line"/>
      <point x="677" y="730" type="line"/>
    </contour>
    <contour>
      <point x="789" y="131" type="line"/>
      <point x="9" y="131" type="line"/>
      <point x="79" y="315" type="line"/>
      <point x="859" y="315" type="line"/>
      <point x="789" y="132" type="line"/>
    </contour>
    <contour>
      <point x="581" y="730" type="line"/>
      <point x="581" y="729" type="line"/>
      <point x="287" y="0" type="line"/>
      <point x="83" y="0" type="line"/>
      <point x="83" y="1" type="line"/>
      <point x="377" y="730" type="line"/>
    </contour>
    <contour>
      <point x="885" y="415" type="line"/>
      <point x="105" y="415" type="line"/>
      <point x="175" y="599" type="line"/>
      <point x="955" y="599" type="line"/>
      <point x="885" y="416" type="line"/>
    </contour>
  </outline>
</glyph>
<glyph name="percent.color0" format="2">
  <advance width="1683"/>
  <unicode hex="0025"/>
  <outline>
    <contour>
      <point x="1264" y="730" type="line"/>
      <point x="1264" y="729" type="line"/>
      <point x="670" y="0" type="line"/>
      <point x="437" y="0" type="line"/>
      <point x="437" y="1" type="line"/>
      <point x="1031" y="730" type="line"/>
    </contour>
  </outline>
</glyph>
<glyph name="percent.color1" format="2">
  <advance width="1683"/>
  <unicode hex="0025"/>
  <outline>
    <contour>
      <point x="25" y="603" type="line"/>
      <point x="238" y="710" type="line"/>
      <point x="239" y="710" type="line"/>
      <point x="239" y="484" type="line"/>
      <point x="25" y="484" type="line"/>
    </contour>
  </outline>
</glyph>
<glyph name="percent.color2" format="2">
  <advance width="1683"/>
  <unicode hex="0025"/>
  <outline>
    <contour>
      <point x="615" y="710" type="line"/>
      <point x="722" y="507" type="line"/>
      <point x="722" y="506" type="line"/>
      <point x="239" y="506" type="line"/>
      <point x="239" y="710" type="line"/>
    </contour>
  </outline>
</glyph>
<glyph name="percent.color3" format="2">
  <advance width="1683"/>
  <unicode hex="0025"/>
  <outline>
    <contour>
      <point x="722" y="387" type="line"/>
      <point x="509" y="280" type="line"/>
      <point x="508" y="280" type="line"/>
      <point x="508" y="506" type="line"/>
      <point x="722" y="506" type="line"/>
    </contour>
  </outline>
</glyph>
<glyph name="percent.color5" format="2">
  <advance width="1683"/>
  <unicode hex="0025"/>
  <outline>
    <contour>
      <point x="961" y="323" type="line"/>
      <point x="1174" y="430" type="line"/>
      <point x="1175" y="430" type="line"/>
      <point x="1175" y="204" type="line"/>
      <point x="961" y="204" type="line"/>
    </contour>
  </outline>
</glyph>
<glyph name="percent.color6" format="2">
  <advance width="1683"/>
  <unicode hex="0025"/>
  <outline>
    <contour>
      <point x="1551" y="430" type="line"/>
      <point x="1658" y="227" type="line"/>
      <point x="1658" y="226" type="line"/>
      <point x="1175" y="226" type="line"/>
      <point x="1175" y="430" type="line"/>
    </contour>
  </outline>
</glyph>
<glyph name="percent.color7" format="2">
  <advance width="1683"/>
  <unicode hex="0025"/>
  <outline>
    <contour>
      <point x="1658" y="107" type="line"/>
      <point x="1445" y="0" type="line"/>
      <point x="1444" y="0" type="line"/>
      <point x="1444" y="226" type="line"/>
      <point x="1658" y="226" type="line"/>
    </contour>
  </outline>
</glyph>
<glyph name="percent.color8" format="2">
  <advance width="1683"/>
  <unicode hex="0025"/>
  <outline>
    <contour>
      <point x="1068" y="0" type="line"/>
      <point x="961" y="203" type="line"/>
      <point x="961" y="204" type="line"/>
      <point x="1444" y="204" type="line"/>
      <point x="1444" y="0" type="line"/>
    </contour>
  </outline>
</glyph>
<glyph name="ampersand.color1" format="2">
  <advance width="1126"/>
  <unicode hex="0026"/>
  <outline>
    <contour>
      <point x="632" y="730" type="line"/>
      <point x="632" y="486" type="line"/>
      <point x="369" y="486" type="line"/>
      <point x="369" y="730" type="line"/>
    </contour>
  </outline>
</glyph>
<glyph name="ampersand.color2" format="2">
  <advance width="1126"/>
  <unicode hex="0026"/>
  <outline>
    <contour>
      <point x="219" y="0" type="line"/>
      <point x="219" y="244" type="line"/>
      <point x="642" y="244" type="line"/>
      <point x="642" y="0" type="line"/>
    </contour>
  </outline>
</glyph>
<glyph name="ampersand.color3" format="2">
  <advance width="1126"/>
  <unicode hex="0026"/>
  <outline>
    <contour>
      <point x="784" y="603" type="line"/>
      <point x="784" y="466" type="line"/>
      <point x="632" y="262" type="line"/>
      <point x="631" y="262" type="line"/>
      <point x="632" y="730" type="line"/>
      <point x="633" y="730" type="line"/>
    </contour>
  </outline>
</glyph>
<glyph name="ampersand.color4" format="2">
  <advance width="600"/>
  <unicode hex="0026"/>
  <outline>
    <contour>
      <point x="643" y="0" type="line"/>
      <point x="642" y="0" type="line"/>
      <point x="642" y="244" type="line"/>
      <point x="860" y="443" type="line"/>
      <point x="861" y="442" type="line"/>
      <point x="1101" y="439" type="line"/>
      <point x="1101" y="436" type="line"/>
      <point x="930" y="242" type="line"/>
    </contour>
  </outline>
</glyph>
<glyph name="ampersand.color5" format="2">
  <advance width="600"/>
  <unicode hex="0026"/>
  <outline>
    <contour>
      <point x="216" y="603" type="line"/>
      <point x="368" y="730" type="line"/>
      <point x="369" y="730" type="line"/>
      <point x="369" y="467" type="line"/>
      <point x="368" y="467" type="line"/>
      <point x="216" y="466" type="line"/>
    </contour>
  </outline>
</glyph>
<glyph name="ampersand.color6" format="2">
  <advance width="1126"/>
  <unicode hex="0026"/>
  <outline>
    <contour>
      <point x="219" y="262" type="line"/>
      <point x="219" y="466" type="line"/>
      <point x="631" y="466" type="line"/>
      <point x="631" y="262" type="line"/>
    </contour>
  </outline>
</glyph>
<glyph name="quotesingle" format="2">
  <advance width="292"/>
  <unicode hex="0027"/>
  <outline>
    <contour>
      <point x="267" y="590" type="line"/>
      <point x="25" y="590" type="line"/>
      <point x="25" y="794" type="line"/>
      <point x="160" y="794" type="line"/>
    </contour>
    <contour>
      <point x="181" y="390" type="line"/>
      <point x="54" y="390" type="line"/>
      <point x="53" y="390" type="line"/>
      <point x="93" y="590" type="line"/>
      <point x="267" y="590" type="line"/>
    </contour>
  </outline>
</glyph>
<glyph name="parenleft" format="2">
  <advance width="600"/>
  <unicode hex="0028"/>
  <outline>
    <contour>
      <point x="25" y="523" type="line"/>
      <point x="278" y="730" type="line"/>
      <point x="279" y="730" type="line"/>
      <point x="279" y="144" type="line"/>
      <point x="25" y="144" type="line"/>
    </contour>
    <contour>
      <point x="540" y="486" type="line"/>
      <point x="279" y="486" type="line"/>
      <point x="279" y="730" type="line"/>
      <point x="540" y="730" type="line"/>
      <point x="540" y="729" type="line"/>
    </contour>
    <contour>
      <point x="540" y="-100" type="line"/>
      <point x="227" y="-100" type="line"/>
      <point x="25" y="143" type="line"/>
      <point x="25" y="144" type="line"/>
      <point x="540" y="144" type="line"/>
    </contour>
  </outline>
</glyph>
<glyph name="parenright.color0" format="2">
  <advance width="600"/>
  <unicode hex="0029"/>
  <outline>
    <contour>
      <point x="540" y="107" type="line"/>
      <point x="287" y="-100" type="line"/>
      <point x="286" y="-100" type="line"/>
      <point x="286" y="486" type="line"/>
      <point x="540" y="486" type="line"/>
    </contour>
  </outline>
</glyph>
<glyph name="parenright.color1" format="2">
  <advance width="600"/>
  <unicode hex="0029"/>
  <outline>
    <contour>
      <point x="25" y="144" type="line"/>
      <point x="286" y="144" type="line"/>
      <point x="286" y="-100" type="line"/>
      <point x="25" y="-100" type="line"/>
      <point x="25" y="-99" type="line"/>
    </contour>
  </outline>
</glyph>
<glyph name="asterisk.color0" format="2">
  <advance width="600"/>
  <unicode hex="002A"/>
  <outline>
    <contour>
      <point x="265" y="442" type="line"/>
      <point x="251" y="351" type="line"/>
      <point x="251" y="349" type="line"/>
      <point x="127" y="349" type="line"/>
      <point x="45" y="556" type="line"/>
    </contour>
  </outline>
</glyph>
<glyph name="asterisk.color2" format="2">
  <advance width="612"/>
  <unicode hex="002A"/>
  <outline>
    <contour>
      <point x="567" y="557" type="line"/>
      <point x="567" y="556" type="line"/>
      <point x="485" y="349" type="line"/>
      <point x="251" y="349" type="line"/>
      <point x="251" y="351" type="line"/>
      <point x="311" y="730" type="line"/>
      <point x="312" y="730" type="line"/>
    </contour>
  </outline>
</glyph>
<glyph name="asterisk" format="2">
  <advance width="612"/>
  <unicode hex="002A"/>
  <outline>
    <contour>
      <point x="265" y="442" type="line"/>
      <point x="251" y="351" type="line"/>
      <point x="251" y="349" type="line"/>
      <point x="127" y="349" type="line"/>
      <point x="45" y="556" type="line"/>
    </contour>
    <contour>
      <point x="265" y="442" type="line"/>
      <point x="45" y="556" type="line"/>
      <point x="45" y="557" type="line"/>
      <point x="309" y="730" type="line"/>
      <point x="311" y="730" type="line"/>
    </contour>
    <contour>
      <point x="567" y="557" type="line"/>
      <point x="567" y="556" type="line"/>
      <point x="485" y="349" type="line"/>
      <point x="251" y="349" type="line"/>
      <point x="251" y="351" type="line"/>
      <point x="311" y="730" type="line"/>
      <point x="312" y="730" type="line"/>
    </contour>
  </outline>
</glyph>
<glyph name="plus.color0" format="2">
  <advance width="774"/>
  <unicode hex="002B"/>
  <outline>
    <contour>
      <point x="285" y="677" type="line"/>
      <point x="489" y="677" type="line"/>
      <point x="489" y="477" type="line"/>
      <point x="286" y="273" type="line"/>
      <point x="285" y="273" type="line"/>
    </contour>
  </outline>
</glyph>
<glyph name="plus.color2" format="2">
  <advance width="774"/>
  <unicode hex="002B"/>
  <outline>
    <contour>
      <point x="25" y="477" type="line"/>
      <point x="285" y="477" type="line"/>
      <point x="285" y="273" type="line"/>
      <point x="26" y="273" type="line"/>
    </contour>
  </outline>
</glyph>
<glyph name="plus.color3" format="2">
  <advance width="774"/>
  <unicode hex="002B"/>
  <outline>
    <contour>
      <point x="489" y="273" type="line"/>
      <point x="489" y="73" type="line"/>
      <point x="285" y="73" type="line"/>
      <point x="285" y="273" type="line"/>
    </contour>
  </outline>
</glyph>
<glyph name="plus" format="2">
  <advance width="774"/>
  <unicode hex="002B"/>
  <outline>
    <contour>
      <point x="285" y="677" type="line"/>
      <point x="489" y="677" type="line"/>
      <point x="489" y="477" type="line"/>
      <point x="286" y="273" type="line"/>
      <point x="285" y="273" type="line"/>
    </contour>
    <contour>
      <point x="489" y="477" type="line"/>
      <point x="749" y="477" type="line"/>
      <point x="749" y="273" type="line"/>
      <point x="286" y="273" type="line"/>
    </contour>
    <contour>
      <point x="25" y="477" type="line"/>
      <point x="285" y="477" type="line"/>
      <point x="285" y="273" type="line"/>
      <point x="26" y="273" type="line"/>
    </contour>
    <contour>
      <point x="489" y="273" type="line"/>
      <point x="489" y="73" type="line"/>
      <point x="285" y="73" type="line"/>
      <point x="285" y="273" type="line"/>
    </contour>
  </outline>
</glyph>
<glyph name="comma.color0" format="2">
  <advance width="292"/>
  <unicode hex="002C"/>
  <outline>
    <contour>
      <point x="267" y="0" type="line"/>
      <point x="25" y="0" type="line"/>
      <point x="25" y="204" type="line"/>
      <point x="160" y="204" type="line"/>
    </contour>
  </outline>
</glyph>
<glyph name="hyphen" format="2">
  <advance width="410"/>
  <unicode hex="002D"/>
  <outline>
    <contour>
      <point x="385" y="263" type="line"/>
      <point x="25" y="263" type="line"/>
      <point x="25" y="467" type="line"/>
      <point x="385" y="467" type="line"/>
      <point x="385" y="264" type="line"/>
    </contour>
  </outline>
</glyph>
<glyph name="period" format="2">
  <advance width="282"/>
  <unicode hex="002E"/>
  <outline>
    <contour>
      <point x="257" y="0" type="line"/>
      <point x="25" y="0" type="line"/>
      <point x="25" y="204" type="line"/>
      <point x="257" y="204" type="line"/>
    </contour>
  </outline>
</glyph>
<glyph name="zero.color1" format="2">
  <advance width="600"/>
  <unicode hex="0030"/>
  <outline>
    <contour>
      <point x="25" y="493" type="line"/>
      <point x="278" y="700" type="line"/>
      <point x="279" y="700" type="line"/>
      <point x="279" y="244" type="line"/>
      <point x="25" y="244" type="line"/>
    </contour>
  </outline>
</glyph>
<glyph name="zero.color2" format="2">
  <advance width="800"/>
  <unicode hex="0030"/>
  <outline>
    <contour>
      <point x="573" y="700" type="line"/>
      <point x="775" y="457" type="line"/>
      <point x="775" y="456" type="line"/>
      <point x="279" y="456" type="line"/>
      <point x="279" y="700" type="line"/>
    </contour>
  </outline>
</glyph>
<glyph name="one.color1" format="2">
  <advance width="800"/>
  <unicode hex="0031"/>
  <outline>
    <contour>
      <point x="299" y="486" type="line"/>
      <point x="105" y="486" type="line"/>
      <point x="105" y="730" type="line"/>
      <point x="501" y="730" type="line"/>
    </contour>
  </outline>
</glyph>
<glyph name="one.color2" format="2">
  <advance width="600"/>
  <unicode hex="0031"/>
  <outline>
    <contour>
      <point x="553" y="244" type="line"/>
      <point x="775" y="244" type="line"/>
      <point x="775" y="0" type="line"/>
      <point x="351" y="0" type="line"/>
    </contour>
  </outline>
</glyph>
<glyph name="two.color1" format="2">
  <advance width="600"/>
  <unicode hex="0032"/>
  <outline>
    <contour>
      <point x="324" y="119" type="line"/>
      <point x="31" y="244" type="line"/>
      <point x="31" y="245" type="line"/>
      <point x="629" y="730" type="line"/>
      <point x="769" y="535" type="line"/>
    </contour>
  </outline>
</glyph>
<glyph name="three.color0" format="2">
  <advance width="600"/>
  <unicode hex="0033"/>
  <outline>
    <contour>
      <point x="775" y="366" type="line"/>
      <point x="521" y="366" type="line"/>
      <point x="521" y="730" type="line"/>
      <point x="522" y="730" type="line"/>
      <point x="775" y="523" type="line"/>
    </contour>
  </outline>
</glyph>
<glyph name="three.color1" format="2">
  <advance width="600"/>
  <unicode hex="0033"/>
  <outline>
    <contour>
      <point x="227" y="730" type="line"/>
      <point x="521" y="730" type="line"/>
      <point x="521" y="486" type="line"/>
      <point x="25" y="486" type="line"/>
      <point x="25" y="487" type="line"/>
    </contour>
  </outline>
</glyph>
<glyph name="three.color3" format="2">
  <advance width="600"/>
  <unicode hex="0033"/>
  <outline>
    <contour>
      <point x="126" y="262" type="line"/>
      <point x="126" y="466" type="line"/>
      <point x="521" y="466" type="line"/>
      <point x="521" y="262" type="line"/>
    </contour>
  </outline>
</glyph>
<glyph name="three" format="2">
  <advance width="800"/>
  <unicode hex="0033"/>
  <outline>
    <contour>
      <point x="775" y="366" type="line"/>
      <point x="521" y="366" type="line"/>
      <point x="521" y="730" type="line"/>
      <point x="522" y="730" type="line"/>
      <point x="775" y="523" type="line"/>
    </contour>
    <contour>
      <point x="227" y="730" type="line"/>
      <point x="521" y="730" type="line"/>
      <point x="521" y="486" type="line"/>
      <point x="25" y="486" type="line"/>
      <point x="25" y="487" type="line"/>
    </contour>
    <contour>
      <point x="775" y="193" type="line"/>
      <point x="522" y="0" type="line"/>
      <point x="521" y="0" type="line"/>
      <point x="521" y="466" type="line"/>
      <point x="522" y="466" type="line"/>
      <point x="775" y="269" type="line"/>
    </contour>
    <contour>
      <point x="126" y="262" type="line"/>
      <point x="126" y="466" type="line"/>
      <point x="521" y="466" type="line"/>
      <point x="521" y="262" type="line"/>
    </contour>
    <contour>
      <point x="227" y="0" type="line"/>
      <point x="25" y="243" type="line"/>
      <point x="25" y="244" type="line"/>
      <point x="521" y="244" type="line"/>
      <point x="521" y="243" type="line"/>
      <point x="521" y="0" type="line"/>
    </contour>
  </outline>
</glyph>
<glyph name="five.color2" format="2">
  <advance width="800"/>
  <unicode hex="0035"/>
  <outline>
    <contour>
      <point x="775" y="187" type="line"/>
      <point x="522" y="0" type="line"/>
      <point x="521" y="0" type="line"/>
      <point x="521" y="502" type="line"/>
      <point x="522" y="502" type="line"/>
      <point x="775" y="325" type="line"/>
    </contour>
  </outline>
</glyph>
<glyph name="five" format="2">
  <advance width="800"/>
  <unicode hex="0035"/>
  <outline>
    <contour>
      <point x="85" y="700" type="line"/>
      <point x="338" y="700" type="line"/>
      <point x="339" y="700" type="line"/>
      <point x="339" y="502" type="line"/>
      <point x="338" y="502" type="line"/>
      <point x="85" y="502" type="line"/>
    </contour>
    <contour>
      <point x="725" y="700" type="line"/>
      <point x="725" y="523" type="line"/>
      <point x="725" y="522" type="line"/>
      <point x="339" y="522" type="line"/>
      <point x="339" y="700" type="line"/>
    </contour>
    <contour>
      <point x="775" y="187" type="line"/>
      <point x="522" y="0" type="line"/>
      <point x="521" y="0" type="line"/>
      <point x="521" y="502" type="line"/>
      <point x="522" y="502" type="line"/>
      <point x="775" y="325" type="line"/>
    </contour>
    <contour>
      <point x="85" y="262" type="line"/>
      <point x="85" y="502" type="line"/>
      <point x="521" y="502" type="line"/>
      <point x="521" y="263" type="line"/>
      <point x="521" y="262" type="line"/>
    </contour>
    <contour>
      <point x="227" y="0" type="line"/>
      <point x="25" y="243" type="line"/>
      <point x="25" y="244" type="line"/>
      <point x="521" y="244" type="line"/>
      <point x="521" y="243" type="line"/>
      <point x="521" y="0" type="line"/>
    </contour>
  </outline>
</glyph>
<glyph name="six.color4" format="2">
  <advance width="800"/>
  <unicode hex="0036"/>
  <outline>
    <contour>
      <point x="227" y="0" type="line"/>
      <point x="25" y="243" type="line"/>
      <point x="25" y="244" type="line"/>
      <point x="521" y="244" type="line"/>
      <point x="521" y="243" type="line"/>
      <point x="521" y="0" type="line"/>
    </contour>
  </outline>
</glyph>
<glyph name="six.color5" format="2">
  <advance width="600"/>
  <unicode hex="0036"/>
  <outline>
    <contour>
      <point x="279" y="244" type="line"/>
      <point x="25" y="244" type="line"/>
      <point x="25" y="465" type="line"/>
      <point x="279" y="262" type="line"/>
    </contour>
  </outline>
</glyph>
<glyph name="eight.color3" format="2">
  <advance width="800"/>
  <unicode hex="0038"/>
  <outline>
    <contour>
      <point x="279" y="262" type="line"/>
      <point x="279" y="466" type="line"/>
      <point x="521" y="466" type="line"/>
      <point x="521" y="262" type="line"/>
    </contour>
  </outline>
</glyph>
<glyph name="nine.color1" format="2">
  <advance width="800"/>
  <unicode hex="0039"/>
  <outline>
    <contour>
      <point x="257" y="0" type="line"/>
      <point x="55" y="243" type="line"/>
      <point x="55" y="244" type="line"/>
      <point x="521" y="244" type="line"/>
      <point x="521" y="0" type="line"/>
    </contour>
  </outline>
</glyph>
<glyph name="nine.color3" format="2">
  <advance width="600"/>
  <unicode hex="0039"/>
  <outline>
    <contour>
      <point x="521" y="468" type="line"/>
      <point x="521" y="264" type="line"/>
      <point x="279" y="264" type="line"/>
      <point x="279" y="467" type="line"/>
      <point x="279" y="468" type="line"/>
    </contour>
  </outline>
</glyph>
<glyph name="nine.color4" format="2">
  <advance width="600"/>
  <unicode hex="0039"/>
  <outline>
    <contour>
      <point x="573" y="730" type="line"/>
      <point x="775" y="487" type="line"/>
      <point x="775" y="486" type="line"/>
      <point x="279" y="486" type="line"/>
      <point x="279" y="487" type="line"/>
      <point x="279" y="730" type="line"/>
    </contour>
  </outline>
</glyph>
<glyph name="colon.color0" format="2">
  <advance width="283"/>
  <unicode hex="003A"/>
  <outline>
    <contour>
      <point x="258" y="0" type="line"/>
      <point x="26" y="0" type="line"/>
      <point x="26" y="204" type="line"/>
      <point x="258" y="204" type="line"/>
    </contour>
  </outline>
</glyph>
<glyph name="colon.color1" format="2">
  <advance width="283"/>
  <unicode hex="003A"/>
  <outline>
    <contour>
      <point x="257" y="326" type="line"/>
      <point x="25" y="326" type="line"/>
      <point x="25" y="530" type="line"/>
      <point x="257" y="530" type="line"/>
    </contour>
  </outline>
</glyph>
<glyph name="colon" format="2">
  <advance width="283"/>
  <unicode hex="003A"/>
  <outline>
    <contour>
      <point x="258" y="0" type="line"/>
      <point x="26" y="0" type="line"/>
      <point x="26" y="204" type="line"/>
      <point x="258" y="204" type="line"/>
    </contour>
    <contour>
      <point x="257" y="326" type="line"/>
      <point x="25" y="326" type="line"/>
      <point x="25" y="530" type="line"/>
      <point x="257" y="530" type="line"/>
    </contour>
  </outline>
</glyph>
<glyph name="semicolon.color0" format="2">
  <advance width="293"/>
  <unicode hex="003B"/>
  <outline>
    <contour>
      <point x="257" y="326" type="line"/>
      <point x="25" y="326" type="line"/>
      <point x="25" y="530" type="line"/>
      <point x="257" y="530" type="line"/>
    </contour>
  </outline>
</glyph>
<glyph name="semicolon.color1" format="2">
  <advance width="293"/>
  <unicode hex="003B"/>
  <outline>
    <contour>
      <point x="268" y="0" type="line"/>
      <point x="26" y="0" type="line"/>
      <point x="26" y="204" type="line"/>
      <point x="161" y="204" type="line"/>
    </contour>
  </outline>
</glyph>
<glyph name="semicolon.color2" format="2">
  <advance width="293"/>
  <unicode hex="003B"/>
  <outline>
    <contour>
      <point x="268" y="-93" type="line"/>
      <point x="95" y="-200" type="line"/>
      <point x="94" y="-200" type="line"/>
      <point x="94" y="0" type="line"/>
      <point x="268" y="0" type="line"/>
    </contour>
  </outline>
</glyph>
<glyph name="semicolon" format="2">
  <advance width="293"/>
  <unicode hex="003B"/>
  <outline>
    <contour>
      <point x="257" y="326" type="line"/>
      <point x="25" y="326" type="line"/>
      <point x="25" y="530" type="line"/>
      <point x="257" y="530" type="line"/>
    </contour>
    <contour>
      <point x="268" y="0" type="line"/>
      <point x="26" y="0" type="line"/>
      <point x="26" y="204" type="line"/>
      <point x="161" y="204" type="line"/>
    </contour>
    <contour>
      <point x="268" y="-93" type="line"/>
      <point x="95" y="-200" type="line"/>
      <point x="94" y="-200" type="line"/>
      <point x="94" y="0" type="line"/>
      <point x="268" y="0" type="line"/>
    </contour>
  </outline>
</glyph>
<glyph name="less.color0" format="2">
  <advance width="718"/>
  <unicode hex="003C"/>
  <outline>
    <contour>
      <point x="385" y="606" type="line"/>
      <point x="672" y="606" type="line"/>
      <point x="672" y="605" type="line"/>
      <point x="331" y="337" type="line"/>
      <point x="43" y="337" type="line"/>
      <point x="43" y="338" type="line"/>
    </contour>
  </outline>
</glyph>
<glyph name="less" format="2">
  <advance width="718"/>
  <unicode hex="003C"/>
  <outline>
    <contour>
      <point x="385" y="606" type="line"/>
      <point x="672" y="606" type="line"/>
      <point x="672" y="605" type="line"/>
      <point x="331" y="337" type="line"/>
      <point x="43" y="337" type="line"/>
      <point x="43" y="338" type="line"/>
    </contour>
    <contour>
      <point x="385" y="76" type="line"/>
      <point x="43" y="336" type="line"/>
      <point x="43" y="337" type="line"/>
      <point x="331" y="337" type="line"/>
      <point x="672" y="80" type="line"/>
      <point x="672" y="76" type="line"/>
    </contour>
  </outline>
</glyph>
<glyph name="equal.color1" format="2">
  <advance width="600"/>
  <unicode hex="003D"/>
  <outline>
    <contour>
      <point x="665" y="130" type="line"/>
      <point x="25" y="130" type="line"/>
      <point x="25" y="314" type="line"/>
      <point x="665" y="314" type="line"/>
      <point x="665" y="131" type="line"/>
    </contour>
  </outline>
</glyph>
<glyph name="equal" format="2">
  <advance width="690"/>
  <unicode hex="003D"/>
  <outline>
    <contour>
      <point x="665" y="346" type="line"/>
      <point x="25" y="346" type="line"/>
      <point x="25" y="530" type="line"/>
      <point x="665" y="530" type="line"/>
      <point x="665" y="347" type="line"/>
    </contour>
    <contour>
      <point x="665" y="130" type="line"/>
      <point x="25" y="130" type="line"/>
      <point x="25" y="314" type="line"/>
      <point x="665" y="314" type="line"/>
      <point x="665" y="131" type="line"/>
    </contour>
  </outline>
</glyph>
<glyph name="greater.color0" format="2">
  <advance width="718"/>
  <unicode hex="003E"/>
  <outline>
    <contour>
      <point x="330" y="67" type="line"/>
      <point x="43" y="67" type="line"/>
      <point x="43" y="68" type="line"/>
      <point x="384" y="336" type="line"/>
      <point x="672" y="336" type="line"/>
      <point x="672" y="335" type="line"/>
    </contour>
  </outline>
</glyph>
<glyph name="question.color0" format="2">
  <advance width="897"/>
  <unicode hex="003F"/>
  <outline>
    <contour>
      <point x="458" y="0" type="line"/>
      <point x="226" y="0" type="line"/>
      <point x="226" y="204" type="line"/>
      <point x="458" y="204" type="line"/>
    </contour>
  </outline>
</glyph>
<glyph name="question.color1" format="2">
  <advance width="897"/>
  <unicode hex="003F"/>
  <outline>
    <contour>
      <point x="872" y="523" type="line"/>
      <point x="872" y="466" type="line"/>
      <point x="619" y="466" type="line"/>
      <point x="618" y="466" type="line"/>
      <point x="618" y="730" type="line"/>
      <point x="619" y="730" type="line"/>
    </contour>
  </outline>
</glyph>
<glyph name="question.color2" format="2">
  <advance width="897"/>
  <unicode hex="003F"/>
  <outline>
    <contour>
      <point x="227" y="730" type="line"/>
      <point x="618" y="730" type="line"/>
      <point x="618" y="486" type="line"/>
      <point x="25" y="486" type="line"/>
      <point x="25" y="487" type="line"/>
    </contour>
  </outline>
</glyph>
<glyph name="question.color3" format="2">
  <advance width="897"/>
  <unicode hex="003F"/>
  <outline>
    <contour>
      <point x="215" y="232" type="line"/>
      <point x="215" y="269" type="line"/>
      <point x="468" y="466" type="line"/>
      <point x="469" y="466" type="line"/>
      <point x="469" y="232" type="line"/>
    </contour>
  </outline>
</glyph>
<glyph name="question.color4" format="2">
  <advance width="897"/>
  <unicode hex="003F"/>
  <outline>
    <contour>
      <point x="670" y="262" type="line"/>
      <point x="469" y="262" type="line"/>
      <point x="469" y="466" type="line"/>
      <point x="872" y="466" type="line"/>
      <point x="872" y="465" type="line"/>
    </contour>
  </outline>
</glyph>
<glyph name="question" format="2">
  <advance width="897"/>
  <unicode hex="003F"/>
  <outline>
    <contour>
      <point x="458" y="0" type="line"/>
      <point x="226" y="0" type="line"/>
      <point x="226" y="204" type="line"/>
      <point x="458" y="204" type="line"/>
    </contour>
    <contour>
      <point x="872" y="523" type="line"/>
      <point x="872" y="466" type="line"/>
      <point x="619" y="466" type="line"/>
      <point x="618" y="466" type="line"/>
      <point x="618" y="730" type="line"/>
      <point x="619" y="730" type="line"/>
    </contour>
    <contour>
      <point x="227" y="730" type="line"/>
      <point x="618" y="730" type="line"/>
      <point x="618" y="486" type="line"/>
      <point x="25" y="486" type="line"/>
      <point x="25" y="487" type="line"/>
    </contour>
    <contour>
      <point x="215" y="232" type="line"/>
      <point x="215" y="269" type="line"/>
      <point x="468" y="466" type="line"/>
      <point x="469" y="466" type="line"/>
      <point x="469" y="232" type="line"/>
    </contour>
    <contour>
      <point x="670" y="262" type="line"/>
      <point x="469" y="262" type="line"/>
      <point x="469" y="466" type="line"/>
      <point x="872" y="466" type="line"/>
      <point x="872" y="465" type="line"/>
    </contour>
  </outline>
</glyph>
<glyph name="at.color0" format="2">
  <advance width="600"/>
  <unicode hex="0040"/>
  <outline>
    <contour>
      <point x="135" y="423" type="line"/>
      <point x="348" y="530" type="line"/>
      <point x="349" y="530" type="line"/>
      <point x="349" y="204" type="line"/>
      <point x="135" y="204" type="line"/>
    </contour>
  </outline>
</glyph>
<glyph name="at.color1" format="2">
  <advance width="1043"/>
  <unicode hex="0040"/>
  <outline>
    <contour>
      <point x="785" y="530" type="line"/>
      <point x="892" y="327" type="line"/>
      <point x="892" y="326" type="line"/>
      <point x="349" y="326" type="line"/>
      <point x="349" y="530" type="line"/>
    </contour>
  </outline>
</glyph>
<glyph name="at.color2" format="2">
  <advance width="1043"/>
  <unicode hex="0040"/>
  <outline>
    <contour>
      <point x="892" y="0" type="line"/>
      <point x="678" y="204" type="line"/>
      <point x="678" y="326" type="line"/>
      <point x="892" y="326" type="line"/>
    </contour>
  </outline>
</glyph>
<glyph name="at.color5" format="2">
  <advance width="1043"/>
  <unicode hex="0040"/>
  <outline>
    <contour>
      <point x="76" y="630" type="line"/>
      <point x="966" y="630" type="line"/>
      <point x="966" y="606" type="line"/>
      <point x="53" y="606" type="line"/>
      <point x="53" y="607" type="line"/>
    </contour>
  </outline>
</glyph>
<glyph name="at.color6" format="2">
  <advance width="1043"/>
  <unicode hex="0040"/>
  <outline>
    <contour>
      <point x="77" y="-100" type="line"/>
      <point x="77" y="-76" type="line"/>
      <point x="967" y="-76" type="line"/>
      <point x="967" y="-100" type="line"/>
    </contour>
  </outline>
</glyph>
<glyph name="at.color7" format="2">
  <advance width="1043"/>
  <unicode hex="0040"/>
  <outline>
    <contour>
      <point x="967" y="0" type="line"/>
      <point x="892" y="0" type="line"/>
      <point x="892" y="24" type="line"/>
      <point x="990" y="24" type="line"/>
      <point x="990" y="23" type="line"/>
    </contour>
  </outline>
</glyph>
<glyph name="A" format="2">
  <advance width="907"/>
  <unicode hex="0041"/>
  <anchor x="452" y="0" name="bottom"/>
  <anchor x="476" y="730" name="top"/>
  <outline>
    <contour>
      <point x="25" y="523" type="line"/>
      <point x="278" y="730" type="line"/>
      <point x="279" y="730" type="line"/>
      <point x="279" y="0" type="line"/>
      <point x="25" y="0" type="line"/>
    </contour>
    <contour>
      <point x="680" y="730" type="line"/>
      <point x="882" y="487" type="line"/>
      <point x="882" y="486" type="line"/>
      <point x="279" y="486" type="line"/>
      <point x="279" y="730" type="line"/>
    </contour>
    <contour>
      <point x="882" y="0" type="line"/>
      <point x="628" y="0" type="line"/>
      <point x="628" y="486" type="line"/>
      <point x="629" y="486" type="line"/>
      <point x="882" y="486" type="line"/>
    </contour>
    <contour>
      <point x="628" y="173" type="line"/>
      <point x="279" y="173" type="line"/>
      <point x="279" y="417" type="line"/>
      <point x="628" y="417" type="line"/>
      <point x="628" y="416" type="line"/>
    </contour>
  </outline>
</glyph>
<glyph name="B.color2" format="2">
  <advance width="600"/>
  <unicode hex="0042"/>
  <outline>
    <contour>
      <point x="574" y="730" type="line"/>
      <point x="574" y="486" type="line"/>
      <point x="279" y="486" type="line"/>
      <point x="279" y="730" type="line"/>
    </contour>
  </outline>
</glyph>
<glyph name="B.color3" format="2">
  <advance width="1007"/>
  <unicode hex="0042"/>
  <outline>
    <contour>
      <point x="728" y="0" type="line"/>
      <point x="25" y="0" type="line"/>
      <point x="25" y="244" type="line"/>
      <point x="728" y="244" type="line"/>
    </contour>
  </outline>
</glyph>
<glyph name="B.color4" format="2">
  <advance width="600"/>
  <unicode hex="0042"/>
  <outline>
    <contour>
      <point x="848" y="376" type="line"/>
      <point x="729" y="467" type="line"/>
      <point x="574" y="467" type="line"/>
      <point x="574" y="730" type="line"/>
      <point x="575" y="730" type="line"/>
      <point x="848" y="533" type="line"/>
    </contour>
  </outline>
</glyph>
<glyph name="D.color1" format="2">
  <advance width="600"/>
  <unicode hex="0044"/>
  <outline>
    <contour>
      <point x="710" y="730" type="line"/>
      <point x="912" y="487" type="line"/>
      <point x="912" y="486" type="line"/>
      <point x="279" y="486" type="line"/>
      <point x="279" y="730" type="line"/>
    </contour>
  </outline>
</glyph>
<glyph name="D.color2" format="2">
  <advance width="600"/>
  <unicode hex="0044"/>
  <outline>
    <contour>
      <point x="912" y="193" type="line"/>
      <point x="659" y="-4" type="line"/>
      <point x="658" y="-4" type="line"/>
      <point x="658" y="486" type="line"/>
      <point x="912" y="486" type="line"/>
    </contour>
  </outline>
</glyph>
<glyph name="E.color1" format="2">
  <advance width="600"/>
  <unicode hex="0045"/>
  <outline>
    <contour>
      <point x="640" y="486" type="line"/>
      <point x="279" y="486" type="line"/>
      <point x="279" y="730" type="line"/>
      <point x="842" y="730" type="line"/>
      <point x="842" y="729" type="line"/>
    </contour>
  </outline>
</glyph>
<glyph name="E.color2" format="2">
  <advance width="600"/>
  <unicode hex="0045"/>
  <outline>
    <contour>
      <point x="688" y="263" type="line"/>
      <point x="279" y="263" type="line"/>
      <point x="279" y="467" type="line"/>
      <point x="688" y="467" type="line"/>
    </contour>
  </outline>
</glyph>
<glyph name="E.color3" format="2">
  <advance width="600"/>
  <unicode hex="0045"/>
  <outline>
    <contour>
      <point x="791" y="0" type="line"/>
      <point x="227" y="0" type="line"/>
      <point x="25" y="243" type="line"/>
      <point x="25" y="244" type="line"/>
      <point x="791" y="244" type="line"/>
    </contour>
  </outline>
</glyph>
<glyph name="F.color2" format="2">
  <advance width="600"/>
  <unicode hex="0046"/>
  <outline>
    <contour>
      <point x="678" y="212" type="line"/>
      <point x="289" y="212" type="line"/>
      <point x="35" y="415" type="line"/>
      <point x="35" y="416" type="line"/>
      <point x="678" y="416" type="line"/>
    </contour>
  </outline>
</glyph>
<glyph name="I.color0" format="2">
  <advance width="600"/>
  <unicode hex="0049"/>
  <outline>
    <contour>
      <point x="246" y="486" type="line"/>
      <point x="448" y="730" type="line"/>
      <point x="500" y="730" type="line"/>
      <point x="500" y="244" type="line"/>
      <point x="298" y="0" type="line"/>
      <point x="245" y="0" type="line"/>
    </contour>
  </outline>
</glyph>
<glyph name="I.color3" format="2">
  <advance width="697"/>
  <unicode hex="0049"/>
  <outline>
    <contour>
      <point x="500" y="244" type="line"/>
      <point x="672" y="244" type="line"/>
      <point x="672" y="0" type="line"/>
      <point x="298" y="0" type="line"/>
    </contour>
  </outline>
</glyph>
<glyph name="J.color0" format="2">
  <advance width="697"/>
  <unicode hex="004A"/>
  <outline>
    <contour>
      <point x="246" y="240" type="line"/>
      <point x="246" y="486" type="line"/>
      <point x="448" y="730" type="line"/>
      <point x="500" y="730" type="line"/>
      <point x="500" y="240" type="line"/>
    </contour>
  </outline>
</glyph>
<glyph name="J.color2" format="2">
  <advance width="697"/>
  <unicode hex="004A"/>
  <outline>
    <contour>
      <point x="671" y="486" type="line"/>
      <point x="500" y="486" type="line"/>
      <point x="500" y="730" type="line"/>
      <point x="671" y="730" type="line"/>
    </contour>
  </outline>
</glyph>
<glyph name="J.color3" format="2">
  <advance width="600"/>
  <unicode hex="004A"/>
  <outline>
    <contour>
      <point x="47" y="240" type="line"/>
      <point x="500" y="240" type="line"/>
      <point x="500" y="239" type="line"/>
      <point x="298" y="-4" type="line"/>
      <point x="47" y="-4" type="line"/>
    </contour>
  </outline>
</glyph>
<glyph name="K" format="2">
  <advance width="916"/>
  <unicode hex="004B"/>
  <anchor x="425" y="0" name="bottom"/>
  <outline>
    <contour>
      <point x="25" y="730" type="line"/>
      <point x="279" y="730" type="line"/>
      <point x="279" y="0" type="line"/>
      <point x="25" y="0" type="line"/>
    </contour>
    <contour>
      <point x="941" y="0" type="line"/>
      <point x="630" y="0" type="line"/>
      <point x="454" y="240" type="line"/>
      <point x="668" y="363" type="line"/>
    </contour>
    <contour>
      <point x="832" y="420" type="line"/>
      <point x="579" y="223" type="line"/>
      <point x="578" y="223" type="line"/>
      <point x="578" y="730" type="line"/>
      <point x="832" y="730" type="line"/>
    </contour>
    <contour>
      <point x="279" y="223" type="line"/>
      <point x="279" y="467" type="line"/>
      <point x="578" y="467" type="line"/>
      <point x="578" y="223" type="line"/>
    </contour>
  </outline>
</glyph>
<glyph name="L" format="2">
  <advance width="783"/>
  <unicode hex="004C"/>
  <anchor x="435" y="0" name="bottom"/>
  <anchor x="163" y="730" name="top"/>
  <outline>
    <contour>
      <point x="25" y="730" type="line"/>
      <point x="278" y="730" type="line"/>
      <point x="279" y="730" type="line"/>
      <point x="279" y="240" type="line"/>
      <point x="25" y="240" type="line"/>
    </contour>
    <contour>
      <point x="227" y="-4" type="line"/>
      <point x="25" y="239" type="line"/>
      <point x="25" y="240" type="line"/>
      <point x="758" y="240" type="line"/>
      <point x="758" y="-4" type="line"/>
    </contour>
  </outline>
</glyph>
<glyph name="M.color1" format="2">
  <advance width="600"/>
  <unicode hex="004D"/>
  <outline>
    <contour>
      <point x="1007" y="465" type="line"/>
      <point x="722" y="-6" type="line"/>
      <point x="562" y="160" type="line"/>
      <point x="907" y="736" type="line"/>
    </contour>
  </outline>
</glyph>
<glyph name="M.color2" format="2">
  <advance width="1195"/>
  <unicode hex="004D"/>
  <outline>
    <contour>
      <point x="463" y="-6" type="line"/>
      <point x="25" y="736" type="line"/>
      <point x="26" y="736" type="line"/>
      <point x="248" y="736" type="line"/>
      <point x="249" y="736" type="line"/>
      <point x="722" y="-5" type="line"/>
      <point x="722" y="-6" type="line"/>
    </contour>
  </outline>
</glyph>
<glyph name="M" format="2">
  <advance width="1195"/>
  <unicode hex="004D"/>
  <outline>
    <contour>
      <point x="25" y="0" type="line"/>
      <point x="25" y="736" type="line"/>
      <point x="279" y="326" type="line"/>
      <point x="279" y="0" type="line"/>
    </contour>
    <contour>
      <point x="1007" y="465" type="line"/>
      <point x="722" y="-6" type="line"/>
      <point x="562" y="160" type="line"/>
      <point x="907" y="736" type="line"/>
    </contour>
    <contour>
      <point x="463" y="-6" type="line"/>
      <point x="25" y="736" type="line"/>
      <point x="26" y="736" type="line"/>
      <point x="248" y="736" type="line"/>
      <point x="249" y="736" type="line"/>
      <point x="722" y="-5" type="line"/>
      <point x="722" y="-6" type="line"/>
    </contour>
    <contour>
      <point x="906" y="0" type="line"/>
      <point x="906" y="736" type="line"/>
      <point x="907" y="736" type="line"/>
      <point x="1170" y="736" type="line"/>
      <point x="1160" y="0" type="line"/>
    </contour>
  </outline>
</glyph>
<glyph name="N" format="2">
  <advance width="877"/>
  <unicode hex="004E"/>
  <anchor x="435" y="0" name="bottom"/>
  <anchor x="446" y="730" name="top"/>
  <outline>
    <contour>
      <point x="25" y="0" type="line"/>
      <point x="25" y="571" type="line"/>
      <point x="279" y="345" type="line"/>
      <point x="279" y="0" type="line"/>
    </contour>
    <contour>
      <point x="852" y="730" type="line"/>
      <point x="852" y="172" type="line"/>
      <point x="598" y="397" type="line"/>
      <point x="598" y="730" type="line"/>
    </contour>
    <contour>
      <point x="25" y="571" type="line"/>
      <point x="25" y="572" type="line"/>
      <point x="217" y="736" type="line"/>
      <point x="218" y="736" type="line"/>
      <point x="852" y="172" type="line"/>
      <point x="852" y="171" type="line"/>
      <point x="673" y="-6" type="line"/>
      <point x="672" y="-6" type="line"/>
    </contour>
  </outline>
</glyph>
<glyph name="R.color3" format="2">
  <advance width="600"/>
  <unicode hex="0052"/>
  <outline>
    <contour>
      <point x="872" y="370" type="line"/>
      <point x="619" y="173" type="line"/>
      <point x="618" y="173" type="line"/>
      <point x="618" y="486" type="line"/>
      <point x="872" y="486" type="line"/>
    </contour>
  </outline>
</glyph>
<glyph name="S.color2" format="2">
  <advance width="600"/>
  <unicode hex="0053"/>
  <outline>
    <contour>
      <point x="872" y="193" type="line"/>
      <point x="619" y="0" type="line"/>
      <point x="618" y="0" type="line"/>
      <point x="618" y="466" type="line"/>
      <point x="619" y="466" type="line"/>
      <point x="872" y="269" type="line"/>
    </contour>
  </outline>
</glyph>
<glyph name="S.color3" format="2">
  <advance width="600"/>
  <unicode hex="0053"/>
  <outline>
    <contour>
      <point x="227" y="262" type="line"/>
      <point x="25" y="465" type="line"/>
      <point x="25" y="466" type="line"/>
      <point x="618" y="466" type="line"/>
      <point x="618" y="263" type="line"/>
      <point x="618" y="262" type="line"/>
    </contour>
  </outline>
</glyph>
<glyph name="S" format="2">
  <advance width="897"/>
  <unicode hex="0053"/>
  <anchor x="452" y="0" name="bottom"/>
  <anchor x="476" y="730" name="top"/>
  <outline>
    <contour>
      <point x="25" y="523" type="line"/>
      <point x="278" y="730" type="line"/>
      <point x="279" y="730" type="line"/>
      <point x="279" y="466" type="line"/>
      <point x="278" y="466" type="line"/>
      <point x="25" y="466" type="line"/>
    </contour>
    <contour>
      <point x="670" y="730" type="line"/>
      <point x="872" y="487" type="line"/>
      <point x="872" y="486" type="line"/>
      <point x="279" y="486" type="line"/>
      <point x="279" y="730" type="line"/>
    </contour>
    <contour>
      <point x="872" y="193" type="line"/>
      <point x="619" y="0" type="line"/>
      <point x="618" y="0" type="line"/>
      <point x="618" y="466" type="line"/>
      <point x="619" y="466" type="line"/>
      <point x="872" y="269" type="line"/>
    </contour>
    <contour>
      <point x="227" y="262" type="line"/>
      <point x="25" y="465" type="line"/>
      <point x="25" y="466" type="line"/>
      <point x="618" y="466" type="line"/>
      <point x="618" y="263" type="line"/>
      <point x="618" y="262" type="line"/>
    </contour>
    <contour>
      <point x="227" y="0" type="line"/>
      <point x="25" y="243" type="line"/>
      <point x="25" y="244" type="line"/>
      <point x="618" y="244" type="line"/>
      <point x="618" y="243" type="line"/>
      <point x="618" y="0" type="line"/>
    </contour>
  </outline>
</glyph>
<glyph name="V" format="2">
  <advance width="1021"/>
  <unicode hex="0056"/>
  <outline>
    <contour>
      <point x="25" y="730" type="line"/>
      <point x="309" y="730" type="line"/>
      <point x="552" y="192" type="line"/>
      <point x="354" y="0" type="line"/>
      <point x="353" y="0" type="line"/>
    </contour>
    <contour>
      <point x="996" y="730" type="line"/>
      <point x="638" y="0" type="line"/>
      <point x="354" y="0" type="line"/>
      <point x="712" y="730" type="line"/>
    </contour>
  </outline>
</glyph>
<glyph name="W.color0" format="2">
  <advance width="600"/>
  <unicode hex="0057"/>
  <outline>
    <contour>
      <point x="15" y="730" type="line"/>
      <point x="299" y="730" type="line"/>
      <point x="462" y="192" type="line"/>
      <point x="264" y="0" type="line"/>
      <point x="253" y="0" type="line"/>
    </contour>
  </outline>
</glyph>
<glyph name="W.color2" format="2">
  <advance width="600"/>
  <unicode hex="0057"/>
  <outline>
    <contour>
      <point x="542" y="730" type="line"/>
      <point x="816" y="730" type="line"/>
      <point x="989" y="192" type="line"/>
      <point x="791" y="0" type="line"/>
      <point x="790" y="0" type="line"/>
    </contour>
  </outline>
</glyph>
<glyph name="W.color3" format="2">
  <advance width="1358"/>
  <unicode hex="0057"/>
  <outline>
    <contour>
      <point x="1343" y="730" type="line"/>
      <point x="1075" y="0" type="line"/>
      <point x="791" y="0" type="line"/>
      <point x="1059" y="730" type="line"/>
    </contour>
  </outline>
</glyph>
<glyph name="W" format="2">
  <advance width="1358"/>
  <unicode hex="0057"/>
  <anchor x="688" y="730" name="top"/>
  <outline>
    <contour>
      <point x="15" y="730" type="line"/>
      <point x="299" y="730" type="line"/>
      <point x="462" y="192" type="line"/>
      <point x="264" y="0" type="line"/>
      <point x="253" y="0" type="line"/>
    </contour>
    <contour>
      <point x="816" y="729" type="line"/>
      <point x="538" y="0" type="line"/>
      <point x="264" y="0" type="line"/>
      <point x="542" y="730" type="line"/>
    </contour>
    <contour>
      <point x="542" y="730" type="line"/>
      <point x="816" y="730" type="line"/>
      <point x="989" y="192" type="line"/>
      <point x="791" y="0" type="line"/>
      <point x="790" y="0" type="line"/>
    </contour>
    <contour>
      <point x="1343" y="730" type="line"/>
      <point x="1075" y="0" type="line"/>
      <point x="791" y="0" type="line"/>
      <point x="1059" y="730" type="line"/>
    </contour>
  </outline>
</glyph>
<glyph name="X.color0" format="2">
  <advance width="879"/>
  <unicode hex="0058"/>
  <outline>
    <contour>
      <point x="45" y="730" type="line"/>
      <point x="329" y="730" type="line"/>
      <point x="452" y="557" type="line"/>
      <point x="294" y="365" type="line"/>
      <point x="293" y="365" type="line"/>
    </contour>
  </outline>
</glyph>
<glyph name="X.color1" format="2">
  <advance width="600"/>
  <unicode hex="0058"/>
  <outline>
    <contour>
      <point x="864" y="730" type="line"/>
      <point x="586" y="365" type="line"/>
      <point x="294" y="365" type="line"/>
      <point x="572" y="730" type="line"/>
    </contour>
  </outline>
</glyph>
<glyph name="X.color2" format="2">
  <advance width="600"/>
  <unicode hex="0058"/>
  <outline>
    <contour>
      <point x="834" y="0" type="line"/>
      <point x="550" y="0" type="line"/>
      <point x="427" y="173" type="line"/>
      <point x="585" y="365" type="line"/>
      <point x="586" y="365" type="line"/>
    </contour>
  </outline>
</glyph>
<glyph name="X.color3" format="2">
  <advance width="600"/>
  <unicode hex="0058"/>
  <outline>
    <contour>
      <point x="15" y="0" type="line"/>
      <point x="293" y="365" type="line"/>
      <point x="585" y="365" type="line"/>
      <point x="307" y="0" type="line"/>
    </contour>
  </outline>
</glyph>
<glyph name="Z.color1" format="2">
  <advance width="805"/>
  <unicode hex="005A"/>
  <outline>
    <contour>
      <point x="324" y="119" type="line"/>
      <point x="31" y="244" type="line"/>
      <point x="31" y="245" type="line"/>
      <point x="634" y="730" type="line"/>
      <point x="774" y="535" type="line"/>
    </contour>
  </outline>
</glyph>
<glyph name="Z" format="2">
  <advance width="805"/>
  <unicode hex="005A"/>
  <anchor x="376" y="730" name="top"/>
  <outline>
    <contour>
      <point x="25" y="730" type="line"/>
      <point x="634" y="730" type="line"/>
      <point x="608" y="486" type="line"/>
      <point x="25" y="486" type="line"/>
      <point x="25" y="487" type="line"/>
    </contour>
    <contour>
      <point x="324" y="119" type="line"/>
      <point x="31" y="244" type="line"/>
      <point x="31" y="245" type="line"/>
      <point x="634" y="730" type="line"/>
      <point x="774" y="535" type="line"/>
    </contour>
    <contour>
      <point x="780" y="0" type="line"/>
      <point x="31" y="0" type="line"/>
      <point x="31" y="244" type="line"/>
      <point x="780" y="244" type="line"/>
      <point x="780" y="243" type="line"/>
    </contour>
  </outline>
</glyph>
<glyph name="bracketleft.color0" format="2">
  <advance width="565"/>
  <unicode hex="005B"/>
  <outline>
    <contour>
      <point x="25" y="730" type="line"/>
      <point x="278" y="730" type="line"/>
      <point x="279" y="730" type="line"/>
      <point x="279" y="144" type="line"/>
      <point x="25" y="144" type="line"/>
    </contour>
  </outline>
</glyph>
<glyph name="bracketleft.color1" format="2">
  <advance width="565"/>
  <unicode hex="005B"/>
  <outline>
    <contour>
      <point x="540" y="486" type="line"/>
      <point x="279" y="486" type="line"/>
      <point x="279" y="730" type="line"/>
      <point x="540" y="730" type="line"/>
      <point x="540" y="729" type="line"/>
    </contour>
  </outline>
</glyph>
<glyph name="bracketleft.color2" format="2">
  <advance width="565"/>
  <unicode hex="005B"/>
  <outline>
    <contour>
      <point x="540" y="-100" type="line"/>
      <point x="25" y="-100" type="line"/>
      <point x="25" y="143" type="line"/>
      <point x="25" y="144" type="line"/>
      <point x="540" y="144" type="line"/>
    </contour>
  </outline>
</glyph>
<glyph name="backslash" format="2">
  <advance width="648"/>
  <unicode hex="005C"/>
  <outline>
    <contour>
      <point x="25" y="730" type="line"/>
      <point x="229" y="730" type="line"/>
      <point x="623" y="1" type="line"/>
      <point x="623" y="0" type="line"/>
      <point x="419" y="0" type="line"/>
      <point x="25" y="729" type="line"/>
    </contour>
  </outline>
</glyph>
<glyph name="bracketright.color0" format="2">
  <advance width="565"/>
  <unicode hex="005D"/>
  <outline>
    <contour>
      <point x="540" y="-100" type="line"/>
      <point x="287" y="-100" type="line"/>
      <point x="286" y="-100" type="line"/>
      <point x="286" y="486" type="line"/>
      <point x="540" y="486" type="line"/>
    </contour>
  </outline>
</glyph>
<glyph name="bracketright.color1" format="2">
  <advance width="565"/>
  <unicode hex="005D"/>
  <outline>
    <contour>
      <point x="25" y="144" type="line"/>
      <point x="286" y="144" type="line"/>
      <point x="286" y="-100" type="line"/>
      <point x="25" y="-100" type="line"/>
      <point x="25" y="-99" type="line"/>
    </contour>
  </outline>
</glyph>
<glyph name="bracketright.color2" format="2">
  <advance width="565"/>
  <unicode hex="005D"/>
  <outline>
    <contour>
      <point x="25" y="730" type="line"/>
      <point x="540" y="730" type="line"/>
      <point x="540" y="487" type="line"/>
      <point x="540" y="486" type="line"/>
      <point x="25" y="486" type="line"/>
    </contour>
  </outline>
</glyph>
<glyph name="bracketright" format="2">
  <advance width="565"/>
  <unicode hex="005D"/>
  <outline>
    <contour>
      <point x="540" y="-100" type="line"/>
      <point x="287" y="-100" type="line"/>
      <point x="286" y="-100" type="line"/>
      <point x="286" y="486" type="line"/>
      <point x="540" y="486" type="line"/>
    </contour>
    <contour>
      <point x="25" y="144" type="line"/>
      <point x="286" y="144" type="line"/>
      <point x="286" y="-100" type="line"/>
      <point x="25" y="-100" type="line"/>
      <point x="25" y="-99" type="line"/>
    </contour>
    <contour>
      <point x="25" y="730" type="line"/>
      <point x="540" y="730" type="line"/>
      <point x="540" y="487" type="line"/>
      <point x="540" y="486" type="line"/>
      <point x="25" y="486" type="line"/>
    </contour>
  </outline>
</glyph>
<glyph name="asciicircum.color0" format="2">
  <advance width="600"/>
  <unicode hex="005E"/>
  <outline>
    <contour>
      <point x="855" y="308" type="line"/>
      <point x="599" y="308" type="line"/>
      <point x="344" y="730" type="line"/>
      <point x="576" y="730" type="line"/>
      <point x="855" y="309" type="line"/>
    </contour>
  </outline>
</glyph>
<glyph name="asciicircum.color1" format="2">
  <advance width="860"/>
  <unicode hex="005E"/>
  <outline>
    <contour>
      <point x="65" y="308" type="line"/>
      <point x="65" y="309" type="line"/>
      <point x="344" y="730" type="line"/>
      <point x="576" y="730" type="line"/>
      <point x="321" y="308" type="line"/>
    </contour>
  </outline>
</glyph>
<glyph name="underscore" format="2">
  <advance width="1170"/>
  <unicode hex="005F"/>
  <outline>
    <contour>
      <point x="1145" y="-184" type="line"/>
      <point x="25" y="-184" type="line"/>
      <point x="25" y="0" type="line"/>
      <point x="1145" y="0" type="line"/>
      <point x="1145" y="-183" type="line"/>
    </contour>
  </outline>
</glyph>
<glyph name="grave" format="2">
  <advance width="600"/>
  <unicode hex="0060"/>
  <anchor x="360" y="530" name="_top"/>
  <outline>
    <contour>
      <point x="397" y="590" type="line"/>
      <point x="301" y="590" type="line"/>
      <point x="186" y="819" type="line"/>
      <point x="186" y="820" type="line"/>
      <point x="362" y="820" type="line"/>
    </contour>
  </outline>
</glyph>
<glyph name="a.color1" format="2">
  <advance width="600"/>
  <unicode hex="0061"/>
  <outline>
    <contour>
      <point x="685" y="530" type="line"/>
      <point x="792" y="327" type="line"/>
      <point x="792" y="326" type="line"/>
      <point x="249" y="326" type="line"/>
      <point x="249" y="530" type="line"/>
    </contour>
  </outline>
</glyph>
<glyph name="b.color1" format="2">
  <advance width="600"/>
  <unicode hex="0062"/>
  <outline>
    <contour>
      <point x="671" y="530" type="line"/>
      <point x="773" y="327" type="line"/>
      <point x="773" y="326" type="line"/>
      <point x="249" y="326" type="line"/>
      <point x="249" y="530" type="line"/>
    </contour>
  </outline>
</glyph>
<glyph name="b.color2" format="2">
  <advance width="808"/>
  <unicode hex="0062"/>
  <outline>
    <contour>
      <point x="773" y="107" type="line"/>
      <point x="560" y="0" type="line"/>
      <point x="559" y="0" type="line"/>
      <point x="559" y="326" type="line"/>
      <point x="773" y="326" type="line"/>
    </contour>
  </outline>
</glyph>
<glyph name="c" format="2">
  <advance width="777"/>
  <unicode hex="0063"/>
  <anchor x="405" y="0" name="bottom"/>
  <anchor x="422" y="530" name="top"/>
  <outline>
    <contour>
      <point x="35" y="423" type="line"/>
      <point x="248" y="530" type="line"/>
      <point x="249" y="530" type="line"/>
      <point x="249" y="200" type="line"/>
      <point x="35" y="200" type="line"/>
    </contour>
    <contour>
      <point x="635" y="530" type="line"/>
      <point x="742" y="352" type="line"/>
      <point x="742" y="351" type="line"/>
      <point x="249" y="351" type="line"/>
      <point x="249" y="530" type="line"/>
    </contour>
    <contour>
      <point x="142" y="0" type="line"/>
      <point x="35" y="199" type="line"/>
      <point x="35" y="200" type="line"/>
      <point x="742" y="200" type="line"/>
      <point x="742" y="199" type="line"/>
      <point x="635" y="0" type="line"/>
    </contour>
  </outline>
</glyph>
<glyph name="d.color2" format="2">
  <advance width="818"/>
  <unicode hex="0064"/>
  <outline>
    <contour>
      <point x="783" y="107" type="line"/>
      <point x="570" y="0" type="line"/>
      <point x="569" y="0" type="line"/>
      <point x="569" y="326" type="line"/>
      <point x="783" y="326" type="line"/>
    </contour>
  </outline>
</glyph>
<glyph name="d.color3" format="2">
  <advance width="818"/>
  <unicode hex="0064"/>
  <outline>
    <contour>
      <point x="147" y="0" type="line"/>
      <point x="45" y="203" type="line"/>
      <point x="45" y="204" type="line"/>
      <point x="569" y="204" type="line"/>
      <point x="569" y="0" type="line"/>
    </contour>
  </outline>
</glyph>
<glyph name="d.color4" format="2">
  <advance width="600"/>
  <unicode hex="0064"/>
  <outline>
    <contour>
      <point x="569" y="530" type="line"/>
      <point x="569" y="794" type="line"/>
      <point x="783" y="794" type="line"/>
      <point x="783" y="329" type="line"/>
      <point x="782" y="329" type="line"/>
    </contour>
  </outline>
</glyph>
<glyph name="d" format="2">
  <advance width="818"/>
  <unicode hex="0064"/>
  <anchor x="534" y="656" name="stroke"/>
  <anchor x="683" y="794" name="top"/>
  <outline>
    <contour>
      <point x="45" y="423" type="line"/>
      <point x="258" y="530" type="line"/>
      <point x="259" y="530" type="line"/>
      <point x="259" y="204" type="line"/>
      <point x="45" y="204" type="line"/>
    </contour>
    <contour>
      <point x="621" y="530" type="line"/>
      <point x="783" y="327" type="line"/>
      <point x="783" y="326" type="line"/>
      <point x="259" y="326" type="line"/>
      <point x="259" y="530" type="line"/>
    </contour>
    <contour>
      <point x="783" y="107" type="line"/>
      <point x="570" y="0" type="line"/>
      <point x="569" y="0" type="line"/>
      <point x="569" y="326" type="line"/>
      <point x="783" y="326" type="line"/>
    </contour>
    <contour>
      <point x="147" y="0" type="line"/>
      <point x="45" y="203" type="line"/>
      <point x="45" y="204" type="line"/>
      <point x="569" y="204" type="line"/>
      <point x="569" y="0" type="line"/>
    </contour>
    <contour>
      <point x="569" y="530" type="line"/>
      <point x="569" y="794" type="line"/>
      <point x="783" y="794" type="line"/>
      <point x="783" y="329" type="line"/>
      <point x="782" y="329" type="line"/>
    </contour>
  </outline>
</glyph>
<glyph name="e.color2" format="2">
  <advance width="837"/>
  <unicode hex="0065"/>
  <outline>
    <contour>
      <point x="142" y="0" type="line"/>
      <point x="35" y="199" type="line"/>
      <point x="35" y="200" type="line"/>
      <point x="802" y="200" type="line"/>
      <point x="802" y="199" type="line"/>
      <point x="695" y="0" type="line"/>
    </contour>
  </outline>
</glyph>
<glyph name="e.color3" format="2">
  <advance width="600"/>
  <unicode hex="0065"/>
  <outline>
    <contour>
      <point x="588" y="331" type="line"/>
      <point x="588" y="221" type="line"/>
      <point x="249" y="220" type="line"/>
      <point x="249" y="331" type="line"/>
    </contour>
  </outline>
</glyph>
<glyph name="f.color2" format="2">
  <advance width="600"/>
  <unicode hex="0066"/>
  <outline>
    <contour>
      <point x="679" y="703" type="line"/>
      <point x="702" y="500" type="line"/>
      <point x="702" y="499" type="line"/>
      <point x="249" y="499" type="line"/>
      <point x="249" y="703" type="line"/>
    </contour>
  </outline>
</glyph>
<glyph name="g" format="2">
  <advance width="850"/>
  <unicode hex="0067"/>
  <anchor x="452" y="530" name="top"/>
  <outline>
    <contour>
      <point x="744" y="-98" type="line"/>
      <point x="531" y="-200" type="line"/>
      <point x="530" y="-200" type="line"/>
      <point x="530" y="326" type="line"/>
      <point x="744" y="326" type="line"/>
    </contour>
    <contour>
      <point x="137" y="0" type="line"/>
      <point x="35" y="203" type="line"/>
      <point x="35" y="204" type="line"/>
      <point x="530" y="204" type="line"/>
      <point x="530" y="0" type="line"/>
    </contour>
    <contour>
      <point x="35" y="423" type="line"/>
      <point x="248" y="530" type="line"/>
      <point x="249" y="530" type="line"/>
      <point x="249" y="204" type="line"/>
      <point x="35" y="204" type="line"/>
    </contour>
    <contour>
      <point x="744" y="326" type="line"/>
      <point x="249" y="326" type="line"/>
      <point x="249" y="530" type="line"/>
      <point x="846" y="530" type="line"/>
      <point x="846" y="529" type="line"/>
    </contour>
    <contour>
      <point x="137" y="-200" type="line"/>
      <point x="35" y="-21" type="line"/>
      <point x="35" y="-20" type="line"/>
      <point x="530" y="-20" type="line"/>
      <point x="530" y="-200" type="line"/>
    </contour>
  </outline>
</glyph>
<glyph name="i.color1" format="2">
  <advance width="284"/>
  <unicode hex="0069"/>
  <outline>
    <contour>
      <point x="239" y="576" type="line"/>
      <point x="46" y="469" type="line"/>
      <point x="45" y="469" type="line"/>
      <point x="45" y="682" type="line"/>
      <point x="239" y="682" type="line"/>
    </contour>
  </outline>
</glyph>
<glyph name="j.color1" format="2">
  <advance width="600"/>
  <unicode hex="006A"/>
  <outline>
    <contour>
      <point x="256" y="576" type="line"/>
      <point x="63" y="469" type="line"/>
      <point x="62" y="469" type="line"/>
      <point x="62" y="682" type="line"/>
      <point x="256" y="682" type="line"/>
    </contour>
  </outline>
</glyph>
<glyph name="j.color2" format="2">
  <advance width="600"/>
  <unicode hex="006A"/>
  <outline>
    <contour>
      <point x="62" y="-206" type="line"/>
      <point x="-150" y="-206" type="line"/>
      <point x="-150" y="-2" type="line"/>
      <point x="62" y="-2" type="line"/>
      <point x="62" y="-3" type="line"/>
    </contour>
  </outline>
</glyph>
<glyph name="k.color3" format="2">
  <advance width="807"/>
  <unicode hex="006B"/>
  <outline>
    <contour>
      <point x="451" y="556" type="line"/>
      <point x="664" y="663" type="line"/>
      <point x="665" y="663" type="line"/>
      <point x="665" y="397" type="line"/>
      <point x="451" y="397" type="line"/>
    </contour>
  </outline>
</glyph>
<glyph name="k" format="2">
  <advance width="807"/>
  <unicode hex="006B"/>
  <anchor x="395" y="0" name="bottom"/>
  <outline>
    <contour>
      <point x="35" y="794" type="line"/>
      <point x="248" y="794" type="line"/>
      <point x="249" y="400" type="line"/>
      <point x="249" y="0" type="line"/>
      <point x="35" y="0" type="line"/>
    </contour>
    <contour>
      <point x="665" y="397" type="line"/>
      <point x="772" y="194" type="line"/>
      <point x="772" y="193" type="line"/>
      <point x="249" y="193" type="line"/>
      <point x="249" y="397" type="line"/>
    </contour>
    <contour>
      <point x="772" y="0" type="line"/>
      <point x="559" y="0" type="line"/>
      <point x="558" y="0" type="line"/>
      <point x="558" y="193" type="line"/>
      <point x="772" y="193" type="line"/>
    </contour>
    <contour>
      <point x="451" y="556" type="line"/>
      <point x="664" y="663" type="line"/>
      <point x="665" y="663" type="line"/>
      <point x="665" y="397" type="line"/>
      <point x="451" y="397" type="line"/>
    </contour>
  </outline>
</glyph>
<glyph name="l.color1" format="2">
  <advance width="600"/>
  <unicode hex="006C"/>
  <outline>
    <contour>
      <point x="461" y="0" type="line"/>
      <point x="249" y="0" type="line"/>
      <point x="249" y="204" type="line"/>
      <point x="461" y="204" type="line"/>
      <point x="461" y="203" type="line"/>
    </contour>
  </outline>
</glyph>
<glyph name="l" format="2">
  <advance width="486"/>
  <unicode hex="006C"/>
  <anchor x="259" y="0" name="bottom"/>
  <anchor x="149" y="794" name="top"/>
  <outline>
    <contour>
      <point x="35" y="794" type="line"/>
      <point x="249" y="794" type="line"/>
      <point x="249" y="0" type="line"/>
      <point x="248" y="0" type="line"/>
      <point x="35" y="107" type="line"/>
    </contour>
    <contour>
      <point x="461" y="0" type="line"/>
      <point x="249" y="0" type="line"/>
      <point x="249" y="204" type="line"/>
      <point x="461" y="204" type="line"/>
      <point x="461" y="203" type="line"/>
    </contour>
  </outline>
</glyph>
<glyph name="m.color1" format="2">
  <advance width="600"/>
  <unicode hex="006D"/>
  <outline>
    <contour>
      <point x="692" y="0" type="line"/>
      <point x="499" y="0" type="line"/>
      <point x="498" y="0" type="line"/>
      <point x="498" y="326" type="line"/>
      <point x="692" y="326" type="line"/>
    </contour>
    <contour>
      <point x="1155" y="41" type="line"/>
      <point x="942" y="-6" type="line"/>
      <point x="941" y="-6" type="line"/>
      <point x="941" y="326" type="line"/>
      <point x="1155" y="326" type="line"/>
    </contour>
  </outline>
</glyph>
<glyph name="p.color0" format="2">
  <advance width="600"/>
  <unicode hex="0070"/>
  <outline>
    <contour>
      <point x="773" y="107" type="line"/>
      <point x="560" y="0" type="line"/>
      <point x="559" y="0" type="line"/>
      <point x="559" y="326" type="line"/>
      <point x="773" y="326" type="line"/>
    </contour>
  </outline>
</glyph>
<glyph name="p.color4" format="2">
  <advance width="600"/>
  <unicode hex="0070"/>
  <outline>
    <contour>
      <point x="249" y="0" type="line"/>
      <point x="249" y="-200" type="line"/>
      <point x="35" y="-200" type="line"/>
      <point x="35" y="201" type="line"/>
      <point x="36" y="201" type="line"/>
    </contour>
  </outline>
</glyph>
<glyph name="r" format="2">
  <advance width="606"/>
  <unicode hex="0072"/>
  <anchor x="135" y="0" name="bottom"/>
  <anchor x="342" y="530" name="top"/>
  <outline>
    <contour>
      <point x="35" y="423" type="line"/>
      <point x="248" y="530" type="line"/>
      <point x="249" y="530" type="line"/>
      <point x="249" y="0" type="line"/>
      <point x="35" y="0" type="line"/>
    </contour>
    <contour>
      <point x="495" y="530" type="line"/>
      <point x="602" y="327" type="line"/>
      <point x="602" y="326" type="line"/>
      <point x="249" y="326" type="line"/>
      <point x="249" y="530" type="line"/>
    </contour>
  </outline>
</glyph>
<glyph name="s.color0" format="2">
  <advance width="600"/>
  <unicode hex="0073"/>
  <outline>
    <contour>
      <point x="548" y="530" type="line"/>
      <point x="655" y="352" type="line"/>
      <point x="655" y="351" type="line"/>
      <point x="168" y="351" type="line"/>
      <point x="142" y="530" type="line"/>
    </contour>
  </outline>
</glyph>
<glyph name="t.color3" format="2">
  <advance width="600"/>
  <unicode hex="0074"/>
  <outline>
    <contour>
      <point x="249" y="530" type="line"/>
      <point x="36" y="326" type="line"/>
      <point x="35" y="326" type="line"/>
      <point x="35" y="703" type="line"/>
      <point x="249" y="703" type="line"/>
    </contour>
  </outline>
</glyph>
<glyph name="v.color2" format="2">
  <advance width="600"/>
  <unicode hex="0076"/>
  <outline>
    <contour>
      <point x="102" y="1" type="line"/>
      <point x="35" y="204" type="line"/>
      <point x="35" y="205" type="line"/>
      <point x="528" y="205" type="line"/>
      <point x="528" y="1" type="line"/>
    </contour>
  </outline>
</glyph>
<glyph name="w.color0" format="2">
  <advance width="600"/>
  <unicode hex="0077"/>
  <outline>
    <contour>
      <point x="1155" y="205" type="line"/>
      <point x="942" y="1" type="line"/>
      <point x="941" y="1" type="line"/>
      <point x="941" y="531" type="line"/>
      <point x="1155" y="531" type="line"/>
    </contour>
  </outline>
</glyph>
<glyph name="w.color3" format="2">
  <advance width="1190"/>
  <unicode hex="0077"/>
  <outline>
    <contour>
      <point x="565" y="1" type="line"/>
      <point x="498" y="204" type="line"/>
      <point x="498" y="205" type="line"/>
      <point x="941" y="205" type="line"/>
      <point x="941" y="1" type="line"/>
    </contour>
  </outline>
</glyph>
<glyph name="x.color1" format="2">
  <advance width="857"/>
  <unicode hex="0078"/>
  <outline>
    <contour>
      <point x="853" y="530" type="line"/>
      <point x="555" y="265" type="line"/>
      <point x="303" y="265" type="line"/>
      <point x="591" y="530" type="line"/>
    </contour>
  </outline>
</glyph>
<glyph name="x.color2" format="2">
  <advance width="857"/>
  <unicode hex="0078"/>
  <outline>
    <contour>
      <point x="823" y="0" type="line"/>
      <point x="549" y="0" type="line"/>
      <point x="402" y="130" type="line"/>
      <point x="554" y="265" type="line"/>
      <point x="555" y="265" type="line"/>
    </contour>
  </outline>
</glyph>
<glyph name="x.color3" format="2">
  <advance width="600"/>
  <unicode hex="0078"/>
  <outline>
    <contour>
      <point x="4" y="0" type="line"/>
      <point x="302" y="265" type="line"/>
      <point x="554" y="265" type="line"/>
      <point x="266" y="0" type="line"/>
    </contour>
  </outline>
</glyph>
<glyph name="x" format="2">
  <advance width="857"/>
  <unicode hex="0078"/>
  <outline>
    <contour>
      <point x="44" y="530" type="line"/>
      <point x="318" y="530" type="line"/>
      <point x="455" y="400" type="line"/>
      <point x="303" y="265" type="line"/>
      <point x="302" y="265" type="line"/>
    </contour>
    <contour>
      <point x="853" y="530" type="line"/>
      <point x="555" y="265" type="line"/>
      <point x="303" y="265" type="line"/>
      <point x="591" y="530" type="line"/>
    </contour>
    <contour>
      <point x="823" y="0" type="line"/>
      <point x="549" y="0" type="line"/>
      <point x="402" y="130" type="line"/>
      <point x="554" y="265" type="line"/>
      <point x="555" y="265" type="line"/>
    </contour>
    <contour>
      <point x="4" y="0" type="line"/>
      <point x="302" y="265" type="line"/>
      <point x="554" y="265" type="line"/>
      <point x="266" y="0" type="line"/>
    </contour>
  </outline>
</glyph>
<glyph name="y" format="2">
  <advance width="779"/>
  <unicode hex="0079"/>
  <anchor x="422" y="-200" name="bottom"/>
  <anchor x="422" y="530" name="top"/>
  <outline>
    <contour>
      <point x="142" y="0" type="line"/>
      <point x="35" y="203" type="line"/>
      <point x="35" y="204" type="line"/>
      <point x="529" y="204" type="line"/>
      <point x="529" y="0" type="line"/>
    </contour>
    <contour>
      <point x="744" y="-98" type="line"/>
      <point x="531" y="-200" type="line"/>
      <point x="530" y="-200" type="line"/>
      <point x="530" y="530" type="line"/>
      <point x="744" y="530" type="line"/>
    </contour>
    <contour>
      <point x="35" y="489" type="line"/>
      <point x="248" y="536" type="line"/>
      <point x="249" y="536" type="line"/>
      <point x="249" y="204" type="line"/>
      <point x="35" y="204" type="line"/>
    </contour>
    <contour>
      <point x="137" y="-200" type="line"/>
      <point x="35" y="-21" type="line"/>
      <point x="35" y="-20" type="line"/>
      <point x="530" y="-20" type="line"/>
      <point x="530" y="-200" type="line"/>
    </contour>
  </outline>
</glyph>
<glyph name="z.color2" format="2">
  <advance width="600"/>
  <unicode hex="007A"/>
  <outline>
    <contour>
      <point x="762" y="0" type="line"/>
      <point x="142" y="0" type="line"/>
      <point x="35" y="179" type="line"/>
      <point x="762" y="179" type="line"/>
      <point x="762" y="178" type="line"/>
    </contour>
  </outline>
</glyph>
<glyph name="z" format="2">
  <advance width="803"/>
  <unicode hex="007A"/>
  <anchor x="422" y="530" name="top"/>
  <outline>
    <contour>
      <point x="148" y="530" type="line"/>
      <point x="678" y="530" type="line"/>
      <point x="652" y="351" type="line"/>
      <point x="41" y="351" type="line"/>
      <point x="41" y="352" type="line"/>
    </contour>
    <contour>
      <point x="278" y="149" type="line"/>
      <point x="35" y="179" type="line"/>
      <point x="35" y="180" type="line"/>
      <point x="678" y="530" type="line"/>
      <point x="768" y="365" type="line"/>
    </contour>
    <contour>
      <point x="762" y="0" type="line"/>
      <point x="142" y="0" type="line"/>
      <point x="35" y="179" type="line"/>
      <point x="762" y="179" type="line"/>
      <point x="762" y="178" type="line"/>
    </contour>
  </outline>
</glyph>
<glyph name="braceleft.color0" format="2">
  <advance width="702"/>
  <unicode hex="007B"/>
  <outline>
    <contour>
      <point x="642" y="144" type="line"/>
      <point x="642" y="-100" type="line"/>
      <point x="431" y="-100" type="line"/>
      <point x="431" y="144" type="line"/>
    </contour>
  </outline>
</glyph>
<glyph name="braceleft.color1" format="2">
  <advance width="702"/>
  <unicode hex="007B"/>
  <outline>
    <contour>
      <point x="431" y="229" type="line"/>
      <point x="431" y="-100" type="line"/>
      <point x="177" y="-100" type="line"/>
      <point x="177" y="436" type="line"/>
      <point x="178" y="436" type="line"/>
    </contour>
  </outline>
</glyph>
<glyph name="braceleft.color2" format="2">
  <advance width="702"/>
  <unicode hex="007B"/>
  <outline>
    <contour>
      <point x="642" y="730" type="line"/>
      <point x="642" y="486" type="line"/>
      <point x="431" y="486" type="line"/>
      <point x="431" y="730" type="line"/>
    </contour>
  </outline>
</glyph>
<glyph name="braceleft.color3" format="2">
  <advance width="702"/>
  <unicode hex="007B"/>
  <outline>
    <contour>
      <point x="25" y="438" type="line"/>
      <point x="177" y="438" type="line"/>
      <point x="177" y="194" type="line"/>
      <point x="25" y="194" type="line"/>
    </contour>
  </outline>
</glyph>
<glyph name="braceleft.color4" format="2">
  <advance width="702"/>
  <unicode hex="007B"/>
  <outline>
    <contour>
      <point x="431" y="401" type="line"/>
      <point x="178" y="194" type="line"/>
      <point x="177" y="194" type="line"/>
      <point x="177" y="730" type="line"/>
      <point x="431" y="730" type="line"/>
    </contour>
  </outline>
</glyph>
<glyph name="braceleft" format="2">
  <advance width="702"/>
  <unicode hex="007B"/>
  <outline>
    <contour>
      <point x="642" y="144" type="line"/>
      <point x="642" y="-100" type="line"/>
      <point x="431" y="-100" type="line"/>
      <point x="431" y="144" type="line"/>
    </contour>
    <contour>
      <point x="431" y="229" type="line"/>
      <point x="431" y="-100" type="line"/>
      <point x="177" y="-100" type="line"/>
      <point x="177" y="436" type="line"/>
      <point x="178" y="436" type="line"/>
    </contour>
    <contour>
      <point x="642" y="730" type="line"/>
      <point x="642" y="486" type="line"/>
      <point x="431" y="486" type="line"/>
      <point x="431" y="730" type="line"/>
    </contour>
    <contour>
      <point x="25" y="438" type="line"/>
      <point x="177" y="438" type="line"/>
      <point x="177" y="194" type="line"/>
      <point x="25" y="194" type="line"/>
    </contour>
    <contour>
      <point x="431" y="401" type="line"/>
      <point x="178" y="194" type="line"/>
      <point x="177" y="194" type="line"/>
      <point x="177" y="730" type="line"/>
      <point x="431" y="730" type="line"/>
    </contour>
  </outline>
</glyph>
<glyph name="braceright.color0" format="2">
  <advance width="702"/>
  <unicode hex="007D"/>
  <outline>
    <contour>
      <point x="25" y="486" type="line"/>
      <point x="25" y="730" type="line"/>
      <point x="236" y="730" type="line"/>
      <point x="236" y="486" type="line"/>
    </contour>
  </outline>
</glyph>
<glyph name="braceright.color1" format="2">
  <advance width="702"/>
  <unicode hex="007D"/>
  <outline>
    <contour>
      <point x="236" y="401" type="line"/>
      <point x="236" y="730" type="line"/>
      <point x="490" y="730" type="line"/>
      <point x="490" y="194" type="line"/>
      <point x="489" y="194" type="line"/>
    </contour>
  </outline>
</glyph>
<glyph name="braceright.color2" format="2">
  <advance width="702"/>
  <unicode hex="007D"/>
  <outline>
    <contour>
      <point x="25" y="-100" type="line"/>
      <point x="25" y="144" type="line"/>
      <point x="236" y="144" type="line"/>
      <point x="236" y="-100" type="line"/>
    </contour>
  </outline>
</glyph>
<glyph name="braceright.color3" format="2">
  <advance width="702"/>
  <unicode hex="007D"/>
  <outline>
    <contour>
      <point x="642" y="192" type="line"/>
      <point x="490" y="192" type="line"/>
      <point x="490" y="436" type="line"/>
      <point x="642" y="436" type="line"/>
    </contour>
  </outline>
</glyph>
<glyph name="braceright.color4" format="2">
  <advance width="702"/>
  <unicode hex="007D"/>
  <outline>
    <contour>
      <point x="236" y="229" type="line"/>
      <point x="489" y="436" type="line"/>
      <point x="490" y="436" type="line"/>
      <point x="490" y="-100" type="line"/>
      <point x="236" y="-100" type="line"/>
    </contour>
  </outline>
</glyph>
<glyph name="asciitilde.color0" format="2">
  <advance width="808"/>
  <unicode hex="007E"/>
  <outline>
    <contour>
      <point x="783" y="559" type="line"/>
      <point x="783" y="240" type="line"/>
      <point x="569" y="240" type="line"/>
      <point x="569" y="559" type="line"/>
    </contour>
  </outline>
</glyph>
<glyph name="asciitilde.color1" format="2">
  <advance width="808"/>
  <unicode hex="007E"/>
  <outline>
    <contour>
      <point x="25" y="532" type="line"/>
      <point x="25" y="533" type="line"/>
      <point x="239" y="592" type="line"/>
      <point x="240" y="592" type="line"/>
      <point x="783" y="240" type="line"/>
      <point x="783" y="239" type="line"/>
      <point x="569" y="180" type="line"/>
      <point x="568" y="180" type="line"/>
    </contour>
  </outline>
</glyph>
<glyph name="asciitilde.color2" format="2">
  <advance width="808"/>
  <unicode hex="007E"/>
  <outline>
    <contour>
      <point x="25" y="211" type="line"/>
      <point x="25" y="532" type="line"/>
      <point x="239" y="592" type="line"/>
      <point x="239" y="211" type="line"/>
    </contour>
  </outline>
</glyph>
<glyph name="exclamdown.color0" format="2">
  <advance width="282"/>
  <unicode hex="00A1"/>
  <outline>
    <contour>
      <point x="25" y="700" type="line"/>
      <point x="257" y="700" type="line"/>
      <point x="257" y="496" type="line"/>
      <point x="25" y="496" type="line"/>
    </contour>
  </outline>
</glyph>
<glyph name="exclamdown.color1" format="2">
  <advance width="282"/>
  <unicode hex="00A1"/>
  <outline>
    <contour>
      <point x="249" y="71" type="line"/>
      <point x="36" y="-36" type="line"/>
      <point x="35" y="-36" type="line"/>
      <point x="35" y="426" type="line"/>
      <point x="249" y="426" type="line"/>
    </contour>
  </outline>
</glyph>
<glyph name="exclamdown" format="2">
  <advance width="282"/>
  <unicode hex="00A1"/>
  <outline>
    <contour>
      <point x="25" y="700" type="line"/>
      <point x="257" y="700" type="line"/>
      <point x="257" y="496" type="line"/>
      <point x="25" y="496" type="line"/>
    </contour>
    <contour>
      <point x="249" y="71" type="line"/>
      <point x="36" y="-36" type="line"/>
      <point x="35" y="-36" type="line"/>
      <point x="35" y="426" type="line"/>
      <point x="249" y="426" type="line"/>
    </contour>
  </outline>
</glyph>
<glyph name="cent.color0" format="2">
  <advance width="777"/>
  <unicode hex="00A2"/>
  <outline>
    <contour>
      <point x="553" y="-33" type="line"/>
      <point x="322" y="-56" type="line"/>
      <point x="320" y="-56" type="line"/>
      <point x="320" y="34" type="line"/>
      <point x="322" y="34" type="line"/>
      <point x="553" y="34" type="line"/>
    </contour>
  </outline>
</glyph>
<glyph name="cent.color1" format="2">
  <advance width="600"/>
  <unicode hex="00A2"/>
  <outline>
    <contour>
      <point x="319" y="563" type="line"/>
      <point x="550" y="586" type="line"/>
      <point x="552" y="586" type="line"/>
      <point x="553" y="477" type="line"/>
      <point x="552" y="477" type="line"/>
      <point x="320" y="477" type="line"/>
    </contour>
  </outline>
</glyph>
<glyph name="cent.color2" format="2">
  <advance width="777"/>
  <unicode hex="00A2"/>
  <outline>
    <contour>
      <point x="35" y="423" type="line"/>
      <point x="248" y="530" type="line"/>
      <point x="249" y="530" type="line"/>
      <point x="249" y="200" type="line"/>
      <point x="35" y="200" type="line"/>
    </contour>
  </outline>
</glyph>
<glyph name="cent.color4" format="2">
  <advance width="777"/>
  <unicode hex="00A2"/>
  <outline>
    <contour>
      <point x="142" y="0" type="line"/>
      <point x="35" y="199" type="line"/>
      <point x="35" y="200" type="line"/>
      <point x="742" y="200" type="line"/>
      <point x="742" y="199" type="line"/>
      <point x="635" y="0" type="line"/>
    </contour>
  </outline>
</glyph>
<glyph name="cent" format="2">
  <advance width="777"/>
  <unicode hex="00A2"/>
  <anchor x="405" y="0" name="bottom"/>
  <anchor x="422" y="530" name="top"/>
  <outline>
    <contour>
      <point x="553" y="-33" type="line"/>
      <point x="322" y="-56" type="line"/>
      <point x="320" y="-56" type="line"/>
      <point x="320" y="34" type="line"/>
      <point x="322" y="34" type="line"/>
      <point x="553" y="34" type="line"/>
    </contour>
    <contour>
      <point x="319" y="563" type="line"/>
      <point x="550" y="586" type="line"/>
      <point x="552" y="586" type="line"/>
      <point x="553" y="477" type="line"/>
      <point x="552" y="477" type="line"/>
      <point x="320" y="477" type="line"/>
    </contour>
    <contour>
      <point x="35" y="423" type="line"/>
      <point x="248" y="530" type="line"/>
      <point x="249" y="530" type="line"/>
      <point x="249" y="200" type="line"/>
      <point x="35" y="200" type="line"/>
    </contour>
    <contour>
      <point x="635" y="530" type="line"/>
      <point x="742" y="352" type="line"/>
      <point x="742" y="351" type="line"/>
      <point x="249" y="351" type="line"/>
      <point x="249" y="530" type="line"/>
    </contour>
    <contour>
      <point x="142" y="0" type="line"/>
      <point x="35" y="199" type="line"/>
      <point x="35" y="200" type="line"/>
      <point x="742" y="200" type="line"/>
      <point x="742" y="199" type="line"/>
      <point x="635" y="0" type="line"/>
    </contour>
  </outline>
</glyph>
<glyph name="sterling.color0" format="2">
  <advance width="997"/>
  <unicode hex="00A3"/>
  <outline>
    <contour>
      <point x="882" y="454" type="line"/>
      <point x="882" y="280" type="line"/>
      <point x="60" y="279" type="line"/>
      <point x="60" y="453" type="line"/>
    </contour>
  </outline>
</glyph>
<glyph name="sterling.color1" format="2">
  <advance width="997"/>
  <unicode hex="00A3"/>
  <outline>
    <contour>
      <point x="125" y="523" type="line"/>
      <point x="378" y="730" type="line"/>
      <point x="379" y="730" type="line"/>
      <point x="379" y="466" type="line"/>
      <point x="378" y="244" type="line"/>
      <point x="125" y="244" type="line"/>
    </contour>
  </outline>
</glyph>
<glyph name="sterling.color2" format="2">
  <advance width="997"/>
  <unicode hex="00A3"/>
  <outline>
    <contour>
      <point x="770" y="730" type="line"/>
      <point x="972" y="487" type="line"/>
      <point x="972" y="486" type="line"/>
      <point x="379" y="486" type="line"/>
      <point x="379" y="730" type="line"/>
    </contour>
  </outline>
</glyph>
<glyph name="sterling" format="2">
  <advance width="997"/>
  <unicode hex="00A3"/>
  <outline>
    <contour>
      <point x="882" y="454" type="line"/>
      <point x="882" y="280" type="line"/>
      <point x="60" y="279" type="line"/>
      <point x="60" y="453" type="line"/>
    </contour>
    <contour>
      <point x="125" y="523" type="line"/>
      <point x="378" y="730" type="line"/>
      <point x="379" y="730" type="line"/>
      <point x="379" y="466" type="line"/>
      <point x="378" y="244" type="line"/>
      <point x="125" y="244" type="line"/>
    </contour>
    <contour>
      <point x="770" y="730" type="line"/>
      <point x="972" y="487" type="line"/>
      <point x="972" y="486" type="line"/>
      <point x="379" y="486" type="line"/>
      <point x="379" y="730" type="line"/>
    </contour>
    <contour>
      <point x="25" y="0" type="line"/>
      <point x="25" y="243" type="line"/>
      <point x="25" y="244" type="line"/>
      <point x="972" y="244" type="line"/>
      <point x="972" y="243" type="line"/>
      <point x="972" y="0" type="line"/>
    </contour>
  </outline>
</glyph>
<glyph name="currency.color2" format="2">
  <advance width="1097"/>
  <unicode hex="00A4"/>
  <outline>
    <contour>
      <point x="815" y="580" type="line"/>
      <point x="955" y="665" type="line"/>
      <point x="1082" y="461" type="line"/>
      <point x="942" y="376" type="line"/>
    </contour>
  </outline>
</glyph>
<glyph name="currency.color3" format="2">
  <advance width="600"/>
  <unicode hex="00A4"/>
  <outline>
    <contour>
      <point x="369" y="580" type="line"/>
      <point x="155" y="453" type="line"/>
      <point x="65" y="579" type="line"/>
      <point x="279" y="706" type="line"/>
    </contour>
  </outline>
</glyph>
<glyph name="currency.color6" format="2">
  <advance width="600"/>
  <unicode hex="00A4"/>
  <outline>
    <contour>
      <point x="942" y="277" type="line"/>
      <point x="728" y="150" type="line"/>
      <point x="728" y="376" type="line"/>
      <point x="942" y="376" type="line"/>
    </contour>
  </outline>
</glyph>
<glyph name="yen.color0" format="2">
  <advance width="830"/>
  <unicode hex="00A5"/>
  <outline>
    <contour>
      <point x="782" y="323" type="line"/>
      <point x="805" y="300" type="line"/>
      <point x="805" y="299" type="line"/>
      <point x="48" y="298" type="line"/>
      <point x="48" y="299" type="line"/>
      <point x="25" y="322" type="line"/>
    </contour>
  </outline>
</glyph>
<glyph name="yen.color2" format="2">
  <advance width="830"/>
  <unicode hex="00A5"/>
  <outline>
    <contour>
      <point x="25" y="730" type="line"/>
      <point x="288" y="730" type="line"/>
      <point x="431" y="467" type="line"/>
      <point x="284" y="285" type="line"/>
      <point x="283" y="285" type="line"/>
    </contour>
  </outline>
</glyph>
<glyph name="yen.color3" format="2">
  <advance width="830"/>
  <unicode hex="00A5"/>
  <outline>
    <contour>
      <point x="805" y="730" type="line"/>
      <point x="547" y="285" type="line"/>
      <point x="284" y="285" type="line"/>
      <point x="541" y="730" type="line"/>
    </contour>
  </outline>
</glyph>
<glyph name="yen.color4" format="2">
  <advance width="830"/>
  <unicode hex="00A5"/>
  <outline>
    <contour>
      <point x="547" y="0" type="line"/>
      <point x="283" y="0" type="line"/>
      <point x="283" y="285" type="line"/>
      <point x="547" y="285" type="line"/>
    </contour>
  </outline>
</glyph>
<glyph name="yen" format="2">
  <advance width="830"/>
  <unicode hex="00A5"/>
  <anchor x="412" y="0" name="bottom"/>
  <anchor x="438" y="730" name="top"/>
  <outline>
    <contour>
      <point x="782" y="323" type="line"/>
      <point x="805" y="300" type="line"/>
      <point x="805" y="299" type="line"/>
      <point x="48" y="298" type="line"/>
      <point x="48" y="299" type="line"/>
      <point x="25" y="322" type="line"/>
    </contour>
    <contour>
      <point x="782" y="234" type="line"/>
      <point x="805" y="211" type="line"/>
      <point x="805" y="210" type="line"/>
      <point x="48" y="209" type="line"/>
      <point x="48" y="210" type="line"/>
      <point x="25" y="233" type="line"/>
    </contour>
    <contour>
      <point x="25" y="730" type="line"/>
      <point x="288" y="730" type="line"/>
      <point x="431" y="467" type="line"/>
      <point x="284" y="285" type="line"/>
      <point x="283" y="285" type="line"/>
    </contour>
    <contour>
      <point x="805" y="730" type="line"/>
      <point x="547" y="285" type="line"/>
      <point x="284" y="285" type="line"/>
      <point x="541" y="730" type="line"/>
    </contour>
    <contour>
      <point x="547" y="0" type="line"/>
      <point x="283" y="0" type="line"/>
      <point x="283" y="285" type="line"/>
      <point x="547" y="285" type="line"/>
    </contour>
  </outline>
</glyph>
<glyph name="section.color2" format="2">
  <advance width="600"/>
  <unicode hex="00A7"/>
  <outline>
    <contour>
      <point x="233" y="-56" type="line"/>
      <point x="31" y="187" type="line"/>
      <point x="31" y="188" type="line"/>
      <point x="609" y="188" type="line"/>
      <point x="635" y="-56" type="line"/>
    </contour>
  </outline>
</glyph>
<glyph name="dieresis.color1" format="2">
  <advance width="600"/>
  <unicode hex="00A8"/>
  <outline>
    <contour>
      <point x="506" y="640" type="line"/>
      <point x="330" y="640" type="line"/>
      <point x="330" y="772" type="line"/>
      <point x="506" y="772" type="line"/>
    </contour>
  </outline>
</glyph>
<glyph name="copyright.color2" format="2">
  <advance width="977"/>
  <unicode hex="00A9"/>
  <outline>
    <contour>
      <point x="53" y="-27" type="line"/>
      <point x="53" y="656" type="line"/>
      <point x="77" y="656" type="line"/>
      <point x="77" y="-50" type="line"/>
      <point x="76" y="-50" type="line"/>
    </contour>
  </outline>
</glyph>
<glyph name="copyright.color4" format="2">
  <advance width="600"/>
  <unicode hex="00A9"/>
  <outline>
    <contour>
      <point x="141" y="489" type="line"/>
      <point x="354" y="596" type="line"/>
      <point x="355" y="596" type="line"/>
      <point x="355" y="232" type="line"/>
      <point x="141" y="232" type="line"/>
    </contour>
  </outline>
</glyph>
<glyph name="copyright.color5" format="2">
  <advance width="977"/>
  <unicode hex="00A9"/>
  <outline>
    <contour>
      <point x="741" y="596" type="line"/>
      <point x="848" y="418" type="line"/>
      <point x="848" y="417" type="line"/>
      <point x="355" y="417" type="line"/>
      <point x="355" y="596" type="line"/>
    </contour>
  </outline>
</glyph>
<glyph name="copyright" format="2">
  <advance width="977"/>
  <unicode hex="00A9"/>
  <outline>
    <contour>
      <point x="924" y="657" type="line"/>
      <point x="924" y="-26" type="line"/>
      <point x="900" y="-26" type="line"/>
      <point x="900" y="680" type="line"/>
      <point x="901" y="680" type="line"/>
    </contour>
    <contour>
      <point x="76" y="680" type="line"/>
      <point x="900" y="680" type="line"/>
      <point x="900" y="656" type="line"/>
      <point x="53" y="656" type="line"/>
      <point x="53" y="657" type="line"/>
    </contour>
    <contour>
      <point x="53" y="-27" type="line"/>
      <point x="53" y="656" type="line"/>
      <point x="77" y="656" type="line"/>
      <point x="77" y="-50" type="line"/>
      <point x="76" y="-50" type="line"/>
    </contour>
    <contour>
      <point x="901" y="-50" type="line"/>
      <point x="77" y="-50" type="line"/>
      <point x="77" y="-26" type="line"/>
      <point x="924" y="-26" type="line"/>
      <point x="924" y="-27" type="line"/>
    </contour>
    <contour>
      <point x="141" y="489" type="line"/>
      <point x="354" y="596" type="line"/>
      <point x="355" y="596" type="line"/>
      <point x="355" y="232" type="line"/>
      <point x="141" y="232" type="line"/>
    </contour>
    <contour>
      <point x="741" y="596" type="line"/>
      <point x="848" y="418" type="line"/>
      <point x="848" y="417" type="line"/>
      <point x="355" y="417" type="line"/>
      <point x="355" y="596" type="line"/>
    </contour>
    <contour>
      <point x="248" y="32" type="line"/>
      <point x="141" y="231" type="line"/>
      <point x="141" y="232" type="line"/>
      <point x="848" y="232" type="line"/>
      <point x="848" y="231" type="line"/>
      <point x="741" y="32" type="line"/>
    </contour>
  </outline>
</glyph>
<glyph name="guillemetleft.color0" format="2">
  <advance width="818"/>
  <unicode hex="00AB"/>
  <outline>
    <contour>
      <point x="556" y="530" type="line"/>
      <point x="793" y="530" type="line"/>
      <point x="793" y="529" type="line"/>
      <point x="552" y="261" type="line"/>
      <point x="314" y="261" type="line"/>
      <point x="314" y="262" type="line"/>
    </contour>
  </outline>
</glyph>
<glyph name="guillemetleft.color1" format="2">
  <advance width="818"/>
  <unicode hex="00AB"/>
  <outline>
    <contour>
      <point x="556" y="0" type="line"/>
      <point x="314" y="260" type="line"/>
      <point x="314" y="261" type="line"/>
      <point x="552" y="261" type="line"/>
      <point x="793" y="4" type="line"/>
      <point x="793" y="0" type="line"/>
    </contour>
  </outline>
</glyph>
<glyph name="guillemetleft.color2" format="2">
  <advance width="818"/>
  <unicode hex="00AB"/>
  <outline>
    <contour>
      <point x="267" y="526" type="line"/>
      <point x="504" y="526" type="line"/>
      <point x="504" y="525" type="line"/>
      <point x="263" y="257" type="line"/>
      <point x="25" y="257" type="line"/>
      <point x="25" y="258" type="line"/>
    </contour>
  </outline>
</glyph>
<glyph name="guillemetleft.color3" format="2">
  <advance width="818"/>
  <unicode hex="00AB"/>
  <outline>
    <contour>
      <point x="267" y="-4" type="line"/>
      <point x="25" y="256" type="line"/>
      <point x="25" y="257" type="line"/>
      <point x="263" y="257" type="line"/>
      <point x="504" y="0" type="line"/>
      <point x="504" y="-4" type="line"/>
    </contour>
  </outline>
</glyph>
<glyph name="logicalnot.color0" format="2">
  <advance width="550"/>
  <unicode hex="00AC"/>
  <outline>
    <contour>
      <point x="525" y="239" type="line"/>
      <point x="25" y="239" type="line"/>
      <point x="25" y="443" type="line"/>
      <point x="418" y="443" type="line"/>
    </contour>
  </outline>
</glyph>
<glyph name="softhyphen" format="2">
  <advance width="410"/>
  <unicode hex="00AD"/>
  <outline>
    <contour>
      <point x="385" y="263" type="line"/>
      <point x="25" y="263" type="line"/>
      <point x="25" y="467" type="line"/>
      <point x="385" y="467" type="line"/>
      <point x="385" y="264" type="line"/>
    </contour>
  </outline>
</glyph>
<glyph name="registered.color1" format="2">
  <advance width="711"/>
  <unicode hex="00AE"/>
  <outline>
    <contour>
      <point x="125" y="746" type="line"/>
      <point x="278" y="746" type="line"/>
      <point x="279" y="746" type="line"/>
      <point x="279" y="485" type="line"/>
      <point x="125" y="485" type="line"/>
    </contour>
  </outline>
</glyph>
<glyph name="registered.color2" format="2">
  <advance width="711"/>
  <unicode hex="00AE"/>
  <outline>
    <contour>
      <point x="474" y="746" type="line"/>
      <point x="576" y="653" type="line"/>
      <point x="576" y="652" type="line"/>
      <point x="279" y="652" type="line"/>
      <point x="279" y="746" type="line"/>
    </contour>
  </outline>
</glyph>
<glyph name="registered.color3" format="2">
  <advance width="600"/>
  <unicode hex="00AE"/>
  <outline>
    <contour>
      <point x="576" y="575" type="line"/>
      <point x="423" y="528" type="line"/>
      <point x="422" y="528" type="line"/>
      <point x="422" y="652" type="line"/>
      <point x="576" y="652" type="line"/>
    </contour>
  </outline>
</glyph>
<glyph name="registered.color4" format="2">
  <advance width="711"/>
  <unicode hex="00AE"/>
  <outline>
    <contour>
      <point x="279" y="528" type="line"/>
      <point x="279" y="622" type="line"/>
      <point x="422" y="622" type="line"/>
      <point x="422" y="621" type="line"/>
      <point x="422" y="528" type="line"/>
    </contour>
  </outline>
</glyph>
<glyph name="registered.color5" format="2">
  <advance width="711"/>
  <unicode hex="00AE"/>
  <outline>
    <contour>
      <point x="658" y="777" type="line"/>
      <point x="658" y="455" type="line"/>
      <point x="634" y="455" type="line"/>
      <point x="634" y="800" type="line"/>
      <point x="635" y="800" type="line"/>
    </contour>
  </outline>
</glyph>
<glyph name="registered.color6" format="2">
  <advance width="600"/>
  <unicode hex="00AE"/>
  <outline>
    <contour>
      <point x="76" y="800" type="line"/>
      <point x="634" y="800" type="line"/>
      <point x="634" y="776" type="line"/>
      <point x="53" y="776" type="line"/>
      <point x="53" y="777" type="line"/>
    </contour>
  </outline>
</glyph>
<glyph name="registered.color8" format="2">
  <advance width="711"/>
  <unicode hex="00AE"/>
  <outline>
    <contour>
      <point x="635" y="431" type="line"/>
      <point x="77" y="431" type="line"/>
      <point x="77" y="455" type="line"/>
      <point x="658" y="455" type="line"/>
      <point x="658" y="454" type="line"/>
    </contour>
  </outline>
</glyph>
<glyph name="registered" format="2">
  <advance width="711"/>
  <unicode hex="00AE"/>
  <outline>
    <contour>
      <point x="601" y="485" type="line"/>
      <point x="380" y="485" type="line"/>
      <point x="278" y="604" type="line"/>
      <point x="489" y="604" type="line"/>
      <point x="601" y="486" type="line"/>
    </contour>
    <contour>
      <point x="125" y="746" type="line"/>
      <point x="278" y="746" type="line"/>
      <point x="279" y="746" type="line"/>
      <point x="279" y="485" type="line"/>
      <point x="125" y="485" type="line"/>
    </contour>
    <contour>
      <point x="474" y="746" type="line"/>
      <point x="576" y="653" type="line"/>
      <point x="576" y="652" type="line"/>
      <point x="279" y="652" type="line"/>
      <point x="279" y="746" type="line"/>
    </contour>
    <contour>
      <point x="576" y="575" type="line"/>
      <point x="423" y="528" type="line"/>
      <point x="422" y="528" type="line"/>
      <point x="422" y="652" type="line"/>
      <point x="576" y="652" type="line"/>
    </contour>
    <contour>
      <point x="279" y="528" type="line"/>
      <point x="279" y="622" type="line"/>
      <point x="422" y="622" type="line"/>
      <point x="422" y="621" type="line"/>
      <point x="422" y="528" type="line"/>
    </contour>
    <contour>
      <point x="658" y="777" type="line"/>
      <point x="658" y="455" type="line"/>
      <point x="634" y="455" type="line"/>
      <point x="634" y="800" type="line"/>
      <point x="635" y="800" type="line"/>
    </contour>
    <contour>
      <point x="76" y="800" type="line"/>
      <point x="634" y="800" type="line"/>
      <point x="634" y="776" type="line"/>
      <point x="53" y="776" type="line"/>
      <point x="53" y="777" type="line"/>
    </contour>
    <contour>
      <point x="53" y="454" type="line"/>
      <point x="53" y="776" type="line"/>
      <point x="77" y="776" type="line"/>
      <point x="77" y="431" type="line"/>
      <point x="76" y="431" type="line"/>
    </contour>
    <contour>
      <point x="635" y="431" type="line"/>
      <point x="77" y="431" type="line"/>
      <point x="77" y="455" type="line"/>
      <point x="658" y="455" type="line"/>
      <point x="658" y="454" type="line"/>
    </contour>
  </outline>
</glyph>
<glyph name="degree.color0" format="2">
  <advance width="600"/>
  <unicode hex="00B0"/>
  <outline>
    <contour>
      <point x="0" y="726" type="line"/>
      <point x="115" y="800" type="line"/>
      <point x="115" y="800" type="line"/>
      <point x="115" y="637" type="line"/>
      <point x="0" y="637" type="line"/>
    </contour>
  </outline>
</glyph>
<glyph name="degree.color1" format="2">
  <advance width="416"/>
  <unicode hex="00B0"/>
  <outline>
    <contour>
      <point x="319" y="800" type="line"/>
      <point x="391" y="699" type="line"/>
      <point x="391" y="699" type="line"/>
      <point x="115" y="699" type="line"/>
      <point x="115" y="800" type="line"/>
    </contour>
  </outline>
</glyph>
<glyph name="degree.color2" format="2">
  <advance width="416"/>
  <unicode hex="00B0"/>
  <outline>
    <contour>
      <point x="391" y="606" type="line"/>
      <point x="276" y="538" type="line"/>
      <point x="276" y="538" type="line"/>
      <point x="276" y="699" type="line"/>
      <point x="391" y="699" type="line"/>
    </contour>
  </outline>
</glyph>
<glyph name="degree.color3" format="2">
  <advance width="416"/>
  <unicode hex="00B0"/>
  <outline>
    <contour>
      <point x="72" y="538" type="line"/>
      <point x="0" y="637" type="line"/>
      <point x="0" y="637" type="line"/>
      <point x="276" y="637" type="line"/>
      <point x="276" y="538" type="line"/>
    </contour>
  </outline>
</glyph>
<glyph name="plusminus.color0" format="2">
  <advance width="733"/>
  <unicode hex="00B1"/>
  <outline>
    <contour>
      <point x="468" y="622" type="line"/>
      <point x="708" y="622" type="line"/>
      <point x="708" y="418" type="line"/>
      <point x="265" y="418" type="line"/>
    </contour>
  </outline>
</glyph>
<glyph name="plusminus.color2" format="2">
  <advance width="733"/>
  <unicode hex="00B1"/>
  <outline>
    <contour>
      <point x="468" y="418" type="line"/>
      <point x="468" y="268" type="line"/>
      <point x="264" y="268" type="line"/>
      <point x="264" y="418" type="line"/>
    </contour>
  </outline>
</glyph>
<glyph name="plusminus.color4" format="2">
  <advance width="733"/>
  <unicode hex="00B1"/>
  <outline>
    <contour>
      <point x="708" y="19" type="line"/>
      <point x="25" y="18" type="line"/>
      <point x="25" y="222" type="line"/>
      <point x="708" y="222" type="line"/>
    </contour>
  </outline>
</glyph>
<glyph name="plusminus" format="2">
  <advance width="733"/>
  <unicode hex="00B1"/>
  <outline>
    <contour>
      <point x="468" y="622" type="line"/>
      <point x="708" y="622" type="line"/>
      <point x="708" y="418" type="line"/>
      <point x="265" y="418" type="line"/>
    </contour>
    <contour>
      <point x="25" y="622" type="line"/>
      <point x="264" y="622" type="line"/>
      <point x="265" y="418" type="line"/>
      <point x="25" y="418" type="line"/>
    </contour>
    <contour>
      <point x="468" y="418" type="line"/>
      <point x="468" y="268" type="line"/>
      <point x="264" y="268" type="line"/>
      <point x="264" y="418" type="line"/>
    </contour>
    <contour>
      <point x="264" y="772" type="line"/>
      <point x="468" y="772" type="line"/>
      <point x="468" y="622" type="line"/>
      <point x="265" y="418" type="line"/>
      <point x="264" y="418" type="line"/>
    </contour>
    <contour>
      <point x="708" y="19" type="line"/>
      <point x="25" y="18" type="line"/>
      <point x="25" y="222" type="line"/>
      <point x="708" y="222" type="line"/>
    </contour>
  </outline>
</glyph>
<glyph name="twosuperior.color0" format="2">
  <advance width="600"/>
  <unicode hex="00B2"/>
  <outline>
    <contour>
      <point x="107" y="794" type="line"/>
      <point x="319" y="794" type="line"/>
      <point x="323" y="660" type="line"/>
      <point x="25" y="660" type="line"/>
      <point x="25" y="661" type="line"/>
    </contour>
  </outline>
</glyph>
<glyph name="twosuperior.color1" format="2">
  <advance width="440"/>
  <unicode hex="00B2"/>
  <outline>
    <contour>
      <point x="111" y="503" type="line"/>
      <point x="31" y="608" type="line"/>
      <point x="31" y="609" type="line"/>
      <point x="319" y="794" type="line"/>
      <point x="399" y="689" type="line"/>
    </contour>
  </outline>
</glyph>
<glyph name="threesuperior.color0" format="2">
  <advance width="600"/>
  <unicode hex="00B3"/>
  <outline>
    <contour>
      <point x="434" y="638" type="line"/>
      <point x="279" y="638" type="line"/>
      <point x="279" y="794" type="line"/>
      <point x="280" y="794" type="line"/>
      <point x="434" y="703" type="line"/>
    </contour>
  </outline>
</glyph>
<glyph name="threesuperior.color2" format="2">
  <advance width="600"/>
  <unicode hex="00B3"/>
  <outline>
    <contour>
      <point x="434" y="539" type="line"/>
      <point x="280" y="474" type="line"/>
      <point x="279" y="474" type="line"/>
      <point x="279" y="678" type="line"/>
      <point x="280" y="678" type="line"/>
      <point x="434" y="592" type="line"/>
    </contour>
  </outline>
</glyph>
<glyph name="threesuperior.color3" format="2">
  <advance width="600"/>
  <unicode hex="00B3"/>
  <outline>
    <contour>
      <point x="76" y="600" type="line"/>
      <point x="76" y="678" type="line"/>
      <point x="279" y="678" type="line"/>
      <point x="279" y="600" type="line"/>
    </contour>
  </outline>
</glyph>
<glyph name="threesuperior.color4" format="2">
  <advance width="459"/>
  <unicode hex="00B3"/>
  <outline>
    <contour>
      <point x="147" y="474" type="line"/>
      <point x="25" y="580" type="line"/>
      <point x="25" y="581" type="line"/>
      <point x="279" y="581" type="line"/>
      <point x="279" y="580" type="line"/>
      <point x="279" y="474" type="line"/>
    </contour>
  </outline>
</glyph>
<glyph name="threesuperior" format="2">
  <advance width="459"/>
  <unicode hex="00B3"/>
  <outline>
    <contour>
      <point x="434" y="638" type="line"/>
      <point x="279" y="638" type="line"/>
      <point x="279" y="794" type="line"/>
      <point x="280" y="794" type="line"/>
      <point x="434" y="703" type="line"/>
    </contour>
    <contour>
      <point x="147" y="794" type="line"/>
      <point x="279" y="794" type="line"/>
      <point x="279" y="699" type="line"/>
      <point x="25" y="699" type="line"/>
      <point x="25" y="700" type="line"/>
    </contour>
    <contour>
      <point x="434" y="539" type="line"/>
      <point x="280" y="474" type="line"/>
      <point x="279" y="474" type="line"/>
      <point x="279" y="678" type="line"/>
      <point x="280" y="678" type="line"/>
      <point x="434" y="592" type="line"/>
    </contour>
    <contour>
      <point x="76" y="600" type="line"/>
      <point x="76" y="678" type="line"/>
      <point x="279" y="678" type="line"/>
      <point x="279" y="600" type="line"/>
    </contour>
    <contour>
      <point x="147" y="474" type="line"/>
      <point x="25" y="580" type="line"/>
      <point x="25" y="581" type="line"/>
      <point x="279" y="581" type="line"/>
      <point x="279" y="580" type="line"/>
      <point x="279" y="474" type="line"/>
    </contour>
  </outline>
</glyph>
<glyph name="acute" format="2">
  <advance width="600"/>
  <unicode hex="00B4"/>
  <anchor x="269" y="530" name="_top"/>
  <outline>
    <contour>
      <point x="186" y="590" type="line"/>
      <point x="221" y="820" type="line"/>
      <point x="397" y="820" type="line"/>
      <point x="397" y="819" type="line"/>
      <point x="282" y="590" type="line"/>
    </contour>
  </outline>
</glyph>
<glyph name="micro.color1" format="2">
  <advance width="837"/>
  <unicode hex="00B5"/>
  <outline>
    <contour>
      <point x="249" y="204" type="line"/>
      <point x="498" y="203" type="line"/>
      <point x="498" y="0" type="line"/>
      <point x="249" y="0" type="line"/>
    </contour>
  </outline>
</glyph>
<glyph name="micro" format="2">
  <advance width="837"/>
  <unicode hex="00B5"/>
  <outline>
    <contour>
      <point x="802" y="0" type="line"/>
      <point x="605" y="0" type="line"/>
      <point x="498" y="203" type="line"/>
      <point x="802" y="204" type="line"/>
    </contour>
    <contour>
      <point x="249" y="204" type="line"/>
      <point x="498" y="203" type="line"/>
      <point x="498" y="0" type="line"/>
      <point x="249" y="0" type="line"/>
    </contour>
    <contour>
      <point x="35" y="423" type="line"/>
      <point x="248" y="530" type="line"/>
      <point x="249" y="530" type="line"/>
      <point x="249" y="-200" type="line"/>
      <point x="35" y="-200" type="line"/>
    </contour>
    <contour>
      <point x="692" y="530" type="line"/>
      <point x="692" y="204" type="line"/>
      <point x="499" y="0" type="line"/>
      <point x="498" y="0" type="line"/>
      <point x="498" y="530" type="line"/>
    </contour>
  </outline>
</glyph>
<glyph name="paragraph.color1" format="2">
  <advance width="1053"/>
  <unicode hex="00B6"/>
  <outline>
    <contour>
      <point x="728" y="486" type="line"/>
      <point x="728" y="0" type="line"/>
      <point x="474" y="0" type="line"/>
      <point x="474" y="486" type="line"/>
    </contour>
  </outline>
</glyph>
<glyph name="paragraph.color2" format="2">
  <advance width="1053"/>
  <unicode hex="00B6"/>
  <outline>
    <contour>
      <point x="227" y="173" type="line"/>
      <point x="25" y="416" type="line"/>
      <point x="25" y="417" type="line"/>
      <point x="474" y="417" type="line"/>
      <point x="474" y="173" type="line"/>
    </contour>
  </outline>
</glyph>
<glyph name="paragraph.color4" format="2">
  <advance width="600"/>
  <unicode hex="00B6"/>
  <outline>
    <contour>
      <point x="1028" y="730" type="line"/>
      <point x="1028" y="486" type="line"/>
      <point x="279" y="486" type="line"/>
      <point x="279" y="730" type="line"/>
    </contour>
  </outline>
</glyph>
<glyph name="cedilla.color0" format="2">
  <advance width="600"/>
  <unicode hex="00B8"/>
  <outline>
    <contour>
      <point x="192" y="-260" type="line"/>
      <point x="132" y="-169" type="line"/>
      <point x="132" y="-168" type="line"/>
      <point x="350" y="-168" type="line"/>
      <point x="350" y="-260" type="line"/>
    </contour>
  </outline>
</glyph>
<glyph name="cedilla.color2" format="2">
  <advance width="600"/>
  <unicode hex="00B8"/>
  <outline>
    <contour>
      <point x="388" y="-32" type="line"/>
      <point x="458" y="-125" type="line"/>
      <point x="458" y="-126" type="line"/>
      <point x="308" y="-126" type="line"/>
      <point x="354" y="-32" type="line"/>
    </contour>
  </outline>
</glyph>
<glyph name="cedilla.color3" format="2">
  <advance width="600"/>
  <unicode hex="00B8"/>
  <outline>
    <contour>
      <point x="192" y="-126" type="line"/>
      <point x="192" y="-125" type="line"/>
      <point x="269" y="0" type="line"/>
      <point x="374" y="0" type="line"/>
      <point x="374" y="-1" type="line"/>
      <point x="308" y="-126" type="line"/>
    </contour>
  </outline>
</glyph>
<glyph name="onesuperior.color3" format="2">
  <advance width="480"/>
  <unicode hex="00B9"/>
  <outline>
    <contour>
      <point x="25" y="604" type="line"/>
      <point x="178" y="604" type="line"/>
      <point x="178" y="470" type="line"/>
      <point x="25" y="470" type="line"/>
    </contour>
  </outline>
</glyph>
<glyph name="guillemetright.color0" format="2">
  <advance width="818"/>
  <unicode hex="00BB"/>
  <outline>
    <contour>
      <point x="262" y="-4" type="line"/>
      <point x="25" y="-4" type="line"/>
      <point x="25" y="-3" type="line"/>
      <point x="266" y="265" type="line"/>
      <point x="504" y="265" type="line"/>
      <point x="504" y="264" type="line"/>
    </contour>
  </outline>
</glyph>
<glyph name="guillemetright.color3" format="2">
  <advance width="600"/>
  <unicode hex="00BB"/>
  <outline>
    <contour>
      <point x="551" y="530" type="line"/>
      <point x="793" y="270" type="line"/>
      <point x="793" y="269" type="line"/>
      <point x="555" y="269" type="line"/>
      <point x="314" y="526" type="line"/>
      <point x="314" y="530" type="line"/>
    </contour>
  </outline>
</glyph>
<glyph name="onequarter.color3" format="2">
  <advance width="986"/>
  <unicode hex="00BC"/>
  <outline>
    <contour>
      <point x="25" y="604" type="line"/>
      <point x="178" y="604" type="line"/>
      <point x="178" y="470" type="line"/>
      <point x="25" y="470" type="line"/>
    </contour>
  </outline>
</glyph>
<glyph name="onequarter.color5" format="2">
  <advance width="986"/>
  <unicode hex="00BC"/>
  <outline>
    <contour>
      <point x="807" y="59" type="line"/>
      <point x="626" y="59" type="line"/>
      <point x="637" y="196" type="line"/>
      <point x="807" y="196" type="line"/>
    </contour>
  </outline>
</glyph>
<glyph name="onequarter.color6" format="2">
  <advance width="986"/>
  <unicode hex="00BC"/>
  <outline>
    <contour>
      <point x="703" y="320" type="line"/>
      <point x="882" y="320" type="line"/>
      <point x="882" y="319" type="line"/>
      <point x="626" y="59" type="line"/>
      <point x="521" y="144" type="line"/>
    </contour>
  </outline>
</glyph>
<glyph name="onequarter.color7" format="2">
  <advance width="986"/>
  <unicode hex="00BC"/>
  <outline>
    <contour>
      <point x="961" y="0" type="line"/>
      <point x="807" y="0" type="line"/>
      <point x="807" y="196" type="line"/>
      <point x="808" y="196" type="line"/>
      <point x="961" y="115" type="line"/>
    </contour>
  </outline>
</glyph>
<glyph name="onehalf.color3" format="2">
  <advance width="979"/>
  <unicode hex="00BD"/>
  <outline>
    <contour>
      <point x="25" y="604" type="line"/>
      <point x="178" y="604" type="line"/>
      <point x="178" y="470" type="line"/>
      <point x="25" y="470" type="line"/>
    </contour>
  </outline>
</glyph>
<glyph name="onehalf.color4" format="2">
  <advance width="979"/>
  <unicode hex="00BD"/>
  <outline>
    <contour>
      <point x="929" y="730" type="line"/>
      <point x="929" y="729" type="line"/>
      <point x="335" y="0" type="line"/>
      <point x="102" y="0" type="line"/>
      <point x="102" y="1" type="line"/>
      <point x="696" y="730" type="line"/>
    </contour>
  </outline>
</glyph>
<glyph name="onehalf.color5" format="2">
  <advance width="979"/>
  <unicode hex="00BD"/>
  <outline>
    <contour>
      <point x="646" y="320" type="line"/>
      <point x="858" y="320" type="line"/>
      <point x="862" y="186" type="line"/>
      <point x="564" y="186" type="line"/>
      <point x="564" y="187" type="line"/>
    </contour>
  </outline>
</glyph>
<glyph name="onehalf.color7" format="2">
  <advance width="979"/>
  <unicode hex="00BD"/>
  <outline>
    <contour>
      <point x="954" y="0" type="line"/>
      <point x="570" y="0" type="line"/>
      <point x="570" y="134" type="line"/>
      <point x="954" y="134" type="line"/>
      <point x="954" y="133" type="line"/>
    </contour>
  </outline>
</glyph>
<glyph name="onehalf" format="2">
  <advance width="979"/>
  <unicode hex="00BD"/>
  <outline>
    <contour>
      <point x="179" y="660" type="line"/>
      <point x="281" y="794" type="line"/>
      <point x="333" y="794" type="line"/>
      <point x="333" y="604" type="line"/>
      <point x="231" y="470" type="line"/>
      <point x="178" y="470" type="line"/>
    </contour>
    <contour>
      <point x="179" y="660" type="line"/>
      <point x="105" y="660" type="line"/>
      <point x="105" y="794" type="line"/>
      <point x="281" y="794" type="line"/>
    </contour>
    <contour>
      <point x="333" y="604" type="line"/>
      <point x="455" y="604" type="line"/>
      <point x="455" y="470" type="line"/>
      <point x="231" y="470" type="line"/>
    </contour>
    <contour>
      <point x="25" y="604" type="line"/>
      <point x="178" y="604" type="line"/>
      <point x="178" y="470" type="line"/>
      <point x="25" y="470" type="line"/>
    </contour>
    <contour>
      <point x="929" y="730" type="line"/>
      <point x="929" y="729" type="line"/>
      <point x="335" y="0" type="line"/>
      <point x="102" y="0" type="line"/>
      <point x="102" y="1" type="line"/>
      <point x="696" y="730" type="line"/>
    </contour>
    <contour>
      <point x="646" y="320" type="line"/>
      <point x="858" y="320" type="line"/>
      <point x="862" y="186" type="line"/>
      <point x="564" y="186" type="line"/>
      <point x="564" y="187" type="line"/>
    </contour>
    <contour>
      <point x="650" y="29" type="line"/>
      <point x="570" y="134" type="line"/>
      <point x="570" y="135" type="line"/>
      <point x="858" y="320" type="line"/>
      <point x="938" y="215" type="line"/>
    </contour>
    <contour>
      <point x="954" y="0" type="line"/>
      <point x="570" y="0" type="line"/>
      <point x="570" y="134" type="line"/>
      <point x="954" y="134" type="line"/>
      <point x="954" y="133" type="line"/>
    </contour>
  </outline>
</glyph>
<glyph name="threequarters.color5" format="2">
  <advance width="943"/>
  <unicode hex="00BE"/>
  <outline>
    <contour>
      <point x="886" y="730" type="line"/>
      <point x="886" y="729" type="line"/>
      <point x="292" y="0" type="line"/>
      <point x="59" y="0" type="line"/>
      <point x="59" y="1" type="line"/>
      <point x="653" y="730" type="line"/>
    </contour>
  </outline>
</glyph>
<glyph name="threequarters.color6" format="2">
  <advance width="943"/>
  <unicode hex="00BE"/>
  <outline>
    <contour>
      <point x="764" y="59" type="line"/>
      <point x="583" y="59" type="line"/>
      <point x="594" y="196" type="line"/>
      <point x="764" y="196" type="line"/>
    </contour>
  </outline>
</glyph>
<glyph name="threequarters.color7" format="2">
  <advance width="943"/>
  <unicode hex="00BE"/>
  <outline>
    <contour>
      <point x="660" y="320" type="line"/>
      <point x="839" y="320" type="line"/>
      <point x="839" y="319" type="line"/>
      <point x="583" y="59" type="line"/>
      <point x="478" y="144" type="line"/>
    </contour>
  </outline>
</glyph>
<glyph name="threequarters.color8" format="2">
  <advance width="943"/>
  <unicode hex="00BE"/>
  <outline>
    <contour>
      <point x="918" y="0" type="line"/>
      <point x="764" y="0" type="line"/>
      <point x="764" y="196" type="line"/>
      <point x="765" y="196" type="line"/>
      <point x="918" y="115" type="line"/>
    </contour>
  </outline>
</glyph>
<glyph name="threequarters" format="2">
  <advance width="943"/>
  <unicode hex="00BE"/>
  <outline>
    <contour>
      <point x="434" y="638" type="line"/>
      <point x="279" y="638" type="line"/>
      <point x="279" y="794" type="line"/>
      <point x="280" y="794" type="line"/>
      <point x="434" y="703" type="line"/>
    </contour>
    <contour>
      <point x="147" y="794" type="line"/>
      <point x="279" y="794" type="line"/>
      <point x="279" y="699" type="line"/>
      <point x="25" y="699" type="line"/>
      <point x="25" y="700" type="line"/>
    </contour>
    <contour>
      <point x="434" y="539" type="line"/>
      <point x="280" y="474" type="line"/>
      <point x="279" y="474" type="line"/>
      <point x="279" y="678" type="line"/>
      <point x="280" y="678" type="line"/>
      <point x="434" y="592" type="line"/>
    </contour>
    <contour>
      <point x="76" y="600" type="line"/>
      <point x="76" y="678" type="line"/>
      <point x="279" y="678" type="line"/>
      <point x="279" y="600" type="line"/>
    </contour>
    <contour>
      <point x="147" y="474" type="line"/>
      <point x="25" y="580" type="line"/>
      <point x="25" y="581" type="line"/>
      <point x="279" y="581" type="line"/>
      <point x="279" y="580" type="line"/>
      <point x="279" y="474" type="line"/>
    </contour>
    <contour>
      <point x="886" y="730" type="line"/>
      <point x="886" y="729" type="line"/>
      <point x="292" y="0" type="line"/>
      <point x="59" y="0" type="line"/>
      <point x="59" y="1" type="line"/>
      <point x="653" y="730" type="line"/>
    </contour>
    <contour>
      <point x="764" y="59" type="line"/>
      <point x="583" y="59" type="line"/>
      <point x="594" y="196" type="line"/>
      <point x="764" y="196" type="line"/>
    </contour>
    <contour>
      <point x="660" y="320" type="line"/>
      <point x="839" y="320" type="line"/>
      <point x="839" y="319" type="line"/>
      <point x="583" y="59" type="line"/>
      <point x="478" y="144" type="line"/>
    </contour>
    <contour>
      <point x="918" y="0" type="line"/>
      <point x="764" y="0" type="line"/>
      <point x="764" y="196" type="line"/>
      <point x="765" y="196" type="line"/>
      <point x="918" y="115" type="line"/>
    </contour>
  </outline>
</glyph>
<glyph name="questiondown.color0" format="2">
  <advance width="897"/>
  <unicode hex="00BF"/>
  <outline>
    <contour>
      <point x="439" y="700" type="line"/>
      <point x="671" y="700" type="line"/>
      <point x="671" y="496" type="line"/>
      <point x="439" y="496" type="line"/>
    </contour>
  </outline>
</glyph>
<glyph name="questiondown.color1" format="2">
  <advance width="897"/>
  <unicode hex="00BF"/>
  <outline>
    <contour>
      <point x="25" y="177" type="line"/>
      <point x="25" y="234" type="line"/>
      <point x="278" y="234" type="line"/>
      <point x="279" y="234" type="line"/>
      <point x="279" y="-30" type="line"/>
      <point x="278" y="-30" type="line"/>
    </contour>
  </outline>
</glyph>
<glyph name="questiondown.color2" format="2">
  <advance width="600"/>
  <unicode hex="00BF"/>
  <outline>
    <contour>
      <point x="670" y="-30" type="line"/>
      <point x="279" y="-30" type="line"/>
      <point x="279" y="214" type="line"/>
      <point x="872" y="214" type="line"/>
      <point x="872" y="213" type="line"/>
    </contour>
  </outline>
</glyph>
<glyph name="questiondown.color3" format="2">
  <advance width="897"/>
  <unicode hex="00BF"/>
  <outline>
    <contour>
      <point x="682" y="468" type="line"/>
      <point x="682" y="431" type="line"/>
      <point x="429" y="234" type="line"/>
      <point x="428" y="234" type="line"/>
      <point x="428" y="468" type="line"/>
    </contour>
  </outline>
</glyph>
<glyph name="questiondown.color4" format="2">
  <advance width="897"/>
  <unicode hex="00BF"/>
  <outline>
    <contour>
      <point x="227" y="438" type="line"/>
      <point x="428" y="438" type="line"/>
      <point x="428" y="234" type="line"/>
      <point x="25" y="234" type="line"/>
      <point x="25" y="235" type="line"/>
    </contour>
  </outline>
</glyph>
<glyph name="Agrave.color4" format="2">
  <advance width="907"/>
  <unicode hex="00C0"/>
  <outline>
    <contour>
      <point x="544" y="760" type="line"/>
      <point x="418" y="760" type="line"/>
      <point x="303" y="899" type="line"/>
      <point x="303" y="900" type="line"/>
      <point x="509" y="900" type="line"/>
    </contour>
  </outline>
</glyph>
<glyph name="Aacute.color4" format="2">
  <advance width="907"/>
  <unicode hex="00C1"/>
  <outline>
    <contour>
      <point x="393" y="760" type="line"/>
      <point x="428" y="900" type="line"/>
      <point x="634" y="900" type="line"/>
      <point x="634" y="899" type="line"/>
      <point x="519" y="760" type="line"/>
    </contour>
  </outline>
</glyph>
<glyph name="Atilde.color6" format="2">
  <advance width="907"/>
  <unicode hex="00C3"/>
  <outline>
    <contour>
      <point x="238" y="873" type="line"/>
      <point x="238" y="883" type="line"/>
      <point x="366" y="923" type="line"/>
      <point x="387" y="923" type="line"/>
      <point x="706" y="821" type="line"/>
      <point x="706" y="811" type="line"/>
      <point x="578" y="771" type="line"/>
      <point x="557" y="771" type="line"/>
    </contour>
  </outline>
</glyph>
<glyph name="Adieresis.color5" format="2">
  <advance width="907"/>
  <unicode hex="00C4"/>
  <outline>
    <contour>
      <point x="674" y="788" type="line"/>
      <point x="528" y="788" type="line"/>
      <point x="528" y="900" type="line"/>
      <point x="674" y="900" type="line"/>
    </contour>
  </outline>
</glyph>
<glyph name="Adieresis" format="2">
  <advance width="907"/>
  <unicode hex="00C4"/>
  <anchor x="452" y="0" name="bottom"/>
  <anchor x="476" y="730" name="top"/>
  <outline>
    <contour>
      <point x="25" y="523" type="line"/>
      <point x="278" y="730" type="line"/>
      <point x="279" y="730" type="line"/>
      <point x="279" y="0" type="line"/>
      <point x="25" y="0" type="line"/>
    </contour>
    <contour>
      <point x="680" y="730" type="line"/>
      <point x="882" y="487" type="line"/>
      <point x="882" y="486" type="line"/>
      <point x="279" y="486" type="line"/>
      <point x="279" y="730" type="line"/>
    </contour>
    <contour>
      <point x="882" y="0" type="line"/>
      <point x="628" y="0" type="line"/>
      <point x="628" y="486" type="line"/>
      <point x="629" y="486" type="line"/>
      <point x="882" y="486" type="line"/>
    </contour>
    <contour>
      <point x="628" y="173" type="line"/>
      <point x="279" y="173" type="line"/>
      <point x="279" y="417" type="line"/>
      <point x="628" y="417" type="line"/>
      <point x="628" y="416" type="line"/>
    </contour>
    <contour>
      <point x="426" y="788" type="line"/>
      <point x="280" y="788" type="line"/>
      <point x="280" y="900" type="line"/>
      <point x="426" y="900" type="line"/>
    </contour>
    <contour>
      <point x="674" y="788" type="line"/>
      <point x="528" y="788" type="line"/>
      <point x="528" y="900" type="line"/>
      <point x="674" y="900" type="line"/>
    </contour>
  </outline>
</glyph>
<glyph name="Aring.color2" format="2">
  <advance width="907"/>
  <unicode hex="00C5"/>
  <outline>
    <contour>
      <point x="882" y="0" type="line"/>
      <point x="628" y="0" type="line"/>
      <point x="628" y="486" type="line"/>
      <point x="629" y="486" type="line"/>
      <point x="882" y="486" type="line"/>
    </contour>
  </outline>
</glyph>
<glyph name="Aring.color5" format="2">
  <advance width="907"/>
  <unicode hex="00C5"/>
  <outline>
    <contour>
      <point x="574" y="948" type="line"/>
      <point x="634" y="864" type="line"/>
      <point x="634" y="864" type="line"/>
      <point x="404" y="864" type="line"/>
      <point x="404" y="948" type="line"/>
    </contour>
  </outline>
</glyph>
<glyph name="Aring" format="2">
  <advance width="907"/>
  <unicode hex="00C5"/>
  <anchor x="452" y="0" name="bottom"/>
  <anchor x="476" y="730" name="top"/>
  <outline>
    <contour>
      <point x="25" y="523" type="line"/>
      <point x="278" y="730" type="line"/>
      <point x="279" y="730" type="line"/>
      <point x="279" y="0" type="line"/>
      <point x="25" y="0" type="line"/>
    </contour>
    <contour>
      <point x="680" y="730" type="line"/>
      <point x="882" y="487" type="line"/>
      <point x="882" y="486" type="line"/>
      <point x="279" y="486" type="line"/>
      <point x="279" y="730" type="line"/>
    </contour>
    <contour>
      <point x="882" y="0" type="line"/>
      <point x="628" y="0" type="line"/>
      <point x="628" y="486" type="line"/>
      <point x="629" y="486" type="line"/>
      <point x="882" y="486" type="line"/>
    </contour>
    <contour>
      <point x="628" y="173" type="line"/>
      <point x="279" y="173" type="line"/>
      <point x="279" y="417" type="line"/>
      <point x="628" y="417" type="line"/>
      <point x="628" y="416" type="line"/>
    </contour>
    <contour>
      <point x="308" y="886" type="line"/>
      <point x="404" y="948" type="line"/>
      <point x="404" y="948" type="line"/>
      <point x="404" y="812" type="line"/>
      <point x="308" y="812" type="line"/>
    </contour>
    <contour>
      <point x="574" y="948" type="line"/>
      <point x="634" y="864" type="line"/>
      <point x="634" y="864" type="line"/>
      <point x="404" y="864" type="line"/>
      <point x="404" y="948" type="line"/>
    </contour>
    <contour>
      <point x="634" y="786" type="line"/>
      <point x="538" y="730" type="line"/>
      <point x="538" y="730" type="line"/>
      <point x="538" y="864" type="line"/>
      <point x="634" y="864" type="line"/>
    </contour>
    <contour>
      <point x="368" y="730" type="line"/>
      <point x="308" y="812" type="line"/>
      <point x="308" y="812" type="line"/>
      <point x="538" y="812" type="line"/>
      <point x="538" y="730" type="line"/>
    </contour>
  </outline>
</glyph>
<glyph name="AE.color0" format="2">
  <advance width="1391"/>
  <unicode hex="00C6"/>
  <outline>
    <contour>
      <point x="651" y="173" type="line"/>
      <point x="279" y="173" type="line"/>
      <point x="279" y="417" type="line"/>
      <point x="588" y="417" type="line"/>
    </contour>
  </outline>
</glyph>
<glyph name="AE" format="2">
  <advance width="1391"/>
  <unicode hex="00C6"/>
  <anchor x="476" y="730" name="top"/>
  <outline>
    <contour>
      <point x="651" y="173" type="line"/>
      <point x="279" y="173" type="line"/>
      <point x="279" y="417" type="line"/>
      <point x="588" y="417" type="line"/>
    </contour>
    <contour>
      <point x="279" y="0" type="line"/>
      <point x="25" y="0" type="line"/>
      <point x="25" y="523" type="line"/>
      <point x="278" y="730" type="line"/>
      <point x="279" y="730" type="line"/>
    </contour>
    <contour>
      <point x="1366" y="730" type="line"/>
      <point x="1366" y="729" type="line"/>
      <point x="1164" y="486" type="line"/>
      <point x="842" y="486" type="line"/>
      <point x="640" y="730" type="line"/>
    </contour>
    <contour>
      <point x="1202" y="263" type="line"/>
      <point x="842" y="263" type="line"/>
      <point x="842" y="467" type="line"/>
      <point x="1202" y="467" type="line"/>
    </contour>
    <contour>
      <point x="1315" y="244" type="line"/>
      <point x="1315" y="0" type="line"/>
      <point x="790" y="0" type="line"/>
      <point x="588" y="243" type="line"/>
      <point x="588" y="244" type="line"/>
    </contour>
    <contour>
      <point x="842" y="244" type="line"/>
      <point x="588" y="244" type="line"/>
      <point x="588" y="486" type="line"/>
      <point x="842" y="486" type="line"/>
    </contour>
    <contour>
      <point x="640" y="730" type="line"/>
      <point x="842" y="487" type="line"/>
      <point x="842" y="486" type="line"/>
      <point x="279" y="486" type="line"/>
      <point x="279" y="730" type="line"/>
    </contour>
  </outline>
</glyph>
<glyph name="Ccedilla.color2" format="2">
  <advance width="927"/>
  <unicode hex="00C7"/>
  <outline>
    <contour>
      <point x="227" y="0" type="line"/>
      <point x="25" y="243" type="line"/>
      <point x="25" y="244" type="line"/>
      <point x="902" y="244" type="line"/>
      <point x="700" y="0" type="line"/>
    </contour>
  </outline>
</glyph>
<glyph name="Ccedilla.color3" format="2">
  <advance width="927"/>
  <unicode hex="00C7"/>
  <outline>
    <contour>
      <point x="345" y="-260" type="line"/>
      <point x="285" y="-169" type="line"/>
      <point x="285" y="-168" type="line"/>
      <point x="503" y="-168" type="line"/>
      <point x="503" y="-260" type="line"/>
    </contour>
  </outline>
</glyph>
<glyph name="Ccedilla.color6" format="2">
  <advance width="927"/>
  <unicode hex="00C7"/>
  <outline>
    <contour>
      <point x="345" y="-126" type="line"/>
      <point x="345" y="-125" type="line"/>
      <point x="422" y="0" type="line"/>
      <point x="527" y="0" type="line"/>
      <point x="527" y="-1" type="line"/>
      <point x="461" y="-126" type="line"/>
    </contour>
  </outline>
</glyph>
<glyph name="Egrave.color1" format="2">
  <advance width="832"/>
  <unicode hex="00C8"/>
  <outline>
    <contour>
      <point x="640" y="486" type="line"/>
      <point x="279" y="486" type="line"/>
      <point x="279" y="730" type="line"/>
      <point x="842" y="730" type="line"/>
      <point x="842" y="729" type="line"/>
    </contour>
  </outline>
</glyph>
<glyph name="Egrave.color4" format="2">
  <advance width="832"/>
  <unicode hex="00C8"/>
  <outline>
    <contour>
      <point x="514" y="760" type="line"/>
      <point x="388" y="760" type="line"/>
      <point x="273" y="899" type="line"/>
      <point x="273" y="900" type="line"/>
      <point x="479" y="900" type="line"/>
    </contour>
  </outline>
</glyph>
<glyph name="Egrave" format="2">
  <advance width="832"/>
  <unicode hex="00C8"/>
  <anchor x="432" y="0" name="bottom"/>
  <anchor x="446" y="730" name="top"/>
  <outline>
    <contour>
      <point x="25" y="730" type="line"/>
      <point x="279" y="730" type="line"/>
      <point x="279" y="244" type="line"/>
      <point x="25" y="244" type="line"/>
    </contour>
    <contour>
      <point x="640" y="486" type="line"/>
      <point x="279" y="486" type="line"/>
      <point x="279" y="730" type="line"/>
      <point x="842" y="730" type="line"/>
      <point x="842" y="729" type="line"/>
    </contour>
    <contour>
      <point x="688" y="263" type="line"/>
      <point x="279" y="263" type="line"/>
      <point x="279" y="467" type="line"/>
      <point x="688" y="467" type="line"/>
    </contour>
    <contour>
      <point x="791" y="0" type="line"/>
      <point x="227" y="0" type="line"/>
      <point x="25" y="243" type="line"/>
      <point x="25" y="244" type="line"/>
      <point x="791" y="244" type="line"/>
    </contour>
    <contour>
      <point x="514" y="760" type="line"/>
      <point x="388" y="760" type="line"/>
      <point x="273" y="899" type="line"/>
      <point x="273" y="900" type="line"/>
      <point x="479" y="900" type="line"/>
    </contour>
  </outline>
</glyph>
<glyph name="Ecircumflex.color5" format="2">
  <advance width="832"/>
  <unicode hex="00CA"/>
  <outline>
    <contour>
      <point x="220" y="760" type="line"/>
      <point x="220" y="761" type="line"/>
      <point x="374" y="900" type="line"/>
      <point x="528" y="900" type="line"/>
      <point x="374" y="760" type="line"/>
    </contour>
  </outline>
</glyph>
<glyph name="Ecircumflex" format="2">
  <advance width="832"/>
  <unicode hex="00CA"/>
  <anchor x="432" y="0" name="bottom"/>
  <anchor x="446" y="730" name="top"/>
  <outline>
    <contour>
      <point x="25" y="730" type="line"/>
      <point x="279" y="730" type="line"/>
      <point x="279" y="244" type="line"/>
      <point x="25" y="244" type="line"/>
    </contour>
    <contour>
      <point x="640" y="486" type="line"/>
      <point x="279" y="486" type="line"/>
      <point x="279" y="730" type="line"/>
      <point x="842" y="730" type="line"/>
      <point x="842" y="729" type="line"/>
    </contour>
    <contour>
      <point x="688" y="263" type="line"/>
      <point x="279" y="263" type="line"/>
      <point x="279" y="467" type="line"/>
      <point x="688" y="467" type="line"/>
    </contour>
    <contour>
      <point x="791" y="0" type="line"/>
      <point x="227" y="0" type="line"/>
      <point x="25" y="243" type="line"/>
      <point x="25" y="244" type="line"/>
      <point x="791" y="244" type="line"/>
    </contour>
    <contour>
      <point x="686" y="760" type="line"/>
      <point x="529" y="760" type="line"/>
      <point x="395" y="867" type="line"/>
      <point x="487" y="900" type="line"/>
      <point x="528" y="900" type="line"/>
      <point x="686" y="761" type="line"/>
    </contour>
    <contour>
      <point x="220" y="760" type="line"/>
      <point x="220" y="761" type="line"/>
      <point x="374" y="900" type="line"/>
      <point x="528" y="900" type="line"/>
      <point x="374" y="760" type="line"/>
    </contour>
  </outline>
</glyph>
<glyph name="Edieresis.color4" format="2">
  <advance width="832"/>
  <unicode hex="00CB"/>
  <outline>
    <contour>
      <point x="396" y="788" type="line"/>
      <point x="250" y="788" type="line"/>
      <point x="250" y="900" type="line"/>
      <point x="396" y="900" type="line"/>
    </contour>
  </outline>
</glyph>
<glyph name="Edieresis.color5" format="2">
  <advance width="832"/>
  <unicode hex="00CB"/>
  <outline>
    <contour>
      <point x="644" y="788" type="line"/>
      <point x="498" y="788" type="line"/>
      <point x="498" y="900" type="line"/>
      <point x="644" y="900" type="line"/>
    </contour>
  </outline>
</glyph>
<glyph name="Igrave.color5" format="2">
  <advance width="697"/>
  <unicode hex="00CC"/>
  <outline>
    <contour>
      <point x="439" y="760" type="line"/>
      <point x="313" y="760" type="line"/>
      <point x="198" y="899" type="line"/>
      <point x="198" y="900" type="line"/>
      <point x="404" y="900" type="line"/>
    </contour>
  </outline>
</glyph>
<glyph name="Iacute.color5" format="2">
  <advance width="697"/>
  <unicode hex="00CD"/>
  <outline>
    <contour>
      <point x="288" y="760" type="line"/>
      <point x="323" y="900" type="line"/>
      <point x="529" y="900" type="line"/>
      <point x="529" y="899" type="line"/>
      <point x="414" y="760" type="line"/>
    </contour>
  </outline>
</glyph>
<glyph name="Icircumflex.color5" format="2">
  <advance width="697"/>
  <unicode hex="00CE"/>
  <outline>
    <contour>
      <point x="611" y="760" type="line"/>
      <point x="454" y="760" type="line"/>
      <point x="320" y="867" type="line"/>
      <point x="412" y="900" type="line"/>
      <point x="453" y="900" type="line"/>
      <point x="611" y="761" type="line"/>
    </contour>
  </outline>
</glyph>
<glyph name="Idieresis.color1" format="2">
  <advance width="697"/>
  <unicode hex="00CF"/>
  <outline>
    <contour>
      <point x="246" y="486" type="line"/>
      <point x="25" y="486" type="line"/>
      <point x="25" y="730" type="line"/>
      <point x="448" y="730" type="line"/>
    </contour>
  </outline>
</glyph>
<glyph name="Idieresis.color6" format="2">
  <advance width="697"/>
  <unicode hex="00CF"/>
  <outline>
    <contour>
      <point x="569" y="788" type="line"/>
      <point x="423" y="788" type="line"/>
      <point x="423" y="900" type="line"/>
      <point x="569" y="900" type="line"/>
    </contour>
  </outline>
</glyph>
<glyph name="Eth.color0" format="2">
  <advance width="937"/>
  <unicode hex="00D0"/>
  <outline>
    <contour>
      <point x="453" y="269" type="line"/>
      <point x="-141" y="269" type="line"/>
      <point x="-141" y="453" type="line"/>
      <point x="453" y="453" type="line"/>
      <point x="453" y="452" type="line"/>
    </contour>
  </outline>
</glyph>
<glyph name="Eth.color1" format="2">
  <advance width="937"/>
  <unicode hex="00D0"/>
  <outline>
    <contour>
      <point x="25" y="730" type="line"/>
      <point x="278" y="730" type="line"/>
      <point x="279" y="730" type="line"/>
      <point x="279" y="240" type="line"/>
      <point x="25" y="240" type="line"/>
    </contour>
  </outline>
</glyph>
<glyph name="Eth.color2" format="2">
  <advance width="937"/>
  <unicode hex="00D0"/>
  <outline>
    <contour>
      <point x="710" y="730" type="line"/>
      <point x="912" y="487" type="line"/>
      <point x="912" y="486" type="line"/>
      <point x="279" y="486" type="line"/>
      <point x="279" y="730" type="line"/>
    </contour>
  </outline>
</glyph>
<glyph name="Eth.color3" format="2">
  <advance width="937"/>
  <unicode hex="00D0"/>
  <outline>
    <contour>
      <point x="912" y="193" type="line"/>
      <point x="659" y="-4" type="line"/>
      <point x="658" y="-4" type="line"/>
      <point x="658" y="486" type="line"/>
      <point x="912" y="486" type="line"/>
    </contour>
  </outline>
</glyph>
<glyph name="Eth.color4" format="2">
  <advance width="937"/>
  <unicode hex="00D0"/>
  <outline>
    <contour>
      <point x="25" y="-4" type="line"/>
      <point x="25" y="239" type="line"/>
      <point x="25" y="240" type="line"/>
      <point x="658" y="240" type="line"/>
      <point x="658" y="-4" type="line"/>
    </contour>
  </outline>
</glyph>
<glyph name="Ntilde.color3" format="2">
  <advance width="877"/>
  <unicode hex="00D1"/>
  <outline>
    <contour>
      <point x="208" y="782" type="line"/>
      <point x="208" y="873" type="line"/>
      <point x="328" y="864" type="line"/>
      <point x="328" y="782" type="line"/>
    </contour>
  </outline>
</glyph>
<glyph name="Ntilde" format="2">
  <advance width="877"/>
  <unicode hex="00D1"/>
  <anchor x="435" y="0" name="bottom"/>
  <anchor x="446" y="730" name="top"/>
  <outline>
    <contour>
      <point x="25" y="0" type="line"/>
      <point x="25" y="571" type="line"/>
      <point x="279" y="345" type="line"/>
      <point x="279" y="0" type="line"/>
    </contour>
    <contour>
      <point x="852" y="730" type="line"/>
      <point x="852" y="172" type="line"/>
      <point x="598" y="397" type="line"/>
      <point x="598" y="730" type="line"/>
    </contour>
    <contour>
      <point x="25" y="571" type="line"/>
      <point x="25" y="572" type="line"/>
      <point x="217" y="736" type="line"/>
      <point x="218" y="736" type="line"/>
      <point x="852" y="172" type="line"/>
      <point x="852" y="171" type="line"/>
      <point x="673" y="-6" type="line"/>
      <point x="672" y="-6" type="line"/>
    </contour>
    <contour>
      <point x="208" y="782" type="line"/>
      <point x="208" y="873" type="line"/>
      <point x="328" y="864" type="line"/>
      <point x="328" y="782" type="line"/>
    </contour>
    <contour>
      <point x="676" y="900" type="line"/>
      <point x="676" y="821" type="line"/>
      <point x="557" y="801" type="line"/>
      <point x="557" y="900" type="line"/>
    </contour>
    <contour>
      <point x="208" y="873" type="line"/>
      <point x="208" y="883" type="line"/>
      <point x="336" y="923" type="line"/>
      <point x="357" y="923" type="line"/>
      <point x="676" y="821" type="line"/>
      <point x="676" y="811" type="line"/>
      <point x="548" y="771" type="line"/>
      <point x="527" y="771" type="line"/>
    </contour>
  </outline>
</glyph>
<glyph name="Ocircumflex.color4" format="2">
  <advance width="907"/>
  <unicode hex="00D4"/>
  <outline>
    <contour>
      <point x="716" y="760" type="line"/>
      <point x="559" y="760" type="line"/>
      <point x="425" y="867" type="line"/>
      <point x="517" y="900" type="line"/>
      <point x="558" y="900" type="line"/>
      <point x="716" y="761" type="line"/>
    </contour>
  </outline>
</glyph>
<glyph name="Otilde.color4" format="2">
  <advance width="907"/>
  <unicode hex="00D5"/>
  <outline>
    <contour>
      <point x="238" y="782" type="line"/>
      <point x="238" y="873" type="line"/>
      <point x="358" y="864" type="line"/>
      <point x="358" y="782" type="line"/>
    </contour>
  </outline>
</glyph>
<glyph name="Otilde.color5" format="2">
  <advance width="907"/>
  <unicode hex="00D5"/>
  <outline>
    <contour>
      <point x="706" y="900" type="line"/>
      <point x="706" y="821" type="line"/>
      <point x="587" y="801" type="line"/>
      <point x="587" y="900" type="line"/>
    </contour>
  </outline>
</glyph>
<glyph name="Otilde" format="2">
  <advance width="907"/>
  <unicode hex="00D5"/>
  <anchor x="452" y="0" name="bottom"/>
  <anchor x="680" y="730" name="horn"/>
  <anchor x="476" y="730" name="top"/>
  <outline>
    <contour>
      <point x="25" y="523" type="line"/>
      <point x="278" y="730" type="line"/>
      <point x="279" y="730" type="line"/>
      <point x="279" y="244" type="line"/>
      <point x="25" y="244" type="line"/>
    </contour>
    <contour>
      <point x="680" y="730" type="line"/>
      <point x="882" y="487" type="line"/>
      <point x="882" y="486" type="line"/>
      <point x="279" y="486" type="line"/>
      <point x="279" y="730" type="line"/>
    </contour>
    <contour>
      <point x="882" y="197" type="line"/>
      <point x="629" y="0" type="line"/>
      <point x="628" y="0" type="line"/>
      <point x="628" y="486" type="line"/>
      <point x="882" y="486" type="line"/>
    </contour>
    <contour>
      <point x="227" y="0" type="line"/>
      <point x="25" y="243" type="line"/>
      <point x="25" y="244" type="line"/>
      <point x="628" y="244" type="line"/>
      <point x="628" y="0" type="line"/>
    </contour>
    <contour>
      <point x="238" y="782" type="line"/>
      <point x="238" y="873" type="line"/>
      <point x="358" y="864" type="line"/>
      <point x="358" y="782" type="line"/>
    </contour>
    <contour>
      <point x="706" y="900" type="line"/>
      <point x="706" y="821" type="line"/>
      <point x="587" y="801" type="line"/>
      <point x="587" y="900" type="line"/>
    </contour>
    <contour>
      <point x="238" y="873" type="line"/>
      <point x="238" y="883" type="line"/>
      <point x="366" y="923" type="line"/>
      <point x="387" y="923" type="line"/>
      <point x="706" y="821" type="line"/>
      <point x="706" y="811" type="line"/>
      <point x="578" y="771" type="line"/>
      <point x="557" y="771" type="line"/>
    </contour>
  </outline>
</glyph>
<glyph name="multiply.color1" format="2">
  <advance width="790"/>
  <unicode hex="00D7"/>
  <outline>
    <contour>
      <point x="262" y="116" type="line"/>
      <point x="25" y="116" type="line"/>
      <point x="25" y="120" type="line"/>
      <point x="276" y="367" type="line"/>
      <point x="524" y="367" type="line"/>
      <point x="524" y="366" type="line"/>
    </contour>
  </outline>
</glyph>
<glyph name="multiply" format="2">
  <advance width="790"/>
  <unicode hex="00D7"/>
  <outline>
    <contour>
      <point x="262" y="626" type="line"/>
      <point x="524" y="368" type="line"/>
      <point x="524" y="367" type="line"/>
      <point x="276" y="367" type="line"/>
      <point x="25" y="625" type="line"/>
      <point x="25" y="626" type="line"/>
    </contour>
    <contour>
      <point x="262" y="116" type="line"/>
      <point x="25" y="116" type="line"/>
      <point x="25" y="120" type="line"/>
      <point x="276" y="367" type="line"/>
      <point x="524" y="367" type="line"/>
      <point x="524" y="366" type="line"/>
    </contour>
    <contour>
      <point x="528" y="626" type="line"/>
      <point x="765" y="626" type="line"/>
      <point x="765" y="625" type="line"/>
      <point x="524" y="367" type="line"/>
      <point x="276" y="367" type="line"/>
      <point x="276" y="368" type="line"/>
    </contour>
    <contour>
      <point x="528" y="116" type="line"/>
      <point x="276" y="366" type="line"/>
      <point x="276" y="367" type="line"/>
      <point x="524" y="367" type="line"/>
      <point x="765" y="120" type="line"/>
      <point x="765" y="116" type="line"/>
    </contour>
  </outline>
</glyph>
<glyph name="Ugrave.color3" format="2">
  <advance width="897"/>
  <unicode hex="00D9"/>
  <outline>
    <contour>
      <point x="534" y="760" type="line"/>
      <point x="408" y="760" type="line"/>
      <point x="293" y="899" type="line"/>
      <point x="293" y="900" type="line"/>
      <point x="499" y="900" type="line"/>
    </contour>
  </outline>
</glyph>
<glyph name="Uacute.color3" format="2">
  <advance width="897"/>
  <unicode hex="00DA"/>
  <outline>
    <contour>
      <point x="383" y="760" type="line"/>
      <point x="418" y="900" type="line"/>
      <point x="624" y="900" type="line"/>
      <point x="624" y="899" type="line"/>
      <point x="509" y="760" type="line"/>
    </contour>
  </outline>
</glyph>
<glyph name="Ucircumflex.color3" format="2">
  <advance width="897"/>
  <unicode hex="00DB"/>
  <outline>
    <contour>
      <point x="706" y="760" type="line"/>
      <point x="549" y="760" type="line"/>
      <point x="415" y="867" type="line"/>
      <point x="507" y="900" type="line"/>
      <point x="548" y="900" type="line"/>
      <point x="706" y="761" type="line"/>
    </contour>
  </outline>
</glyph>
<glyph name="Ucircumflex.color4" format="2">
  <advance width="897"/>
  <unicode hex="00DB"/>
  <outline>
    <contour>
      <point x="240" y="760" type="line"/>
      <point x="240" y="761" type="line"/>
      <point x="394" y="900" type="line"/>
      <point x="548" y="900" type="line"/>
      <point x="394" y="760" type="line"/>
    </contour>
  </outline>
</glyph>
<glyph name="Ucircumflex" format="2">
  <advance width="897"/>
  <unicode hex="00DB"/>
  <anchor x="432" y="0" name="bottom"/>
  <anchor x="872" y="730" name="horn"/>
  <anchor x="466" y="730" name="top"/>
  <outline>
    <contour>
      <point x="872" y="207" type="line"/>
      <point x="619" y="0" type="line"/>
      <point x="618" y="0" type="line"/>
      <point x="618" y="730" type="line"/>
      <point x="872" y="730" type="line"/>
    </contour>
    <contour>
      <point x="227" y="0" type="line"/>
      <point x="25" y="243" type="line"/>
      <point x="25" y="244" type="line"/>
      <point x="618" y="244" type="line"/>
      <point x="618" y="0" type="line"/>
    </contour>
    <contour>
      <point x="25" y="730" type="line"/>
      <point x="279" y="730" type="line"/>
      <point x="279" y="244" type="line"/>
      <point x="278" y="244" type="line"/>
      <point x="25" y="244" type="line"/>
    </contour>
    <contour>
      <point x="706" y="760" type="line"/>
      <point x="549" y="760" type="line"/>
      <point x="415" y="867" type="line"/>
      <point x="507" y="900" type="line"/>
      <point x="548" y="900" type="line"/>
      <point x="706" y="761" type="line"/>
    </contour>
    <contour>
      <point x="240" y="760" type="line"/>
      <point x="240" y="761" type="line"/>
      <point x="394" y="900" type="line"/>
      <point x="548" y="900" type="line"/>
      <point x="394" y="760" type="line"/>
    </contour>
  </outline>
</glyph>
<glyph name="Udieresis.color2" format="2">
  <advance width="897"/>
  <unicode hex="00DC"/>
  <outline>
    <contour>
      <point x="25" y="730" type="line"/>
      <point x="279" y="730" type="line"/>
      <point x="279" y="244" type="line"/>
      <point x="278" y="244" type="line"/>
      <point x="25" y="244" type="line"/>
    </contour>
  </outline>
</glyph>
<glyph name="Udieresis.color3" format="2">
  <advance width="897"/>
  <unicode hex="00DC"/>
  <outline>
    <contour>
      <point x="416" y="788" type="line"/>
      <point x="270" y="788" type="line"/>
      <point x="270" y="900" type="line"/>
      <point x="416" y="900" type="line"/>
    </contour>
  </outline>
</glyph>
<glyph name="Udieresis" format="2">
  <advance width="897"/>
  <unicode hex="00DC"/>
  <anchor x="432" y="0" name="bottom"/>
  <anchor x="872" y="730" name="horn"/>
  <anchor x="466" y="730" name="top"/>
  <outline>
    <contour>
      <point x="872" y="207" type="line"/>
      <point x="619" y="0" type="line"/>
      <point x="618" y="0" type="line"/>
      <point x="618" y="730" type="line"/>
      <point x="872" y="730" type="line"/>
    </contour>
    <contour>
      <point x="227" y="0" type="line"/>
      <point x="25" y="243" type="line"/>
      <point x="25" y="244" type="line"/>
      <point x="618" y="244" type="line"/>
      <point x="618" y="0" type="line"/>
    </contour>
    <contour>
      <point x="25" y="730" type="line"/>
      <point x="279" y="730" type="line"/>
      <point x="279" y="244" type="line"/>
      <point x="278" y="244" type="line"/>
      <point x="25" y="244" type="line"/>
    </contour>
    <contour>
      <point x="416" y="788" type="line"/>
      <point x="270" y="788" type="line"/>
      <point x="270" y="900" type="line"/>
      <point x="416" y="900" type="line"/>
    </contour>
    <contour>
      <point x="664" y="788" type="line"/>
      <point x="518" y="788" type="line"/>
      <point x="518" y="900" type="line"/>
      <point x="664" y="900" type="line"/>
    </contour>
  </outline>
</glyph>
<glyph name="Yacute.color3" format="2">
  <advance width="830"/>
  <unicode hex="00DD"/>
  <outline>
    <contour>
      <point x="355" y="760" type="line"/>
      <point x="390" y="900" type="line"/>
      <point x="596" y="900" type="line"/>
      <point x="596" y="899" type="line"/>
      <point x="481" y="760" type="line"/>
    </contour>
  </outline>
</glyph>
<glyph name="Yacute" format="2">
  <advance width="830"/>
  <unicode hex="00DD"/>
  <anchor x="412" y="0" name="bottom"/>
  <anchor x="438" y="730" name="top"/>
  <outline>
    <contour>
      <point x="25" y="730" type="line"/>
      <point x="288" y="730" type="line"/>
      <point x="431" y="467" type="line"/>
      <point x="284" y="285" type="line"/>
      <point x="283" y="285" type="line"/>
    </contour>
    <contour>
      <point x="805" y="730" type="line"/>
      <point x="547" y="285" type="line"/>
      <point x="284" y="285" type="line"/>
      <point x="541" y="730" type="line"/>
    </contour>
    <contour>
      <point x="547" y="0" type="line"/>
      <point x="283" y="0" type="line"/>
      <point x="283" y="285" type="line"/>
      <point x="547" y="285" type="line"/>
    </contour>
    <contour>
      <point x="355" y="760" type="line"/>
      <point x="390" y="900" type="line"/>
      <point x="596" y="900" type="line"/>
      <point x="596" y="899" type="line"/>
      <point x="481" y="760" type="line"/>
    </contour>
  </outline>
</glyph>
<glyph name="Thorn.color1" format="2">
  <advance width="600"/>
  <unicode hex="00DE"/>
  <outline>
    <contour>
      <point x="680" y="650" type="line"/>
      <point x="882" y="407" type="line"/>
      <point x="882" y="406" type="line"/>
      <point x="279" y="406" type="line"/>
      <point x="279" y="650" type="line"/>
    </contour>
  </outline>
</glyph>
<glyph name="Thorn.color3" format="2">
  <advance width="907"/>
  <unicode hex="00DE"/>
  <outline>
    <contour>
      <point x="279" y="93" type="line"/>
      <point x="279" y="337" type="line"/>
      <point x="628" y="337" type="line"/>
      <point x="628" y="336" type="line"/>
      <point x="628" y="93" type="line"/>
    </contour>
  </outline>
</glyph>
<glyph name="germandbls.color0" format="2">
  <advance width="600"/>
  <unicode hex="00DF"/>
  <outline>
    <contour>
      <point x="414" y="800" type="line"/>
      <point x="414" y="556" type="line"/>
      <point x="279" y="556" type="line"/>
      <point x="279" y="800" type="line"/>
    </contour>
  </outline>
</glyph>
<glyph name="germandbls.color2" format="2">
  <advance width="967"/>
  <unicode hex="00DF"/>
  <outline>
    <contour>
      <point x="688" y="263" type="line"/>
      <point x="527" y="263" type="line"/>
      <point x="414" y="506" type="line"/>
      <point x="414" y="507" type="line"/>
      <point x="688" y="507" type="line"/>
    </contour>
  </outline>
</glyph>
<glyph name="germandbls.color3" format="2">
  <advance width="967"/>
  <unicode hex="00DF"/>
  <outline>
    <contour>
      <point x="942" y="193" type="line"/>
      <point x="689" y="0" type="line"/>
      <point x="688" y="0" type="line"/>
      <point x="688" y="507" type="line"/>
      <point x="689" y="507" type="line"/>
      <point x="942" y="314" type="line"/>
    </contour>
  </outline>
</glyph>
<glyph name="germandbls.color4" format="2">
  <advance width="967"/>
  <unicode hex="00DF"/>
  <outline>
    <contour>
      <point x="25" y="693" type="line"/>
      <point x="278" y="800" type="line"/>
      <point x="279" y="800" type="line"/>
      <point x="279" y="-200" type="line"/>
      <point x="25" y="-200" type="line"/>
    </contour>
  </outline>
</glyph>
<glyph name="germandbls.color5" format="2">
  <advance width="600"/>
  <unicode hex="00DF"/>
  <outline>
    <contour>
      <point x="688" y="0" type="line"/>
      <point x="333" y="0" type="line"/>
      <point x="415" y="244" type="line"/>
      <point x="688" y="244" type="line"/>
    </contour>
  </outline>
</glyph>
<glyph name="germandbls" format="2">
  <advance width="967"/>
  <unicode hex="00DF"/>
  <outline>
    <contour>
      <point x="414" y="800" type="line"/>
      <point x="414" y="556" type="line"/>
      <point x="279" y="556" type="line"/>
      <point x="279" y="800" type="line"/>
    </contour>
    <contour>
      <point x="688" y="416" type="line"/>
      <point x="414" y="507" type="line"/>
      <point x="414" y="800" type="line"/>
      <point x="415" y="800" type="line"/>
      <point x="688" y="603" type="line"/>
    </contour>
    <contour>
      <point x="688" y="263" type="line"/>
      <point x="527" y="263" type="line"/>
      <point x="414" y="506" type="line"/>
      <point x="414" y="507" type="line"/>
      <point x="688" y="507" type="line"/>
    </contour>
    <contour>
      <point x="942" y="193" type="line"/>
      <point x="689" y="0" type="line"/>
      <point x="688" y="0" type="line"/>
      <point x="688" y="507" type="line"/>
      <point x="689" y="507" type="line"/>
      <point x="942" y="314" type="line"/>
    </contour>
    <contour>
      <point x="25" y="693" type="line"/>
      <point x="278" y="800" type="line"/>
      <point x="279" y="800" type="line"/>
      <point x="279" y="-200" type="line"/>
      <point x="25" y="-200" type="line"/>
    </contour>
    <contour>
      <point x="688" y="0" type="line"/>
      <point x="333" y="0" type="line"/>
      <point x="415" y="244" type="line"/>
      <point x="688" y="244" type="line"/>
    </contour>
  </outline>
</glyph>
<glyph name="agrave.color4" format="2">
  <advance width="827"/>
  <unicode hex="00E0"/>
  <outline>
    <contour>
      <point x="489" y="590" type="line"/>
      <point x="393" y="590" type="line"/>
      <point x="278" y="819" type="line"/>
      <point x="278" y="820" type="line"/>
      <point x="454" y="820" type="line"/>
    </contour>
  </outline>
</glyph>
<glyph name="acircumflex.color4" format="2">
  <advance width="827"/>
  <unicode hex="00E2"/>
  <outline>
    <contour>
      <point x="652" y="592" type="line"/>
      <point x="495" y="592" type="line"/>
      <point x="391" y="739" type="line"/>
      <point x="473" y="770" type="line"/>
      <point x="514" y="770" type="line"/>
    </contour>
  </outline>
</glyph>
<glyph name="atilde.color4" format="2">
  <advance width="827"/>
  <unicode hex="00E3"/>
  <outline>
    <contour>
      <point x="239" y="641" type="line"/>
      <point x="239" y="762" type="line"/>
      <point x="359" y="743" type="line"/>
      <point x="359" y="641" type="line"/>
    </contour>
  </outline>
</glyph>
<glyph name="atilde.color5" format="2">
  <advance width="827"/>
  <unicode hex="00E3"/>
  <outline>
    <contour>
      <point x="637" y="789" type="line"/>
      <point x="637" y="670" type="line"/>
      <point x="518" y="680" type="line"/>
      <point x="518" y="789" type="line"/>
    </contour>
  </outline>
</glyph>
<glyph name="atilde.color6" format="2">
  <advance width="827"/>
  <unicode hex="00E3"/>
  <outline>
    <contour>
      <point x="239" y="762" type="line"/>
      <point x="239" y="762" type="line"/>
      <point x="368" y="802" type="line"/>
      <point x="369" y="802" type="line"/>
      <point x="637" y="670" type="line"/>
      <point x="637" y="670" type="line"/>
      <point x="509" y="630" type="line"/>
      <point x="508" y="630" type="line"/>
    </contour>
  </outline>
</glyph>
<glyph name="aring.color4" format="2">
  <advance width="827"/>
  <unicode hex="00E5"/>
  <outline>
    <contour>
      <point x="284" y="758" type="line"/>
      <point x="380" y="820" type="line"/>
      <point x="380" y="820" type="line"/>
      <point x="380" y="684" type="line"/>
      <point x="284" y="684" type="line"/>
    </contour>
  </outline>
</glyph>
<glyph name="aring.color6" format="2">
  <advance width="827"/>
  <unicode hex="00E5"/>
  <outline>
    <contour>
      <point x="610" y="658" type="line"/>
      <point x="514" y="602" type="line"/>
      <point x="514" y="602" type="line"/>
      <point x="514" y="736" type="line"/>
      <point x="610" y="736" type="line"/>
    </contour>
  </outline>
</glyph>
<glyph name="ccedilla.color3" format="2">
  <advance width="777"/>
  <unicode hex="00E7"/>
  <outline>
    <contour>
      <point x="268" y="-260" type="line"/>
      <point x="208" y="-169" type="line"/>
      <point x="208" y="-168" type="line"/>
      <point x="426" y="-168" type="line"/>
      <point x="426" y="-260" type="line"/>
    </contour>
  </outline>
</glyph>
<glyph name="ccedilla.color4" format="2">
  <advance width="777"/>
  <unicode hex="00E7"/>
  <outline>
    <contour>
      <point x="534" y="-204" type="line"/>
      <point x="427" y="-260" type="line"/>
      <point x="426" y="-260" type="line"/>
      <point x="426" y="-126" type="line"/>
      <point x="534" y="-126" type="line"/>
    </contour>
  </outline>
</glyph>
<glyph name="ccedilla.color5" format="2">
  <advance width="777"/>
  <unicode hex="00E7"/>
  <outline>
    <contour>
      <point x="464" y="-32" type="line"/>
      <point x="534" y="-125" type="line"/>
      <point x="534" y="-126" type="line"/>
      <point x="384" y="-126" type="line"/>
      <point x="430" y="-32" type="line"/>
    </contour>
  </outline>
</glyph>
<glyph name="ccedilla.color6" format="2">
  <advance width="777"/>
  <unicode hex="00E7"/>
  <outline>
    <contour>
      <point x="268" y="-126" type="line"/>
      <point x="268" y="-125" type="line"/>
      <point x="345" y="0" type="line"/>
      <point x="450" y="0" type="line"/>
      <point x="450" y="-1" type="line"/>
      <point x="384" y="-126" type="line"/>
    </contour>
  </outline>
</glyph>
<glyph name="ccedilla" format="2">
  <advance width="777"/>
  <unicode hex="00E7"/>
  <anchor x="405" y="0" name="bottom"/>
  <anchor x="422" y="530" name="top"/>
  <outline>
    <contour>
      <point x="35" y="423" type="line"/>
      <point x="248" y="530" type="line"/>
      <point x="249" y="530" type="line"/>
      <point x="249" y="200" type="line"/>
      <point x="35" y="200" type="line"/>
    </contour>
    <contour>
      <point x="635" y="530" type="line"/>
      <point x="742" y="352" type="line"/>
      <point x="742" y="351" type="line"/>
      <point x="249" y="351" type="line"/>
      <point x="249" y="530" type="line"/>
    </contour>
    <contour>
      <point x="142" y="0" type="line"/>
      <point x="35" y="199" type="line"/>
      <point x="35" y="200" type="line"/>
      <point x="742" y="200" type="line"/>
      <point x="742" y="199" type="line"/>
      <point x="635" y="0" type="line"/>
    </contour>
    <contour>
      <point x="268" y="-260" type="line"/>
      <point x="208" y="-169" type="line"/>
      <point x="208" y="-168" type="line"/>
      <point x="426" y="-168" type="line"/>
      <point x="426" y="-260" type="line"/>
    </contour>
    <contour>
      <point x="534" y="-204" type="line"/>
      <point x="427" y="-260" type="line"/>
      <point x="426" y="-260" type="line"/>
      <point x="426" y="-126" type="line"/>
      <point x="534" y="-126" type="line"/>
    </contour>
    <contour>
      <point x="464" y="-32" type="line"/>
      <point x="534" y="-125" type="line"/>
      <point x="534" y="-126" type="line"/>
      <point x="384" y="-126" type="line"/>
      <point x="430" y="-32" type="line"/>
    </contour>
    <contour>
      <point x="268" y="-126" type="line"/>
      <point x="268" y="-125" type="line"/>
      <point x="345" y="0" type="line"/>
      <point x="450" y="0" type="line"/>
      <point x="450" y="-1" type="line"/>
      <point x="384" y="-126" type="line"/>
    </contour>
  </outline>
</glyph>
<glyph name="egrave.color5" format="2">
  <advance width="837"/>
  <unicode hex="00E8"/>
  <outline>
    <contour>
      <point x="469" y="590" type="line"/>
      <point x="373" y="590" type="line"/>
      <point x="258" y="819" type="line"/>
      <point x="258" y="820" type="line"/>
      <point x="434" y="820" type="line"/>
    </contour>
  </outline>
</glyph>
<glyph name="eacute.color1" format="2">
  <advance width="837"/>
  <unicode hex="00E9"/>
  <outline>
    <contour>
      <point x="695" y="530" type="line"/>
      <point x="802" y="352" type="line"/>
      <point x="802" y="351" type="line"/>
      <point x="249" y="351" type="line"/>
      <point x="249" y="530" type="line"/>
    </contour>
  </outline>
</glyph>
<glyph name="eacute.color5" format="2">
  <advance width="837"/>
  <unicode hex="00E9"/>
  <outline>
    <contour>
      <point x="349" y="590" type="line"/>
      <point x="384" y="820" type="line"/>
      <point x="560" y="820" type="line"/>
      <point x="560" y="819" type="line"/>
      <point x="445" y="590" type="line"/>
    </contour>
  </outline>
</glyph>
<glyph name="eacute" format="2">
  <advance width="837"/>
  <unicode hex="00E9"/>
  <anchor x="421" y="0" name="bottom"/>
  <anchor x="432" y="530" name="top"/>
  <outline>
    <contour>
      <point x="35" y="423" type="line"/>
      <point x="248" y="530" type="line"/>
      <point x="249" y="530" type="line"/>
      <point x="249" y="200" type="line"/>
      <point x="35" y="200" type="line"/>
    </contour>
    <contour>
      <point x="695" y="530" type="line"/>
      <point x="802" y="352" type="line"/>
      <point x="802" y="351" type="line"/>
      <point x="249" y="351" type="line"/>
      <point x="249" y="530" type="line"/>
    </contour>
    <contour>
      <point x="142" y="0" type="line"/>
      <point x="35" y="199" type="line"/>
      <point x="35" y="200" type="line"/>
      <point x="802" y="200" type="line"/>
      <point x="802" y="199" type="line"/>
      <point x="695" y="0" type="line"/>
    </contour>
    <contour>
      <point x="588" y="331" type="line"/>
      <point x="588" y="221" type="line"/>
      <point x="249" y="220" type="line"/>
      <point x="249" y="331" type="line"/>
    </contour>
    <contour>
      <point x="802" y="328" type="line"/>
      <point x="589" y="221" type="line"/>
      <point x="588" y="221" type="line"/>
      <point x="588" y="351" type="line"/>
      <point x="802" y="351" type="line"/>
    </contour>
    <contour>
      <point x="349" y="590" type="line"/>
      <point x="384" y="820" type="line"/>
      <point x="560" y="820" type="line"/>
      <point x="560" y="819" type="line"/>
      <point x="445" y="590" type="line"/>
    </contour>
  </outline>
</glyph>
<glyph name="ecircumflex.color6" format="2">
  <advance width="837"/>
  <unicode hex="00EA"/>
  <outline>
    <contour>
      <point x="206" y="592" type="line"/>
      <point x="350" y="770" type="line"/>
      <point x="494" y="770" type="line"/>
      <point x="360" y="592" type="line"/>
    </contour>
  </outline>
</glyph>
<glyph name="ecircumflex" format="2">
  <advance width="837"/>
  <unicode hex="00EA"/>
  <anchor x="421" y="0" name="bottom"/>
  <anchor x="434" y="750" name="top"/>
  <outline>
    <contour>
      <point x="35" y="423" type="line"/>
      <point x="248" y="530" type="line"/>
      <point x="249" y="530" type="line"/>
      <point x="249" y="200" type="line"/>
      <point x="35" y="200" type="line"/>
    </contour>
    <contour>
      <point x="695" y="530" type="line"/>
      <point x="802" y="352" type="line"/>
      <point x="802" y="351" type="line"/>
      <point x="249" y="351" type="line"/>
      <point x="249" y="530" type="line"/>
    </contour>
    <contour>
      <point x="142" y="0" type="line"/>
      <point x="35" y="199" type="line"/>
      <point x="35" y="200" type="line"/>
      <point x="802" y="200" type="line"/>
      <point x="802" y="199" type="line"/>
      <point x="695" y="0" type="line"/>
    </contour>
    <contour>
      <point x="588" y="331" type="line"/>
      <point x="588" y="221" type="line"/>
      <point x="249" y="220" type="line"/>
      <point x="249" y="331" type="line"/>
    </contour>
    <contour>
      <point x="802" y="328" type="line"/>
      <point x="589" y="221" type="line"/>
      <point x="588" y="221" type="line"/>
      <point x="588" y="351" type="line"/>
      <point x="802" y="351" type="line"/>
    </contour>
    <contour>
      <point x="632" y="592" type="line"/>
      <point x="475" y="592" type="line"/>
      <point x="371" y="739" type="line"/>
      <point x="453" y="770" type="line"/>
      <point x="494" y="770" type="line"/>
    </contour>
    <contour>
      <point x="206" y="592" type="line"/>
      <point x="350" y="770" type="line"/>
      <point x="494" y="770" type="line"/>
      <point x="360" y="592" type="line"/>
    </contour>
  </outline>
</glyph>
<glyph name="edieresis.color5" format="2">
  <advance width="837"/>
  <unicode hex="00EB"/>
  <outline>
    <contour>
      <point x="386" y="640" type="line"/>
      <point x="210" y="640" type="line"/>
      <point x="210" y="772" type="line"/>
      <point x="386" y="772" type="line"/>
    </contour>
  </outline>
</glyph>
<glyph name="edieresis.color6" format="2">
  <advance width="837"/>
  <unicode hex="00EB"/>
  <outline>
    <contour>
      <point x="634" y="640" type="line"/>
      <point x="458" y="640" type="line"/>
      <point x="458" y="772" type="line"/>
      <point x="634" y="772" type="line"/>
    </contour>
  </outline>
</glyph>
<glyph name="igrave.color0" format="2">
  <advance width="284"/>
  <unicode hex="00EC"/>
  <outline>
    <contour>
      <point x="45" y="530" type="line"/>
      <point x="238" y="530" type="line"/>
      <point x="239" y="503" type="line"/>
      <point x="239" y="0" type="line"/>
      <point x="45" y="0" type="line"/>
    </contour>
  </outline>
</glyph>
<glyph name="igrave.color1" format="2">
  <advance width="284"/>
  <unicode hex="00EC"/>
  <outline>
    <contour>
      <point x="186" y="590" type="line"/>
      <point x="90" y="590" type="line"/>
      <point x="-25" y="819" type="line"/>
      <point x="-25" y="820" type="line"/>
      <point x="151" y="820" type="line"/>
    </contour>
  </outline>
</glyph>
<glyph name="iacute.color1" format="2">
  <advance width="284"/>
  <unicode hex="00ED"/>
  <outline>
    <contour>
      <point x="66" y="590" type="line"/>
      <point x="101" y="820" type="line"/>
      <point x="277" y="820" type="line"/>
      <point x="277" y="819" type="line"/>
      <point x="162" y="590" type="line"/>
    </contour>
  </outline>
</glyph>
<glyph name="icircumflex.color1" format="2">
  <advance width="284"/>
  <unicode hex="00EE"/>
  <outline>
    <contour>
      <point x="349" y="592" type="line"/>
      <point x="192" y="592" type="line"/>
      <point x="88" y="739" type="line"/>
      <point x="170" y="770" type="line"/>
      <point x="211" y="770" type="line"/>
    </contour>
  </outline>
</glyph>
<glyph name="icircumflex" format="2">
  <advance width="284"/>
  <unicode hex="00EE"/>
  <anchor x="141" y="0" name="bottom"/>
  <anchor x="151" y="750" name="top"/>
  <outline>
    <contour>
      <point x="45" y="530" type="line"/>
      <point x="238" y="530" type="line"/>
      <point x="239" y="503" type="line"/>
      <point x="239" y="0" type="line"/>
      <point x="45" y="0" type="line"/>
    </contour>
    <contour>
      <point x="349" y="592" type="line"/>
      <point x="192" y="592" type="line"/>
      <point x="88" y="739" type="line"/>
      <point x="170" y="770" type="line"/>
      <point x="211" y="770" type="line"/>
    </contour>
    <contour>
      <point x="-77" y="592" type="line"/>
      <point x="67" y="770" type="line"/>
      <point x="211" y="770" type="line"/>
      <point x="77" y="592" type="line"/>
    </contour>
  </outline>
</glyph>
<glyph name="idieresis.color0" format="2">
  <advance width="300"/>
  <unicode hex="00EF"/>
  <outline>
    <contour>
      <point x="56" y="530" type="line"/>
      <point x="249" y="530" type="line"/>
      <point x="250" y="503" type="line"/>
      <point x="250" y="0" type="line"/>
      <point x="56" y="0" type="line"/>
    </contour>
  </outline>
</glyph>
<glyph name="idieresis.color1" format="2">
  <advance width="600"/>
  <unicode hex="00EF"/>
  <outline>
    <contour>
      <point x="322" y="640" type="line"/>
      <point x="166" y="640" type="line"/>
      <point x="166" y="772" type="line"/>
      <point x="322" y="772" type="line"/>
    </contour>
  </outline>
</glyph>
<glyph name="idieresis" format="2">
  <advance width="300"/>
  <unicode hex="00EF"/>
  <anchor x="152" y="0" name="bottom"/>
  <anchor x="160" y="530" name="top"/>
  <outline>
    <contour>
      <point x="56" y="530" type="line"/>
      <point x="249" y="530" type="line"/>
      <point x="250" y="503" type="line"/>
      <point x="250" y="0" type="line"/>
      <point x="56" y="0" type="line"/>
    </contour>
    <contour>
      <point x="134" y="640" type="line"/>
      <point x="-22" y="640" type="line"/>
      <point x="-22" y="772" type="line"/>
      <point x="134" y="772" type="line"/>
    </contour>
    <contour>
      <point x="322" y="640" type="line"/>
      <point x="166" y="640" type="line"/>
      <point x="166" y="772" type="line"/>
      <point x="322" y="772" type="line"/>
    </contour>
  </outline>
</glyph>
<glyph name="eth.color0" format="2">
  <advance width="600"/>
  <unicode hex="00F0"/>
  <outline>
    <contour>
      <point x="760" y="659" type="line"/>
      <point x="254" y="523" type="line"/>
      <point x="218" y="663" type="line"/>
      <point x="724" y="799" type="line"/>
      <point x="725" y="798" type="line"/>
    </contour>
  </outline>
</glyph>
<glyph name="eth.color4" format="2">
  <advance width="600"/>
  <unicode hex="00F0"/>
  <outline>
    <contour>
      <point x="783" y="107" type="line"/>
      <point x="570" y="0" type="line"/>
      <point x="569" y="0" type="line"/>
      <point x="569" y="326" type="line"/>
      <point x="783" y="326" type="line"/>
    </contour>
  </outline>
</glyph>
<glyph name="ntilde" format="2">
  <advance width="807"/>
  <unicode hex="00F1"/>
  <anchor x="395" y="0" name="bottom"/>
  <anchor x="446" y="530" name="top"/>
  <outline>
    <contour>
      <point x="35" y="423" type="line"/>
      <point x="248" y="530" type="line"/>
      <point x="249" y="530" type="line"/>
      <point x="249" y="0" type="line"/>
      <point x="35" y="0" type="line"/>
    </contour>
    <contour>
      <point x="665" y="530" type="line"/>
      <point x="772" y="327" type="line"/>
      <point x="772" y="326" type="line"/>
      <point x="249" y="326" type="line"/>
      <point x="249" y="530" type="line"/>
    </contour>
    <contour>
      <point x="772" y="41" type="line"/>
      <point x="559" y="-6" type="line"/>
      <point x="558" y="-6" type="line"/>
      <point x="558" y="326" type="line"/>
      <point x="772" y="326" type="line"/>
    </contour>
    <contour>
      <point x="233" y="641" type="line"/>
      <point x="233" y="762" type="line"/>
      <point x="353" y="743" type="line"/>
      <point x="353" y="641" type="line"/>
    </contour>
    <contour>
      <point x="631" y="789" type="line"/>
      <point x="631" y="670" type="line"/>
      <point x="512" y="680" type="line"/>
      <point x="512" y="789" type="line"/>
    </contour>
    <contour>
      <point x="233" y="762" type="line"/>
      <point x="233" y="762" type="line"/>
      <point x="362" y="802" type="line"/>
      <point x="363" y="802" type="line"/>
      <point x="631" y="670" type="line"/>
      <point x="631" y="670" type="line"/>
      <point x="503" y="630" type="line"/>
      <point x="502" y="630" type="line"/>
    </contour>
  </outline>
</glyph>
<glyph name="ograve.color4" format="2">
  <advance width="877"/>
  <unicode hex="00F2"/>
  <outline>
    <contour>
      <point x="499" y="590" type="line"/>
      <point x="403" y="590" type="line"/>
      <point x="288" y="819" type="line"/>
      <point x="288" y="820" type="line"/>
      <point x="464" y="820" type="line"/>
    </contour>
  </outline>
</glyph>
<glyph name="oacute" format="2">
  <advance width="877"/>
  <unicode hex="00F3"/>
  <anchor x="442" y="0" name="bottom"/>
  <anchor x="685" y="530" name="horn"/>
  <anchor x="462" y="530" name="top"/>
  <outline>
    <contour>
      <point x="45" y="423" type="line"/>
      <point x="258" y="530" type="line"/>
      <point x="259" y="530" type="line"/>
      <point x="259" y="204" type="line"/>
      <point x="45" y="204" type="line"/>
    </contour>
    <contour>
      <point x="725" y="530" type="line"/>
      <point x="832" y="327" type="line"/>
      <point x="832" y="326" type="line"/>
      <point x="259" y="326" type="line"/>
      <point x="259" y="530" type="line"/>
    </contour>
    <contour>
      <point x="832" y="107" type="line"/>
      <point x="619" y="0" type="line"/>
      <point x="618" y="0" type="line"/>
      <point x="618" y="326" type="line"/>
      <point x="832" y="326" type="line"/>
    </contour>
    <contour>
      <point x="152" y="0" type="line"/>
      <point x="45" y="203" type="line"/>
      <point x="45" y="204" type="line"/>
      <point x="618" y="204" type="line"/>
      <point x="618" y="0" type="line"/>
    </contour>
    <contour>
      <point x="379" y="590" type="line"/>
      <point x="414" y="820" type="line"/>
      <point x="590" y="820" type="line"/>
      <point x="590" y="819" type="line"/>
      <point x="475" y="590" type="line"/>
    </contour>
  </outline>
</glyph>
<glyph name="ocircumflex.color0" format="2">
  <advance width="877"/>
  <unicode hex="00F4"/>
  <outline>
    <contour>
      <point x="45" y="423" type="line"/>
      <point x="258" y="530" type="line"/>
      <point x="259" y="530" type="line"/>
      <point x="259" y="204" type="line"/>
      <point x="45" y="204" type="line"/>
    </contour>
  </outline>
</glyph>
<glyph name="ocircumflex.color5" format="2">
  <advance width="877"/>
  <unicode hex="00F4"/>
  <outline>
    <contour>
      <point x="236" y="592" type="line"/>
      <point x="380" y="770" type="line"/>
      <point x="524" y="770" type="line"/>
      <point x="390" y="592" type="line"/>
    </contour>
  </outline>
</glyph>
<glyph name="otilde.color5" format="2">
  <advance width="877"/>
  <unicode hex="00F5"/>
  <outline>
    <contour>
      <point x="647" y="789" type="line"/>
      <point x="647" y="670" type="line"/>
      <point x="528" y="680" type="line"/>
      <point x="528" y="789" type="line"/>
    </contour>
  </outline>
</glyph>
<glyph name="odieresis.color5" format="2">
  <advance width="877"/>
  <unicode hex="00F6"/>
  <outline>
    <contour>
      <point x="664" y="640" type="line"/>
      <point x="488" y="640" type="line"/>
      <point x="488" y="772" type="line"/>
      <point x="664" y="772" type="line"/>
    </contour>
  </outline>
</glyph>
<glyph name="divide" format="2">
  <advance width="670"/>
  <unicode hex="00F7"/>
  <outline>
    <contour>
      <point x="645" y="259" type="line"/>
      <point x="25" y="259" type="line"/>
      <point x="25" y="443" type="line"/>
      <point x="645" y="443" type="line"/>
      <point x="645" y="260" type="line"/>
    </contour>
    <contour>
      <point x="447" y="25" type="line"/>
      <point x="215" y="25" type="line"/>
      <point x="215" y="229" type="line"/>
      <point x="447" y="229" type="line"/>
    </contour>
    <contour>
      <point x="447" y="473" type="line"/>
      <point x="215" y="473" type="line"/>
      <point x="215" y="677" type="line"/>
      <point x="447" y="677" type="line"/>
    </contour>
  </outline>
</glyph>
<glyph name="oslash.color0" format="2">
  <advance width="600"/>
  <unicode hex="00F8"/>
  <outline>
    <contour>
      <point x="148" y="0" type="line"/>
      <point x="35" y="0" type="line"/>
      <point x="35" y="2" type="line"/>
      <point x="801" y="530" type="line"/>
      <point x="914" y="530" type="line"/>
      <point x="914" y="529" type="line"/>
    </contour>
  </outline>
</glyph>
<glyph name="oslash" format="2">
  <advance width="949"/>
  <unicode hex="00F8"/>
  <anchor x="488" y="0" name="bottom"/>
  <anchor x="731" y="530" name="horn"/>
  <anchor x="508" y="530" name="top"/>
  <outline>
    <contour>
      <point x="148" y="0" type="line"/>
      <point x="35" y="0" type="line"/>
      <point x="35" y="2" type="line"/>
      <point x="801" y="530" type="line"/>
      <point x="914" y="530" type="line"/>
      <point x="914" y="529" type="line"/>
    </contour>
    <contour>
      <point x="91" y="423" type="line"/>
      <point x="304" y="530" type="line"/>
      <point x="305" y="530" type="line"/>
      <point x="305" y="204" type="line"/>
      <point x="91" y="204" type="line"/>
    </contour>
    <contour>
      <point x="771" y="530" type="line"/>
      <point x="878" y="327" type="line"/>
      <point x="878" y="326" type="line"/>
      <point x="305" y="326" type="line"/>
      <point x="305" y="530" type="line"/>
    </contour>
    <contour>
      <point x="878" y="107" type="line"/>
      <point x="665" y="0" type="line"/>
      <point x="664" y="0" type="line"/>
      <point x="664" y="326" type="line"/>
      <point x="878" y="326" type="line"/>
    </contour>
    <contour>
      <point x="198" y="0" type="line"/>
      <point x="91" y="203" type="line"/>
      <point x="91" y="204" type="line"/>
      <point x="664" y="204" type="line"/>
      <point x="664" y="0" type="line"/>
    </contour>
  </outline>
</glyph>
<glyph name="uacute.color3" format="2">
  <advance width="807"/>
  <unicode hex="00FA"/>
  <outline>
    <contour>
      <point x="339" y="590" type="line"/>
      <point x="374" y="820" type="line"/>
      <point x="550" y="820" type="line"/>
      <point x="550" y="819" type="line"/>
      <point x="435" y="590" type="line"/>
    </contour>
  </outline>
</glyph>
<glyph name="ucircumflex.color3" format="2">
  <advance width="807"/>
  <unicode hex="00FB"/>
  <outline>
    <contour>
      <point x="622" y="592" type="line"/>
      <point x="465" y="592" type="line"/>
      <point x="361" y="739" type="line"/>
      <point x="443" y="770" type="line"/>
      <point x="484" y="770" type="line"/>
    </contour>
  </outline>
</glyph>
<glyph name="ucircumflex" format="2">
  <advance width="807"/>
  <unicode hex="00FB"/>
  <anchor x="422" y="0" name="bottom"/>
  <anchor x="772" y="530" name="horn"/>
  <anchor x="424" y="750" name="top"/>
  <outline>
    <contour>
      <point x="772" y="0" type="line"/>
      <point x="559" y="0" type="line"/>
      <point x="558" y="0" type="line"/>
      <point x="558" y="530" type="line"/>
      <point x="772" y="530" type="line"/>
    </contour>
    <contour>
      <point x="142" y="0" type="line"/>
      <point x="35" y="203" type="line"/>
      <point x="35" y="204" type="line"/>
      <point x="558" y="204" type="line"/>
      <point x="558" y="0" type="line"/>
    </contour>
    <contour>
      <point x="35" y="489" type="line"/>
      <point x="248" y="536" type="line"/>
      <point x="249" y="536" type="line"/>
      <point x="249" y="204" type="line"/>
      <point x="35" y="204" type="line"/>
    </contour>
    <contour>
      <point x="622" y="592" type="line"/>
      <point x="465" y="592" type="line"/>
      <point x="361" y="739" type="line"/>
      <point x="443" y="770" type="line"/>
      <point x="484" y="770" type="line"/>
    </contour>
    <contour>
      <point x="196" y="592" type="line"/>
      <point x="340" y="770" type="line"/>
      <point x="484" y="770" type="line"/>
      <point x="350" y="592" type="line"/>
    </contour>
  </outline>
</glyph>
<glyph name="udieresis.color3" format="2">
  <advance width="807"/>
  <unicode hex="00FC"/>
  <outline>
    <contour>
      <point x="376" y="640" type="line"/>
      <point x="200" y="640" type="line"/>
      <point x="200" y="772" type="line"/>
      <point x="376" y="772" type="line"/>
    </contour>
  </outline>
</glyph>
<glyph name="amacron.color3" format="2">
  <advance width="827"/>
  <unicode hex="0101"/>
  <outline>
    <contour>
      <point x="142" y="0" type="line"/>
      <point x="35" y="203" type="line"/>
      <point x="35" y="204" type="line"/>
      <point x="578" y="204" type="line"/>
      <point x="578" y="0" type="line"/>
    </contour>
  </outline>
</glyph>
<glyph name="Abreve.color0" format="2">
  <advance width="907"/>
  <unicode hex="0102"/>
  <outline>
    <contour>
      <point x="25" y="523" type="line"/>
      <point x="278" y="730" type="line"/>
      <point x="279" y="730" type="line"/>
      <point x="279" y="0" type="line"/>
      <point x="25" y="0" type="line"/>
    </contour>
  </outline>
</glyph>
<glyph name="abreve.color4" format="2">
  <advance width="827"/>
  <unicode hex="0103"/>
  <outline>
    <contour>
      <point x="375" y="700" type="line"/>
      <point x="239" y="700" type="line"/>
      <point x="192" y="778" type="line"/>
      <point x="192" y="780" type="line"/>
      <point x="328" y="780" type="line"/>
    </contour>
  </outline>
</glyph>
<glyph name="abreve.color5" format="2">
  <advance width="827"/>
  <unicode hex="0103"/>
  <outline>
    <contour>
      <point x="490" y="700" type="line"/>
      <point x="537" y="780" type="line"/>
      <point x="663" y="780" type="line"/>
      <point x="663" y="779" type="line"/>
      <point x="616" y="700" type="line"/>
    </contour>
  </outline>
</glyph>
<glyph name="Aogonek.color6" format="2">
  <advance width="907"/>
  <unicode hex="0104"/>
  <outline>
    <contour>
      <point x="315" y="-174" type="line"/>
      <point x="315" y="-86" type="line"/>
      <point x="443" y="-86" type="line"/>
      <point x="443" y="-230" type="line"/>
      <point x="442" y="-230" type="line"/>
    </contour>
  </outline>
</glyph>
<glyph name="Aogonek" format="2">
  <advance width="907"/>
  <unicode hex="0104"/>
  <anchor x="452" y="0" name="bottom"/>
  <anchor x="476" y="730" name="top"/>
  <outline>
    <contour>
      <point x="25" y="523" type="line"/>
      <point x="278" y="730" type="line"/>
      <point x="279" y="730" type="line"/>
      <point x="279" y="0" type="line"/>
      <point x="25" y="0" type="line"/>
    </contour>
    <contour>
      <point x="680" y="730" type="line"/>
      <point x="882" y="487" type="line"/>
      <point x="882" y="486" type="line"/>
      <point x="279" y="486" type="line"/>
      <point x="279" y="730" type="line"/>
    </contour>
    <contour>
      <point x="882" y="0" type="line"/>
      <point x="628" y="0" type="line"/>
      <point x="628" y="486" type="line"/>
      <point x="629" y="486" type="line"/>
      <point x="882" y="486" type="line"/>
    </contour>
    <contour>
      <point x="628" y="173" type="line"/>
      <point x="279" y="173" type="line"/>
      <point x="279" y="417" type="line"/>
      <point x="628" y="417" type="line"/>
      <point x="628" y="416" type="line"/>
    </contour>
    <contour>
      <point x="561" y="-230" type="line"/>
      <point x="443" y="-230" type="line"/>
      <point x="443" y="-138" type="line"/>
      <point x="621" y="-138" type="line"/>
      <point x="621" y="-139" type="line"/>
    </contour>
    <contour>
      <point x="315" y="-86" type="line"/>
      <point x="315" y="-85" type="line"/>
      <point x="392" y="0" type="line"/>
      <point x="517" y="0" type="line"/>
      <point x="517" y="-1" type="line"/>
      <point x="443" y="-86" type="line"/>
    </contour>
    <contour>
      <point x="315" y="-174" type="line"/>
      <point x="315" y="-86" type="line"/>
      <point x="443" y="-86" type="line"/>
      <point x="443" y="-230" type="line"/>
      <point x="442" y="-230" type="line"/>
    </contour>
  </outline>
</glyph>
<glyph name="aogonek.color4" format="2">
  <advance width="827"/>
  <unicode hex="0105"/>
  <outline>
    <contour>
      <point x="550" y="-230" type="line"/>
      <point x="432" y="-230" type="line"/>
      <point x="432" y="-138" type="line"/>
      <point x="610" y="-138" type="line"/>
      <point x="610" y="-139" type="line"/>
    </contour>
  </outline>
</glyph>
<glyph name="aogonek.color5" format="2">
  <advance width="827"/>
  <unicode hex="0105"/>
  <outline>
    <contour>
      <point x="304" y="-86" type="line"/>
      <point x="304" y="-85" type="line"/>
      <point x="381" y="0" type="line"/>
      <point x="506" y="0" type="line"/>
      <point x="506" y="-1" type="line"/>
      <point x="432" y="-86" type="line"/>
    </contour>
  </outline>
</glyph>
<glyph name="aogonek" format="2">
  <advance width="827"/>
  <unicode hex="0105"/>
  <anchor x="441" y="0" name="bottom"/>
  <anchor x="452" y="530" name="top"/>
  <outline>
    <contour>
      <point x="35" y="423" type="line"/>
      <point x="248" y="530" type="line"/>
      <point x="249" y="530" type="line"/>
      <point x="249" y="204" type="line"/>
      <point x="35" y="204" type="line"/>
    </contour>
    <contour>
      <point x="685" y="530" type="line"/>
      <point x="792" y="327" type="line"/>
      <point x="792" y="326" type="line"/>
      <point x="249" y="326" type="line"/>
      <point x="249" y="530" type="line"/>
    </contour>
    <contour>
      <point x="792" y="0" type="line"/>
      <point x="579" y="0" type="line"/>
      <point x="578" y="0" type="line"/>
      <point x="578" y="326" type="line"/>
      <point x="792" y="326" type="line"/>
    </contour>
    <contour>
      <point x="142" y="0" type="line"/>
      <point x="35" y="203" type="line"/>
      <point x="35" y="204" type="line"/>
      <point x="578" y="204" type="line"/>
      <point x="578" y="0" type="line"/>
    </contour>
    <contour>
      <point x="550" y="-230" type="line"/>
      <point x="432" y="-230" type="line"/>
      <point x="432" y="-138" type="line"/>
      <point x="610" y="-138" type="line"/>
      <point x="610" y="-139" type="line"/>
    </contour>
    <contour>
      <point x="304" y="-86" type="line"/>
      <point x="304" y="-85" type="line"/>
      <point x="381" y="0" type="line"/>
      <point x="506" y="0" type="line"/>
      <point x="506" y="-1" type="line"/>
      <point x="432" y="-86" type="line"/>
    </contour>
    <contour>
      <point x="304" y="-174" type="line"/>
      <point x="304" y="-86" type="line"/>
      <point x="432" y="-86" type="line"/>
      <point x="432" y="-230" type="line"/>
      <point x="431" y="-230" type="line"/>
    </contour>
  </outline>
</glyph>
<glyph name="cacute.color1" format="2">
  <advance width="777"/>
  <unicode hex="0107"/>
  <outline>
    <contour>
      <point x="635" y="530" type="line"/>
      <point x="742" y="352" type="line"/>
      <point x="742" y="351" type="line"/>
      <point x="249" y="351" type="line"/>
      <point x="249" y="530" type="line"/>
    </contour>
  </outline>
</glyph>
<glyph name="Ccircumflex" format="2">
  <advance width="927"/>
  <unicode hex="0108"/>
  <anchor x="482" y="0" name="bottom"/>
  <anchor x="476" y="730" name="top"/>
  <outline>
    <contour>
      <point x="25" y="523" type="line"/>
      <point x="278" y="730" type="line"/>
      <point x="279" y="730" type="line"/>
      <point x="279" y="244" type="line"/>
      <point x="25" y="244" type="line"/>
    </contour>
    <contour>
      <point x="700" y="730" type="line"/>
      <point x="902" y="487" type="line"/>
      <point x="902" y="486" type="line"/>
      <point x="279" y="486" type="line"/>
      <point x="279" y="730" type="line"/>
    </contour>
    <contour>
      <point x="227" y="0" type="line"/>
      <point x="25" y="243" type="line"/>
      <point x="25" y="244" type="line"/>
      <point x="902" y="244" type="line"/>
      <point x="700" y="0" type="line"/>
    </contour>
    <contour>
      <point x="716" y="760" type="line"/>
      <point x="559" y="760" type="line"/>
      <point x="425" y="867" type="line"/>
      <point x="517" y="900" type="line"/>
      <point x="558" y="900" type="line"/>
      <point x="716" y="761" type="line"/>
    </contour>
    <contour>
      <point x="250" y="760" type="line"/>
      <point x="250" y="761" type="line"/>
      <point x="404" y="900" type="line"/>
      <point x="558" y="900" type="line"/>
      <point x="404" y="760" type="line"/>
    </contour>
  </outline>
</glyph>
<glyph name="ccircumflex.color2" format="2">
  <advance width="777"/>
  <unicode hex="0109"/>
  <outline>
    <contour>
      <point x="142" y="0" type="line"/>
      <point x="35" y="199" type="line"/>
      <point x="35" y="200" type="line"/>
      <point x="742" y="200" type="line"/>
      <point x="742" y="199" type="line"/>
      <point x="635" y="0" type="line"/>
    </contour>
  </outline>
</glyph>
<glyph name="ccircumflex" format="2">
  <advance width="777"/>
  <unicode hex="0109"/>
  <anchor x="405" y="0" name="bottom"/>
  <anchor x="424" y="750" name="top"/>
  <outline>
    <contour>
      <point x="35" y="423" type="line"/>
      <point x="248" y="530" type="line"/>
      <point x="249" y="530" type="line"/>
      <point x="249" y="200" type="line"/>
      <point x="35" y="200" type="line"/>
    </contour>
    <contour>
      <point x="635" y="530" type="line"/>
      <point x="742" y="352" type="line"/>
      <point x="742" y="351" type="line"/>
      <point x="249" y="351" type="line"/>
      <point x="249" y="530" type="line"/>
    </contour>
    <contour>
      <point x="142" y="0" type="line"/>
      <point x="35" y="199" type="line"/>
      <point x="35" y="200" type="line"/>
      <point x="742" y="200" type="line"/>
      <point x="742" y="199" type="line"/>
      <point x="635" y="0" type="line"/>
    </contour>
    <contour>
      <point x="622" y="592" type="line"/>
      <point x="465" y="592" type="line"/>
      <point x="361" y="739" type="line"/>
      <point x="443" y="770" type="line"/>
      <point x="484" y="770" type="line"/>
    </contour>
    <contour>
      <point x="196" y="592" type="line"/>
      <point x="340" y="770" type="line"/>
      <point x="484" y="770" type="line"/>
      <point x="350" y="592" type="line"/>
    </contour>
  </outline>
</glyph>
